ISO-10303-21;
HEADER;
FILE_DESCRIPTION(('Open CASCADE Model'),'2;1');
FILE_NAME('Open CASCADE Shape Model','2026-10-04T18:41:27',('Author'),(
    'Open CASCADE'),'Open CASCADE STEP processor 7.9','Open CASCADE 7.9'
  ,'Unknown');
FILE_SCHEMA(('AUTOMOTIVE_DESIGN { 1 0 10303 214 1 1 1 1 }'));
ENDSEC;
DATA;
#1 = APPLICATION_PROTOCOL_DEFINITION('international standard',
  'automotive_design',2000,#2);
#2 = APPLICATION_CONTEXT(
  'core data for automotive mechanical design processes');
#3 = SHAPE_DEFINITION_REPRESENTATION(#4,#10);
#4 = PRODUCT_DEFINITION_SHAPE('','',#5);
#5 = PRODUCT_DEFINITION('design','',#6,#9);
#6 = PRODUCT_DEFINITION_FORMATION('','',#7);
#7 = PRODUCT('Open CASCADE STEP translator 7.9 17',
  'Open CASCADE STEP translator 7.9 17','',(#8));
#8 = PRODUCT_CONTEXT('',#2,'mechanical');
#9 = PRODUCT_DEFINITION_CONTEXT('part definition',#2,'design');
#10 = ADVANCED_BREP_SHAPE_REPRESENTATION('',(#11,#15),#425);
#11 = AXIS2_PLACEMENT_3D('',#12,#13,#14);
#12 = CARTESIAN_POINT('',(0.,0.,0.));
#13 = DIRECTION('',(0.,0.,1.));
#14 = DIRECTION('',(1.,0.,-0.));
#15 = MANIFOLD_SOLID_BREP('',#16);
#16 = CLOSED_SHELL('',(#17,#385,#416,#421));
#17 = ADVANCED_FACE('',(#18),#32,.T.);
#18 = FACE_BOUND('',#19,.T.);
#19 = EDGE_LOOP('',(#20,#50,#77,#78,#107,#363));
#20 = ORIENTED_EDGE('',*,*,#21,.T.);
#21 = EDGE_CURVE('',#22,#24,#26,.T.);
#22 = VERTEX_POINT('',#23);
#23 = CARTESIAN_POINT('',(387.40943824457,50.857695154587,
    48.000740261885));
#24 = VERTEX_POINT('',#25);
#25 = CARTESIAN_POINT('',(387.40943824457,82.900635094611,
    66.500740261885));
#26 = SEAM_CURVE('',#27,(#31,#43),.PCURVE_S1.);
#27 = LINE('',#28,#29);
#28 = CARTESIAN_POINT('',(387.40943824457,50.857695154587,
    48.000740261885));
#29 = VECTOR('',#30,1.);
#30 = DIRECTION('',(0.,0.866025403784,0.5));
#31 = PCURVE('',#32,#37);
#32 = CYLINDRICAL_SURFACE('',#33,9.5);
#33 = AXIS2_PLACEMENT_3D('',#34,#35,#36);
#34 = CARTESIAN_POINT('',(387.40943824457,55.607695154587,
    39.773498925933));
#35 = DIRECTION('',(0.,0.866025403784,0.5));
#36 = DIRECTION('',(0.,-0.5,0.866025403784));
#37 = DEFINITIONAL_REPRESENTATION('',(#38),#42);
#38 = LINE('',#39,#40);
#39 = CARTESIAN_POINT('',(6.28318530718,-0.));
#40 = VECTOR('',#41,1.);
#41 = DIRECTION('',(0.,1.));
#42 = ( GEOMETRIC_REPRESENTATION_CONTEXT(2) 
PARAMETRIC_REPRESENTATION_CONTEXT() REPRESENTATION_CONTEXT('2D SPACE',''
  ) );
#43 = PCURVE('',#32,#44);
#44 = DEFINITIONAL_REPRESENTATION('',(#45),#49);
#45 = LINE('',#46,#47);
#46 = CARTESIAN_POINT('',(0.,-0.));
#47 = VECTOR('',#48,1.);
#48 = DIRECTION('',(0.,1.));
#49 = ( GEOMETRIC_REPRESENTATION_CONTEXT(2) 
PARAMETRIC_REPRESENTATION_CONTEXT() REPRESENTATION_CONTEXT('2D SPACE',''
  ) );
#50 = ORIENTED_EDGE('',*,*,#51,.F.);
#51 = EDGE_CURVE('',#24,#24,#52,.T.);
#52 = SURFACE_CURVE('',#53,(#58,#65),.PCURVE_S1.);
#53 = CIRCLE('',#54,9.5);
#54 = AXIS2_PLACEMENT_3D('',#55,#56,#57);
#55 = CARTESIAN_POINT('',(387.40943824457,87.650635094611,
    58.273498925933));
#56 = DIRECTION('',(0.,0.866025403784,0.5));
#57 = DIRECTION('',(0.,-0.5,0.866025403784));
#58 = PCURVE('',#32,#59);
#59 = DEFINITIONAL_REPRESENTATION('',(#60),#64);
#60 = LINE('',#61,#62);
#61 = CARTESIAN_POINT('',(0.,37.));
#62 = VECTOR('',#63,1.);
#63 = DIRECTION('',(1.,0.));
#64 = ( GEOMETRIC_REPRESENTATION_CONTEXT(2) 
PARAMETRIC_REPRESENTATION_CONTEXT() REPRESENTATION_CONTEXT('2D SPACE',''
  ) );
#65 = PCURVE('',#66,#71);
#66 = PLANE('',#67);
#67 = AXIS2_PLACEMENT_3D('',#68,#69,#70);
#68 = CARTESIAN_POINT('',(387.40943824457,87.650635094611,
    58.273498925933));
#69 = DIRECTION('',(0.,0.866025403784,0.5));
#70 = DIRECTION('',(0.,-0.5,0.866025403784));
#71 = DEFINITIONAL_REPRESENTATION('',(#72),#76);
#72 = CIRCLE('',#73,9.5);
#73 = AXIS2_PLACEMENT_2D('',#74,#75);
#74 = CARTESIAN_POINT('',(0.,0.));
#75 = DIRECTION('',(1.,0.));
#76 = ( GEOMETRIC_REPRESENTATION_CONTEXT(2) 
PARAMETRIC_REPRESENTATION_CONTEXT() REPRESENTATION_CONTEXT('2D SPACE',''
  ) );
#77 = ORIENTED_EDGE('',*,*,#21,.F.);
#78 = ORIENTED_EDGE('',*,*,#79,.T.);
#79 = EDGE_CURVE('',#22,#80,#82,.T.);
#80 = VERTEX_POINT('',#81);
#81 = CARTESIAN_POINT('',(394.96990358759,52.731527400572,
    44.755167606978));
#82 = SURFACE_CURVE('',#83,(#88,#95),.PCURVE_S1.);
#83 = CIRCLE('',#84,9.5);
#84 = AXIS2_PLACEMENT_3D('',#85,#86,#87);
#85 = CARTESIAN_POINT('',(387.40943824457,55.607695154587,
    39.773498925933));
#86 = DIRECTION('',(0.,0.866025403784,0.5));
#87 = DIRECTION('',(0.,-0.5,0.866025403784));
#88 = PCURVE('',#32,#89);
#89 = DEFINITIONAL_REPRESENTATION('',(#90),#94);
#90 = LINE('',#91,#92);
#91 = CARTESIAN_POINT('',(0.,0.));
#92 = VECTOR('',#93,1.);
#93 = DIRECTION('',(1.,0.));
#94 = ( GEOMETRIC_REPRESENTATION_CONTEXT(2) 
PARAMETRIC_REPRESENTATION_CONTEXT() REPRESENTATION_CONTEXT('2D SPACE',''
  ) );
#95 = PCURVE('',#96,#101);
#96 = PLANE('',#97);
#97 = AXIS2_PLACEMENT_3D('',#98,#99,#100);
#98 = CARTESIAN_POINT('',(387.40943824457,55.607695154587,
    39.773498925933));
#99 = DIRECTION('',(0.,0.866025403784,0.5));
#100 = DIRECTION('',(0.,-0.5,0.866025403784));
#101 = DEFINITIONAL_REPRESENTATION('',(#102),#106);
#102 = CIRCLE('',#103,9.5);
#103 = AXIS2_PLACEMENT_2D('',#104,#105);
#104 = CARTESIAN_POINT('',(0.,0.));
#105 = DIRECTION('',(1.,0.));
#106 = ( GEOMETRIC_REPRESENTATION_CONTEXT(2) 
PARAMETRIC_REPRESENTATION_CONTEXT() REPRESENTATION_CONTEXT('2D SPACE',''
  ) );
#107 = ORIENTED_EDGE('',*,*,#108,.T.);
#108 = EDGE_CURVE('',#80,#109,#111,.T.);
#109 = VERTEX_POINT('',#110);
#110 = CARTESIAN_POINT('',(379.84897290155,52.731527400572,
    44.755167606978));
#111 = SURFACE_CURVE('',#112,(#192,#275),.PCURVE_S1.);
#112 = B_SPLINE_CURVE_WITH_KNOTS('',8,(#113,#114,#115,#116,#117,#118,
    #119,#120,#121,#122,#123,#124,#125,#126,#127,#128,#129,#130,#131,
    #132,#133,#134,#135,#136,#137,#138,#139,#140,#141,#142,#143,#144,
    #145,#146,#147,#148,#149,#150,#151,#152,#153,#154,#155,#156,#157,
    #158,#159,#160,#161,#162,#163,#164,#165,#166,#167,#168,#169,#170,
    #171,#172,#173,#174,#175,#176,#177,#178,#179,#180,#181,#182,#183,
    #184,#185,#186,#187,#188,#189,#190,#191),.UNSPECIFIED.,.F.,.F.,(9,7,
    7,7,7,7,7,7,7,7,7,9),(0.,0.172170795273,0.258237159837,0.45100092627
    ,0.500565274625,0.547294300291,0.583116616687,0.630606252684,
    0.780715443269,0.91248235845,0.988124045722,1.),.UNSPECIFIED.);
#113 = CARTESIAN_POINT('',(394.96990324032,52.731526652743,
    44.755167702256));
#114 = CARTESIAN_POINT('',(395.5843130997,54.054629100358,
    44.586597826393));
#115 = CARTESIAN_POINT('',(396.04562357842,55.428001466648,
    44.443197594514));
#116 = CARTESIAN_POINT('',(396.38462243167,56.815604547181,
    44.330792323795));
#117 = CARTESIAN_POINT('',(396.62603890131,58.198850149849,
    44.247801416116));
#118 = CARTESIAN_POINT('',(396.78849928943,59.569732279481,
    44.190830259801));
#119 = CARTESIAN_POINT('',(396.88525399896,60.931173032704,
    44.156600551645));
#120 = CARTESIAN_POINT('',(396.92400373718,62.294752341322,
    44.142960736271));
#121 = CARTESIAN_POINT('',(396.8973965585,64.369098160017,44.15233650863
    ));
#122 = CARTESIAN_POINT('',(396.87448336979,65.059775882824,
    44.160406883793));
#123 = CARTESIAN_POINT('',(396.83813791187,65.74950893066,
    44.173185846343));
#124 = CARTESIAN_POINT('',(396.78883012681,66.438149453873,
    44.190442677195));
#125 = CARTESIAN_POINT('',(396.72689290255,67.125635563839,
    44.21195957926));
#126 = CARTESIAN_POINT('',(396.65252661261,67.811950038508,
    44.237534181757));
#127 = CARTESIAN_POINT('',(396.56580202459,68.497079639207,
    44.26697789875));
#128 = CARTESIAN_POINT('',(396.24461564616,70.71270295265,44.3743167849)
  );
#129 = CARTESIAN_POINT('',(395.96738922782,72.18924889423,
    44.464653969389));
#130 = CARTESIAN_POINT('',(395.63657074995,73.64341446897,
    44.568598707807));
#131 = CARTESIAN_POINT('',(395.24313618694,75.104885573185,
    44.686656606674));
#132 = CARTESIAN_POINT('',(394.77212852173,76.587549435448,
    44.819816091168));
#133 = CARTESIAN_POINT('',(394.20536611335,78.081843088872,
    44.967388979706));
#134 = CARTESIAN_POINT('',(393.52372857302,79.548156935663,
    45.123951901705));
#135 = CARTESIAN_POINT('',(392.50144913748,81.25727713534,
    45.316950649843));
#136 = CARTESIAN_POINT('',(392.28415631055,81.598964222331,
    45.356131291956));
#137 = CARTESIAN_POINT('',(392.05523540834,81.936854385563,
    45.395420911725));
#138 = CARTESIAN_POINT('',(391.8112874633,82.273030058964,
    45.435039942715));
#139 = CARTESIAN_POINT('',(391.54908943389,82.60739517033,
    45.474969482836));
#140 = CARTESIAN_POINT('',(391.26569278179,82.937561752349,
    45.514906495806));
#141 = CARTESIAN_POINT('',(390.95847192422,83.258794855932,
    45.55423083407));
#142 = CARTESIAN_POINT('',(390.31084240956,83.851776549755,
    45.627577662116));
#143 = CARTESIAN_POINT('',(389.93665117791,84.158895928901,
    45.665929947463));
#144 = CARTESIAN_POINT('',(389.5074878288,84.458637081011,
    45.703813908388));
#145 = CARTESIAN_POINT('',(389.02682575716,84.724439585881,
    45.737841382099));
#146 = CARTESIAN_POINT('',(388.498075617,84.929951747645,45.764417542482
    ));
#147 = CARTESIAN_POINT('',(387.92498954118,85.049041624038,
    45.779876650863));
#148 = CARTESIAN_POINT('',(387.31187402001,85.055831547201,
    45.780679268431));
#149 = CARTESIAN_POINT('',(386.16747765755,84.823978814695,
    45.750818228408));
#150 = CARTESIAN_POINT('',(385.71930378543,84.656191054877,
    45.729250138467));
#151 = CARTESIAN_POINT('',(385.31701993031,84.445972451358,
    45.702360806868));
#152 = CARTESIAN_POINT('',(384.9564274753,84.211637573428,
    45.672635539833));
#153 = CARTESIAN_POINT('',(384.6320736954,83.965244352719,
    45.641666140224));
#154 = CARTESIAN_POINT('',(384.33704507136,83.712491287154,
    45.610173442239));
#155 = CARTESIAN_POINT('',(384.06286690085,83.45267113747,45.57808984794
    ));
#156 = CARTESIAN_POINT('',(383.45205560624,82.816231395526,
    45.500317584127));
#157 = CARTESIAN_POINT('',(383.13173850113,82.437021940341,
    45.454565790842));
#158 = CARTESIAN_POINT('',(382.8367670308,82.049041504179,
    45.408434936897));
#159 = CARTESIAN_POINT('',(382.56431441872,81.65732714832,
    45.362582656899));
#160 = CARTESIAN_POINT('',(382.31126008683,81.264322708423,
    45.317316070865));
#161 = CARTESIAN_POINT('',(382.07425747405,80.869966724063,
    45.272637406116));
#162 = CARTESIAN_POINT('',(381.84984976305,80.471844690782,
    45.228302549919));
#163 = CARTESIAN_POINT('',(380.9543601014,78.780699267475,
    45.043517657986));
#164 = CARTESIAN_POINT('',(380.37479714397,77.429652346181,
    44.90422098345));
#165 = CARTESIAN_POINT('',(379.88350363462,76.059585417931,
    44.773251210709));
#166 = CARTESIAN_POINT('',(379.46729313831,74.694188270356,
    44.653961530838));
#167 = CARTESIAN_POINT('',(379.11404256771,73.339009132141,
    44.547085722969));
#168 = CARTESIAN_POINT('',(378.81405813312,71.985855136286,
    44.452403874643));
#169 = CARTESIAN_POINT('',(378.56160697713,70.617590725559,
    44.370046110161));
#170 = CARTESIAN_POINT('',(378.17766081598,67.98354908577,
    44.241810804876));
#171 = CARTESIAN_POINT('',(378.03885475461,66.75106593927,
    44.193941159696));
#172 = CARTESIAN_POINT('',(377.93981073898,65.516161068891,
    44.159023875973));
#173 = CARTESIAN_POINT('',(377.88126748891,64.277234091437,
    44.138098792713));
#174 = CARTESIAN_POINT('',(377.86559616587,63.033385101443,
    44.132475494014));
#175 = CARTESIAN_POINT('',(377.89682066211,61.785242662036,
    44.143738003949));
#176 = CARTESIAN_POINT('',(377.9807168429,60.535597915506,
    44.173545213293));
#177 = CARTESIAN_POINT('',(378.20787433504,58.574744776078,
    44.251585992141));
#178 = CARTESIAN_POINT('',(378.31049971479,57.862024278113,
    44.286518849299));
#179 = CARTESIAN_POINT('',(378.43458371965,57.149974048335,
    44.328229417764));
#180 = CARTESIAN_POINT('',(378.58235706576,56.437754335285,
    44.377090030025));
#181 = CARTESIAN_POINT('',(378.75659897898,55.725498761858,
    44.433481326938));
#182 = CARTESIAN_POINT('',(378.96063569991,55.01442193714,
    44.497706214495));
#183 = CARTESIAN_POINT('',(379.19834804526,54.306956187828,
    44.569853875166));
#184 = CARTESIAN_POINT('',(379.51750223304,53.497014514104,
    44.662111276594));
#185 = CARTESIAN_POINT('',(379.56177501014,53.387229082504,
    44.674824482712));
#186 = CARTESIAN_POINT('',(379.60703402941,53.277572792857,
    44.687731772134));
#187 = CARTESIAN_POINT('',(379.65330243905,53.168053526781,
    44.70083298007));
#188 = CARTESIAN_POINT('',(379.70060453878,53.058679803673,
    44.714127770333));
#189 = CARTESIAN_POINT('',(379.74896577986,52.949460780703,
    44.727615635339));
#190 = CARTESIAN_POINT('',(379.79841276509,52.840406252819,
    44.741295896107));
#191 = CARTESIAN_POINT('',(379.84897324882,52.731526652743,
    44.755167702256));
#192 = PCURVE('',#32,#193);
#193 = DEFINITIONAL_REPRESENTATION('',(#194),#274);
#194 = B_SPLINE_CURVE_WITH_KNOTS('',8,(#195,#196,#197,#198,#199,#200,
    #201,#202,#203,#204,#205,#206,#207,#208,#209,#210,#211,#212,#213,
    #214,#215,#216,#217,#218,#219,#220,#221,#222,#223,#224,#225,#226,
    #227,#228,#229,#230,#231,#232,#233,#234,#235,#236,#237,#238,#239,
    #240,#241,#242,#243,#244,#245,#246,#247,#248,#249,#250,#251,#252,
    #253,#254,#255,#256,#257,#258,#259,#260,#261,#262,#263,#264,#265,
    #266,#267,#268,#269,#270,#271,#272,#273),.UNSPECIFIED.,.F.,.F.,(9,7,
    7,7,7,7,7,7,7,7,7,9),(0.,0.172170795273,0.258237159837,0.45100092627
    ,0.500565274625,0.547294300291,0.583116616687,0.630606252684,
    0.780715443269,0.91248235845,0.988124045722,1.),.UNSPECIFIED.);
#195 = CARTESIAN_POINT('',(0.9203909764,-6.E-07));
#196 = CARTESIAN_POINT('',(1.027201472722,1.061554793513));
#197 = CARTESIAN_POINT('',(1.124533725453,2.179230035635));
#198 = CARTESIAN_POINT('',(1.21427150282,3.324726918391));
#199 = CARTESIAN_POINT('',(1.297813487391,4.481157296128));
#200 = CARTESIAN_POINT('',(1.376461723694,5.639890467832));
#201 = CARTESIAN_POINT('',(1.451521621144,6.801817891789));
#202 = CARTESIAN_POINT('',(1.524402823376,7.975892305441));
#203 = CARTESIAN_POINT('',(1.632760420445,9.777016366845));
#204 = CARTESIAN_POINT('',(1.668426632573,10.379196008205));
#205 = CARTESIAN_POINT('',(1.703722327573,10.982911830735));
#206 = CARTESIAN_POINT('',(1.738723851752,11.587920433339));
#207 = CARTESIAN_POINT('',(1.773507003762,12.194059320352));
#208 = CARTESIAN_POINT('',(1.808147524697,12.801212391648));
#209 = CARTESIAN_POINT('',(1.842721826719,13.409273889235));
#210 = CARTESIAN_POINT('',(1.954770897084,15.381729406969));
#211 = CARTESIAN_POINT('',(2.029815828346,16.705624294474));
#212 = CARTESIAN_POINT('',(2.10496376296,18.016940992725));
#213 = CARTESIAN_POINT('',(2.18247738662,19.34164104529));
#214 = CARTESIAN_POINT('',(2.264255266992,20.692245357545));
#215 = CARTESIAN_POINT('',(2.351812303258,22.060128066386));
#216 = CARTESIAN_POINT('',(2.446454261413,23.408274568629));
#217 = CARTESIAN_POINT('',(2.576128865357,24.984915453739));
#218 = CARTESIAN_POINT('',(2.603151619391,25.300415472275));
#219 = CARTESIAN_POINT('',(2.631101164555,25.612681747207));
#220 = CARTESIAN_POINT('',(2.660357954776,25.923627936001));
#221 = CARTESIAN_POINT('',(2.691248589256,26.233161386645));
#222 = CARTESIAN_POINT('',(2.724047388613,26.539062540638));
#223 = CARTESIAN_POINT('',(2.758986948066,26.83692073801));
#224 = CARTESIAN_POINT('',(2.831435176058,27.387131362863));
#225 = CARTESIAN_POINT('',(2.872786596495,27.672280689874));
#226 = CARTESIAN_POINT('',(2.919532174957,27.950806122614));
#227 = CARTESIAN_POINT('',(2.971123542376,28.198011581092));
#228 = CARTESIAN_POINT('',(3.027169943681,28.389278414143));
#229 = CARTESIAN_POINT('',(3.087415198835,28.500142826631));
#230 = CARTESIAN_POINT('',(3.151732438106,28.506424381362));
#231 = CARTESIAN_POINT('',(3.272567707912,28.290703505064));
#232 = CARTESIAN_POINT('',(3.320137099479,28.134610997647));
#233 = CARTESIAN_POINT('',(3.363247565631,27.939111680851));
#234 = CARTESIAN_POINT('',(3.402330853286,27.721309090055));
#235 = CARTESIAN_POINT('',(3.437899928811,27.492441601795));
#236 = CARTESIAN_POINT('',(3.470630978576,27.257804677139));
#237 = CARTESIAN_POINT('',(3.501411965395,27.016752029948));
#238 = CARTESIAN_POINT('',(3.570919512717,26.42669291354));
#239 = CARTESIAN_POINT('',(3.608107053707,26.075411995353));
#240 = CARTESIAN_POINT('',(3.643083387253,25.716345654492));
#241 = CARTESIAN_POINT('',(3.676092403442,25.354184931292));
#242 = CARTESIAN_POINT('',(3.707420050646,24.991199809524));
#243 = CARTESIAN_POINT('',(3.737405400347,24.627338176559));
#244 = CARTESIAN_POINT('',(3.766442534007,24.260386953833));
#245 = CARTESIAN_POINT('',(3.885155517927,22.703419609789));
#246 = CARTESIAN_POINT('',(3.969102450616,21.463730316977));
#247 = CARTESIAN_POINT('',(4.04785852307,20.211732665851));
#248 = CARTESIAN_POINT('',(4.122425391135,18.969619209874));
#249 = CARTESIAN_POINT('',(4.193928681322,17.742561745552));
#250 = CARTESIAN_POINT('',(4.263689712159,16.523355085754));
#251 = CARTESIAN_POINT('',(4.333217630604,15.297224464727));
#252 = CARTESIAN_POINT('',(4.466439713579,12.951959837402));
#253 = CARTESIAN_POINT('',(4.528524570736,11.860663300207));
#254 = CARTESIAN_POINT('',(4.590954646434,10.77374566934));
#255 = CARTESIAN_POINT('',(4.654234501685,9.6903408918));
#256 = CARTESIAN_POINT('',(4.718859310934,8.610324418645));
#257 = CARTESIAN_POINT('',(4.785321562067,7.535032613544));
#258 = CARTESIAN_POINT('',(4.854126095658,6.467712122016));
#259 = CARTESIAN_POINT('',(4.967004791564,4.808583879605));
#260 = CARTESIAN_POINT('',(5.009065673601,4.208816251148));
#261 = CARTESIAN_POINT('',(5.052280812231,3.613017947622));
#262 = CARTESIAN_POINT('',(5.096901718332,3.020647889175));
#263 = CARTESIAN_POINT('',(5.143178256451,2.432012117058));
#264 = CARTESIAN_POINT('',(5.191362412843,1.848313966587));
#265 = CARTESIAN_POINT('',(5.241715732633,1.271704485711));
#266 = CARTESIAN_POINT('',(5.302818838851,0.616403121397));
#267 = CARTESIAN_POINT('',(5.311175629697,0.527682751725));
#268 = CARTESIAN_POINT('',(5.319599462179,0.439171263916));
#269 = CARTESIAN_POINT('',(5.3280922424,0.350875401259));
#270 = CARTESIAN_POINT('',(5.336655972692,0.262802373673));
#271 = CARTESIAN_POINT('',(5.345292751619,0.174959857707));
#272 = CARTESIAN_POINT('',(5.354004773973,8.735599654558E-02));
#273 = CARTESIAN_POINT('',(5.362794330779,-6.E-07));
#274 = ( GEOMETRIC_REPRESENTATION_CONTEXT(2) 
PARAMETRIC_REPRESENTATION_CONTEXT() REPRESENTATION_CONTEXT('2D SPACE',''
  ) );
#275 = PCURVE('',#276,#281);
#276 = CYLINDRICAL_SURFACE('',#277,28.575);
#277 = AXIS2_PLACEMENT_3D('',#278,#279,#280);
#278 = CARTESIAN_POINT('',(387.40943824457,126.,17.198498925933));
#279 = DIRECTION('',(-0.,1.,-0.));
#280 = DIRECTION('',(1.,0.,0.));
#281 = DEFINITIONAL_REPRESENTATION('',(#282),#362);
#282 = B_SPLINE_CURVE_WITH_KNOTS('',8,(#283,#284,#285,#286,#287,#288,
    #289,#290,#291,#292,#293,#294,#295,#296,#297,#298,#299,#300,#301,
    #302,#303,#304,#305,#306,#307,#308,#309,#310,#311,#312,#313,#314,
    #315,#316,#317,#318,#319,#320,#321,#322,#323,#324,#325,#326,#327,
    #328,#329,#330,#331,#332,#333,#334,#335,#336,#337,#338,#339,#340,
    #341,#342,#343,#344,#345,#346,#347,#348,#349,#350,#351,#352,#353,
    #354,#355,#356,#357,#358,#359,#360,#361),.UNSPECIFIED.,.F.,.F.,(9,7,
    7,7,7,7,7,7,7,7,7,9),(0.,0.172170795273,0.258237159837,0.45100092627
    ,0.500565274625,0.547294300291,0.583116616687,0.630606252684,
    0.780715443269,0.91248235845,0.988124045722,1.),.UNSPECIFIED.);
#283 = CARTESIAN_POINT('',(-1.303024630552,-73.26847334725));
#284 = CARTESIAN_POINT('',(-1.280728399307,-71.94537089964));
#285 = CARTESIAN_POINT('',(-1.26383206596,-70.57199853335));
#286 = CARTESIAN_POINT('',(-1.251333850273,-69.18439545282));
#287 = CARTESIAN_POINT('',(-1.242401145685,-67.80114985014));
#288 = CARTESIAN_POINT('',(-1.23637594835,-66.43026772052));
#289 = CARTESIAN_POINT('',(-1.232784429402,-65.06882696729));
#290 = CARTESIAN_POINT('',(-1.231346780145,-63.70524765867));
#291 = CARTESIAN_POINT('',(-1.23233403339,-61.63090183998));
#292 = CARTESIAN_POINT('',(-1.233184178756,-60.94022411717));
#293 = CARTESIAN_POINT('',(-1.234532438846,-60.25049106934));
#294 = CARTESIAN_POINT('',(-1.236360619642,-59.56185054612));
#295 = CARTESIAN_POINT('',(-1.238655207941,-58.87436443616));
#296 = CARTESIAN_POINT('',(-1.241407268608,-58.18804996149));
#297 = CARTESIAN_POINT('',(-1.24461235901,-57.50292036079));
#298 = CARTESIAN_POINT('',(-1.256463550287,-55.28729704735));
#299 = CARTESIAN_POINT('',(-1.266667064354,-53.81075110577));
#300 = CARTESIAN_POINT('',(-1.278801178282,-52.35658553103));
#301 = CARTESIAN_POINT('',(-1.293173428592,-50.89511442681));
#302 = CARTESIAN_POINT('',(-1.310297513813,-49.41245056455));
#303 = CARTESIAN_POINT('',(-1.33078256405,-47.91815691112));
#304 = CARTESIAN_POINT('',(-1.355239251996,-46.45184306433));
#305 = CARTESIAN_POINT('',(-1.391646541293,-44.74272286466));
#306 = CARTESIAN_POINT('',(-1.399373212426,-44.40103577766));
#307 = CARTESIAN_POINT('',(-1.407501076134,-44.06314561443));
#308 = CARTESIAN_POINT('',(-1.416149302043,-43.72696994103));
#309 = CARTESIAN_POINT('',(-1.425429861567,-43.39260482967));
#310 = CARTESIAN_POINT('',(-1.435444244176,-43.06243824765));
#311 = CARTESIAN_POINT('',(-1.446282206337,-42.74120514406));
#312 = CARTESIAN_POINT('',(-1.469091294798,-42.14822345024));
#313 = CARTESIAN_POINT('',(-1.482254208023,-41.84110407109));
#314 = CARTESIAN_POINT('',(-1.497328908735,-41.54136291899));
#315 = CARTESIAN_POINT('',(-1.514186614664,-41.27556041411));
#316 = CARTESIAN_POINT('',(-1.53270522045,-41.07004825235));
#317 = CARTESIAN_POINT('',(-1.55275756258,-40.95095837596));
#318 = CARTESIAN_POINT('',(-1.574205890478,-40.94416845279));
#319 = CARTESIAN_POINT('',(-1.614268388543,-41.1760211853));
#320 = CARTESIAN_POINT('',(-1.629966861164,-41.34380894512));
#321 = CARTESIAN_POINT('',(-1.644072816184,-41.55402754864));
#322 = CARTESIAN_POINT('',(-1.656732272065,-41.78836242657));
#323 = CARTESIAN_POINT('',(-1.668133316546,-42.03475564728));
#324 = CARTESIAN_POINT('',(-1.678515737914,-42.28750871284));
#325 = CARTESIAN_POINT('',(-1.688175749779,-42.54732886253));
#326 = CARTESIAN_POINT('',(-1.709724047616,-43.18376860447));
#327 = CARTESIAN_POINT('',(-1.721046204799,-43.56297805965));
#328 = CARTESIAN_POINT('',(-1.731492963295,-43.95095849582));
#329 = CARTESIAN_POINT('',(-1.741160549594,-44.34267285168));
#330 = CARTESIAN_POINT('',(-1.750156082631,-44.73567729157));
#331 = CARTESIAN_POINT('',(-1.758595667281,-45.13003327593));
#332 = CARTESIAN_POINT('',(-1.766600469945,-45.52815530921));
#333 = CARTESIAN_POINT('',(-1.798598935796,-47.21930073252));
#334 = CARTESIAN_POINT('',(-1.819447764403,-48.57034765381));
#335 = CARTESIAN_POINT('',(-1.837234297543,-49.94041458207));
#336 = CARTESIAN_POINT('',(-1.852382412387,-51.30581172963));
#337 = CARTESIAN_POINT('',(-1.865295997164,-52.66099086786));
#338 = CARTESIAN_POINT('',(-1.876303771521,-54.01414486371));
#339 = CARTESIAN_POINT('',(-1.885596471572,-55.38240927444));
#340 = CARTESIAN_POINT('',(-1.89976252392,-58.01645091423));
#341 = CARTESIAN_POINT('',(-1.904900644997,-59.24893406073));
#342 = CARTESIAN_POINT('',(-1.908575746702,-60.4838389311));
#343 = CARTESIAN_POINT('',(-1.910751508476,-61.72276590856));
#344 = CARTESIAN_POINT('',(-1.911334166079,-62.96661489855));
#345 = CARTESIAN_POINT('',(-1.910172470564,-64.21475733796));
#346 = CARTESIAN_POINT('',(-1.907056836668,-65.46440208449));
#347 = CARTESIAN_POINT('',(-1.898651262625,-67.42525522392));
#348 = CARTESIAN_POINT('',(-1.894857477121,-68.13797572188));
#349 = CARTESIAN_POINT('',(-1.890276359352,-68.85002595166));
#350 = CARTESIAN_POINT('',(-1.884829740473,-69.56224566471));
#351 = CARTESIAN_POINT('',(-1.878420943028,-70.27450123814));
#352 = CARTESIAN_POINT('',(-1.870935703747,-70.98557806286));
#353 = CARTESIAN_POINT('',(-1.862242858203,-71.69304381217));
#354 = CARTESIAN_POINT('',(-1.850616574864,-72.50298548589));
#355 = CARTESIAN_POINT('',(-1.849004609972,-72.61277091749));
#356 = CARTESIAN_POINT('',(-1.847357596488,-72.72242720714));
#357 = CARTESIAN_POINT('',(-1.845674750734,-72.83194647321));
#358 = CARTESIAN_POINT('',(-1.843955250506,-72.94132019632));
#359 = CARTESIAN_POINT('',(-1.842198235073,-73.05053921929));
#360 = CARTESIAN_POINT('',(-1.840402805178,-73.15959374718));
#361 = CARTESIAN_POINT('',(-1.838568023038,-73.26847334725));
#362 = ( GEOMETRIC_REPRESENTATION_CONTEXT(2) 
PARAMETRIC_REPRESENTATION_CONTEXT() REPRESENTATION_CONTEXT('2D SPACE',''
  ) );
#363 = ORIENTED_EDGE('',*,*,#364,.T.);
#364 = EDGE_CURVE('',#109,#22,#365,.T.);
#365 = SURFACE_CURVE('',#366,(#371,#378),.PCURVE_S1.);
#366 = CIRCLE('',#367,9.5);
#367 = AXIS2_PLACEMENT_3D('',#368,#369,#370);
#368 = CARTESIAN_POINT('',(387.40943824457,55.607695154587,
    39.773498925933));
#369 = DIRECTION('',(0.,0.866025403784,0.5));
#370 = DIRECTION('',(0.,-0.5,0.866025403784));
#371 = PCURVE('',#32,#372);
#372 = DEFINITIONAL_REPRESENTATION('',(#373),#377);
#373 = LINE('',#374,#375);
#374 = CARTESIAN_POINT('',(0.,0.));
#375 = VECTOR('',#376,1.);
#376 = DIRECTION('',(1.,0.));
#377 = ( GEOMETRIC_REPRESENTATION_CONTEXT(2) 
PARAMETRIC_REPRESENTATION_CONTEXT() REPRESENTATION_CONTEXT('2D SPACE',''
  ) );
#378 = PCURVE('',#96,#379);
#379 = DEFINITIONAL_REPRESENTATION('',(#380),#384);
#380 = CIRCLE('',#381,9.5);
#381 = AXIS2_PLACEMENT_2D('',#382,#383);
#382 = CARTESIAN_POINT('',(0.,0.));
#383 = DIRECTION('',(1.,0.));
#384 = ( GEOMETRIC_REPRESENTATION_CONTEXT(2) 
PARAMETRIC_REPRESENTATION_CONTEXT() REPRESENTATION_CONTEXT('2D SPACE',''
  ) );
#385 = ADVANCED_FACE('',(#386),#96,.F.);
#386 = FACE_BOUND('',#387,.F.);
#387 = EDGE_LOOP('',(#388,#389,#390));
#388 = ORIENTED_EDGE('',*,*,#364,.T.);
#389 = ORIENTED_EDGE('',*,*,#79,.T.);
#390 = ORIENTED_EDGE('',*,*,#391,.F.);
#391 = EDGE_CURVE('',#109,#80,#392,.T.);
#392 = SURFACE_CURVE('',#393,(#398,#405),.PCURVE_S1.);
#393 = ELLIPSE('',#394,32.995567884187,28.575);
#394 = AXIS2_PLACEMENT_3D('',#395,#396,#397);
#395 = CARTESIAN_POINT('',(387.40943824457,68.641377481543,
    17.198498925933));
#396 = DIRECTION('',(0.,0.866025403784,0.5));
#397 = DIRECTION('',(0.,0.5,-0.866025403784));
#398 = PCURVE('',#96,#399);
#399 = DEFINITIONAL_REPRESENTATION('',(#400),#404);
#400 = ELLIPSE('',#401,32.995567884187,28.575);
#401 = AXIS2_PLACEMENT_2D('',#402,#403);
#402 = CARTESIAN_POINT('',(-26.06736465391,0.));
#403 = DIRECTION('',(-1.,0.));
#404 = ( GEOMETRIC_REPRESENTATION_CONTEXT(2) 
PARAMETRIC_REPRESENTATION_CONTEXT() REPRESENTATION_CONTEXT('2D SPACE',''
  ) );
#405 = PCURVE('',#276,#406);
#406 = DEFINITIONAL_REPRESENTATION('',(#407),#415);
#407 = B_SPLINE_CURVE_WITH_KNOTS('',6,(#408,#409,#410,#411,#412,#413,
    #414),.UNSPECIFIED.,.F.,.F.,(7,7),(2.731221022312,3.551964284867),
  .PIECEWISE_BEZIER_KNOTS.);
#408 = CARTESIAN_POINT('',(-1.981167958072,-72.48663874663));
#409 = CARTESIAN_POINT('',(-1.844377414313,-73.38696579942));
#410 = CARTESIAN_POINT('',(-1.707586870554,-73.94760845));
#411 = CARTESIAN_POINT('',(-1.570796326795,-74.13824461583));
#412 = CARTESIAN_POINT('',(-1.434005783036,-73.94760845));
#413 = CARTESIAN_POINT('',(-1.297215239277,-73.38696579942));
#414 = CARTESIAN_POINT('',(-1.160424695517,-72.48663874663));
#415 = ( GEOMETRIC_REPRESENTATION_CONTEXT(2) 
PARAMETRIC_REPRESENTATION_CONTEXT() REPRESENTATION_CONTEXT('2D SPACE',''
  ) );
#416 = ADVANCED_FACE('',(#417),#276,.F.);
#417 = FACE_BOUND('',#418,.T.);
#418 = EDGE_LOOP('',(#419,#420));
#419 = ORIENTED_EDGE('',*,*,#108,.F.);
#420 = ORIENTED_EDGE('',*,*,#391,.F.);
#421 = ADVANCED_FACE('',(#422),#66,.T.);
#422 = FACE_BOUND('',#423,.T.);
#423 = EDGE_LOOP('',(#424));
#424 = ORIENTED_EDGE('',*,*,#51,.T.);
#425 = ( GEOMETRIC_REPRESENTATION_CONTEXT(3) 
GLOBAL_UNCERTAINTY_ASSIGNED_CONTEXT((#429)) GLOBAL_UNIT_ASSIGNED_CONTEXT
((#426,#427,#428)) REPRESENTATION_CONTEXT('Context #1',
  '3D Context with UNIT and UNCERTAINTY') );
#426 = ( LENGTH_UNIT() NAMED_UNIT(*) SI_UNIT(.MILLI.,.METRE.) );
#427 = ( NAMED_UNIT(*) PLANE_ANGLE_UNIT() SI_UNIT($,.RADIAN.) );
#428 = ( NAMED_UNIT(*) SI_UNIT($,.STERADIAN.) SOLID_ANGLE_UNIT() );
#429 = UNCERTAINTY_MEASURE_WITH_UNIT(LENGTH_MEASURE(1.E-07),#426,
  'distance_accuracy_value','confusion accuracy');
#430 = PRODUCT_RELATED_PRODUCT_CATEGORY('part',$,(#7));
ENDSEC;
END-ISO-10303-21;
