ISO-10303-21;
HEADER;
FILE_DESCRIPTION(('Open CASCADE Model'),'2;1');
FILE_NAME('Open CASCADE Shape Model','2026-10-04T18:34:10',('Author'),(
    'Open CASCADE'),'Open CASCADE STEP processor 7.9','Open CASCADE 7.9'
  ,'Unknown');
FILE_SCHEMA(('AUTOMOTIVE_DESIGN { 1 0 10303 214 1 1 1 1 }'));
ENDSEC;
DATA;
#1 = APPLICATION_PROTOCOL_DEFINITION('international standard',
  'automotive_design',2000,#2);
#2 = APPLICATION_CONTEXT(
  'core data for automotive mechanical design processes');
#3 = SHAPE_DEFINITION_REPRESENTATION(#4,#10);
#4 = PRODUCT_DEFINITION_SHAPE('','',#5);
#5 = PRODUCT_DEFINITION('design','',#6,#9);
#6 = PRODUCT_DEFINITION_FORMATION('','',#7);
#7 = PRODUCT('Open CASCADE STEP translator 7.9 13',
  'Open CASCADE STEP translator 7.9 13','',(#8));
#8 = PRODUCT_CONTEXT('',#2,'mechanical');
#9 = PRODUCT_DEFINITION_CONTEXT('part definition',#2,'design');
#10 = ADVANCED_BREP_SHAPE_REPRESENTATION('',(#11,#15),#1007);
#11 = AXIS2_PLACEMENT_3D('',#12,#13,#14);
#12 = CARTESIAN_POINT('',(0.,0.,0.));
#13 = DIRECTION('',(0.,0.,1.));
#14 = DIRECTION('',(1.,0.,-0.));
#15 = MANIFOLD_SOLID_BREP('',#16);
#16 = CLOSED_SHELL('',(#17,#385,#416,#805,#840,#895,#950,#980));
#17 = ADVANCED_FACE('',(#18),#32,.T.);
#18 = FACE_BOUND('',#19,.T.);
#19 = EDGE_LOOP('',(#20,#50,#77,#78,#107,#363));
#20 = ORIENTED_EDGE('',*,*,#21,.T.);
#21 = EDGE_CURVE('',#22,#24,#26,.T.);
#22 = VERTEX_POINT('',#23);
#23 = CARTESIAN_POINT('',(123.75743824457,50.857695154587,
    48.000740261885));
#24 = VERTEX_POINT('',#25);
#25 = CARTESIAN_POINT('',(123.75743824457,82.900635094611,
    66.500740261885));
#26 = SEAM_CURVE('',#27,(#31,#43),.PCURVE_S1.);
#27 = LINE('',#28,#29);
#28 = CARTESIAN_POINT('',(123.75743824457,50.857695154587,
    48.000740261885));
#29 = VECTOR('',#30,1.);
#30 = DIRECTION('',(0.,0.866025403784,0.5));
#31 = PCURVE('',#32,#37);
#32 = CYLINDRICAL_SURFACE('',#33,9.5);
#33 = AXIS2_PLACEMENT_3D('',#34,#35,#36);
#34 = CARTESIAN_POINT('',(123.75743824457,55.607695154587,
    39.773498925933));
#35 = DIRECTION('',(0.,0.866025403784,0.5));
#36 = DIRECTION('',(0.,-0.5,0.866025403784));
#37 = DEFINITIONAL_REPRESENTATION('',(#38),#42);
#38 = LINE('',#39,#40);
#39 = CARTESIAN_POINT('',(6.28318530718,-0.));
#40 = VECTOR('',#41,1.);
#41 = DIRECTION('',(0.,1.));
#42 = ( GEOMETRIC_REPRESENTATION_CONTEXT(2) 
PARAMETRIC_REPRESENTATION_CONTEXT() REPRESENTATION_CONTEXT('2D SPACE',''
  ) );
#43 = PCURVE('',#32,#44);
#44 = DEFINITIONAL_REPRESENTATION('',(#45),#49);
#45 = LINE('',#46,#47);
#46 = CARTESIAN_POINT('',(0.,-0.));
#47 = VECTOR('',#48,1.);
#48 = DIRECTION('',(0.,1.));
#49 = ( GEOMETRIC_REPRESENTATION_CONTEXT(2) 
PARAMETRIC_REPRESENTATION_CONTEXT() REPRESENTATION_CONTEXT('2D SPACE',''
  ) );
#50 = ORIENTED_EDGE('',*,*,#51,.F.);
#51 = EDGE_CURVE('',#24,#24,#52,.T.);
#52 = SURFACE_CURVE('',#53,(#58,#65),.PCURVE_S1.);
#53 = CIRCLE('',#54,9.5);
#54 = AXIS2_PLACEMENT_3D('',#55,#56,#57);
#55 = CARTESIAN_POINT('',(123.75743824457,87.650635094611,
    58.273498925933));
#56 = DIRECTION('',(0.,0.866025403784,0.5));
#57 = DIRECTION('',(0.,-0.5,0.866025403784));
#58 = PCURVE('',#32,#59);
#59 = DEFINITIONAL_REPRESENTATION('',(#60),#64);
#60 = LINE('',#61,#62);
#61 = CARTESIAN_POINT('',(0.,37.));
#62 = VECTOR('',#63,1.);
#63 = DIRECTION('',(1.,0.));
#64 = ( GEOMETRIC_REPRESENTATION_CONTEXT(2) 
PARAMETRIC_REPRESENTATION_CONTEXT() REPRESENTATION_CONTEXT('2D SPACE',''
  ) );
#65 = PCURVE('',#66,#71);
#66 = PLANE('',#67);
#67 = AXIS2_PLACEMENT_3D('',#68,#69,#70);
#68 = CARTESIAN_POINT('',(123.75743824457,87.650635094611,
    58.273498925933));
#69 = DIRECTION('',(0.,0.866025403784,0.5));
#70 = DIRECTION('',(0.,-0.5,0.866025403784));
#71 = DEFINITIONAL_REPRESENTATION('',(#72),#76);
#72 = CIRCLE('',#73,9.5);
#73 = AXIS2_PLACEMENT_2D('',#74,#75);
#74 = CARTESIAN_POINT('',(0.,0.));
#75 = DIRECTION('',(1.,0.));
#76 = ( GEOMETRIC_REPRESENTATION_CONTEXT(2) 
PARAMETRIC_REPRESENTATION_CONTEXT() REPRESENTATION_CONTEXT('2D SPACE',''
  ) );
#77 = ORIENTED_EDGE('',*,*,#21,.F.);
#78 = ORIENTED_EDGE('',*,*,#79,.T.);
#79 = EDGE_CURVE('',#22,#80,#82,.T.);
#80 = VERTEX_POINT('',#81);
#81 = CARTESIAN_POINT('',(131.31790358759,52.731527400571,
    44.755167606979));
#82 = SURFACE_CURVE('',#83,(#88,#95),.PCURVE_S1.);
#83 = CIRCLE('',#84,9.5);
#84 = AXIS2_PLACEMENT_3D('',#85,#86,#87);
#85 = CARTESIAN_POINT('',(123.75743824457,55.607695154587,
    39.773498925933));
#86 = DIRECTION('',(0.,0.866025403784,0.5));
#87 = DIRECTION('',(0.,-0.5,0.866025403784));
#88 = PCURVE('',#32,#89);
#89 = DEFINITIONAL_REPRESENTATION('',(#90),#94);
#90 = LINE('',#91,#92);
#91 = CARTESIAN_POINT('',(0.,0.));
#92 = VECTOR('',#93,1.);
#93 = DIRECTION('',(1.,0.));
#94 = ( GEOMETRIC_REPRESENTATION_CONTEXT(2) 
PARAMETRIC_REPRESENTATION_CONTEXT() REPRESENTATION_CONTEXT('2D SPACE',''
  ) );
#95 = PCURVE('',#96,#101);
#96 = PLANE('',#97);
#97 = AXIS2_PLACEMENT_3D('',#98,#99,#100);
#98 = CARTESIAN_POINT('',(123.75743824457,55.607695154587,
    39.773498925933));
#99 = DIRECTION('',(0.,0.866025403784,0.5));
#100 = DIRECTION('',(0.,-0.5,0.866025403784));
#101 = DEFINITIONAL_REPRESENTATION('',(#102),#106);
#102 = CIRCLE('',#103,9.5);
#103 = AXIS2_PLACEMENT_2D('',#104,#105);
#104 = CARTESIAN_POINT('',(0.,0.));
#105 = DIRECTION('',(1.,0.));
#106 = ( GEOMETRIC_REPRESENTATION_CONTEXT(2) 
PARAMETRIC_REPRESENTATION_CONTEXT() REPRESENTATION_CONTEXT('2D SPACE',''
  ) );
#107 = ORIENTED_EDGE('',*,*,#108,.T.);
#108 = EDGE_CURVE('',#80,#109,#111,.T.);
#109 = VERTEX_POINT('',#110);
#110 = CARTESIAN_POINT('',(116.19697290155,52.731527400571,
    44.755167606979));
#111 = SURFACE_CURVE('',#112,(#192,#275),.PCURVE_S1.);
#112 = B_SPLINE_CURVE_WITH_KNOTS('',8,(#113,#114,#115,#116,#117,#118,
    #119,#120,#121,#122,#123,#124,#125,#126,#127,#128,#129,#130,#131,
    #132,#133,#134,#135,#136,#137,#138,#139,#140,#141,#142,#143,#144,
    #145,#146,#147,#148,#149,#150,#151,#152,#153,#154,#155,#156,#157,
    #158,#159,#160,#161,#162,#163,#164,#165,#166,#167,#168,#169,#170,
    #171,#172,#173,#174,#175,#176,#177,#178,#179,#180,#181,#182,#183,
    #184,#185,#186,#187,#188,#189,#190,#191),.UNSPECIFIED.,.F.,.F.,(9,7,
    7,7,7,7,7,7,7,7,7,9),(0.,0.172170786853,0.258237147205,
    0.451000904205,0.500565251373,0.547294277085,0.583116594655,
    0.63060623222,0.78071543112,0.912482353602,0.988124045064,1.),
  .UNSPECIFIED.);
#113 = CARTESIAN_POINT('',(131.31790324032,52.731526652743,
    44.755167702256));
#114 = CARTESIAN_POINT('',(131.93231309971,54.054629100383,
    44.58659782639));
#115 = CARTESIAN_POINT('',(132.39362357839,55.428001466581,
    44.443197594524));
#116 = CARTESIAN_POINT('',(132.73262243171,56.815604547231,
    44.330792323781));
#117 = CARTESIAN_POINT('',(132.97403890128,58.198850149896,
    44.247801416126));
#118 = CARTESIAN_POINT('',(133.13649928944,59.56973227937,
    44.190830259797));
#119 = CARTESIAN_POINT('',(133.23325399895,60.93117303278,
    44.156600551646));
#120 = CARTESIAN_POINT('',(133.27200373718,62.2947523413,44.142960736271
    ));
#121 = CARTESIAN_POINT('',(133.2453965585,64.36909816001,44.15233650863)
  );
#122 = CARTESIAN_POINT('',(133.22248336979,65.059775882817,
    44.160406883793));
#123 = CARTESIAN_POINT('',(133.18613791187,65.74950893066,
    44.173185846343));
#124 = CARTESIAN_POINT('',(133.13683012681,66.438149453879,
    44.190442677195));
#125 = CARTESIAN_POINT('',(133.07489290255,67.125635563844,
    44.21195957926));
#126 = CARTESIAN_POINT('',(133.00052661261,67.811950038506,
    44.237534181757));
#127 = CARTESIAN_POINT('',(132.91380202459,68.497079639202,
    44.26697789875));
#128 = CARTESIAN_POINT('',(132.59261564616,70.712702952653,44.3743167849
    ));
#129 = CARTESIAN_POINT('',(132.31538922782,72.189248894216,
    44.464653969388));
#130 = CARTESIAN_POINT('',(131.98457074995,73.643414468966,
    44.568598707806));
#131 = CARTESIAN_POINT('',(131.59113618693,75.104885573221,
    44.686656606677));
#132 = CARTESIAN_POINT('',(131.12012852174,76.587549435423,
    44.819816091167));
#133 = CARTESIAN_POINT('',(130.55336611336,78.081843088862,
    44.967388979704));
#134 = CARTESIAN_POINT('',(129.87172857301,79.548156935677,
    45.123951901707));
#135 = CARTESIAN_POINT('',(128.84944913226,81.257277144068,
    45.316950650829));
#136 = CARTESIAN_POINT('',(128.63215632191,81.598964207585,
    45.35613129023));
#137 = CARTESIAN_POINT('',(128.40323540664,81.936854385294,
    45.395420911736));
#138 = CARTESIAN_POINT('',(128.15928745175,82.273030072712,
    45.435039944346));
#139 = CARTESIAN_POINT('',(127.89708943536,82.607395170864,
    45.474969482858));
#140 = CARTESIAN_POINT('',(127.613692795,82.937561737917,45.514906494071
    ));
#141 = CARTESIAN_POINT('',(127.30647191593,83.258794863522,
    45.554230835009));
#142 = CARTESIAN_POINT('',(126.65884240954,83.851776549778,
    45.627577662118));
#143 = CARTESIAN_POINT('',(126.28465117795,84.158895928858,
    45.665929947458));
#144 = CARTESIAN_POINT('',(125.8554878288,84.458637081024,
    45.703813908389));
#145 = CARTESIAN_POINT('',(125.37482575714,84.724439585903,
    45.737841382102));
#146 = CARTESIAN_POINT('',(124.84607561699,84.929951747628,
    45.76441754248));
#147 = CARTESIAN_POINT('',(124.27298954119,85.049041624042,
    45.779876650863));
#148 = CARTESIAN_POINT('',(123.65987402001,85.055831547201,
    45.780679268431));
#149 = CARTESIAN_POINT('',(122.51547764177,84.8239788115,45.750818227997
    ));
#150 = CARTESIAN_POINT('',(122.06730382686,84.656191068618,
    45.729250140205));
#151 = CARTESIAN_POINT('',(121.66501989351,84.445972433049,
    45.702360804581));
#152 = CARTESIAN_POINT('',(121.30442746798,84.211637575153,
    45.672635540027));
#153 = CARTESIAN_POINT('',(120.98007373267,83.965244370958,
    45.641666142503));
#154 = CARTESIAN_POINT('',(120.68504504631,83.712491269745,
    45.610173440089));
#155 = CARTESIAN_POINT('',(120.41086690655,83.452671143414,
    45.578089848667));
#156 = CARTESIAN_POINT('',(119.80005559859,82.816231387547,
    45.500317583152));
#157 = CARTESIAN_POINT('',(119.47973851331,82.437021955873,
    45.454565792666));
#158 = CARTESIAN_POINT('',(119.18476703219,82.049041503757,
    45.408434936899));
#159 = CARTESIAN_POINT('',(118.91231440811,81.657327133672,
    45.362582655205));
#160 = CARTESIAN_POINT('',(118.65926008526,81.26432270853,
    45.317316070826));
#161 = CARTESIAN_POINT('',(118.42225748448,80.869966739646,
    45.272637407891));
#162 = CARTESIAN_POINT('',(118.19784975824,80.471844681693,
    45.228302548925));
#163 = CARTESIAN_POINT('',(117.3023601014,78.780699267473,
    45.043517657985));
#164 = CARTESIAN_POINT('',(116.72279714398,77.429652346195,
    44.904220983451));
#165 = CARTESIAN_POINT('',(116.23150363461,76.059585417895,
    44.773251210707));
#166 = CARTESIAN_POINT('',(115.81529313832,74.694188270395,
    44.65396153084));
#167 = CARTESIAN_POINT('',(115.46204256771,73.339009132116,
    44.547085722969));
#168 = CARTESIAN_POINT('',(115.16205813313,71.985855136313,
    44.452403874643));
#169 = CARTESIAN_POINT('',(114.90960697713,70.617590725537,
    44.370046110159));
#170 = CARTESIAN_POINT('',(114.52566081598,67.98354908577,
    44.241810804876));
#171 = CARTESIAN_POINT('',(114.38685475461,66.751065939267,
    44.193941159696));
#172 = CARTESIAN_POINT('',(114.28781073898,65.516161068902,
    44.159023875973));
#173 = CARTESIAN_POINT('',(114.22926748891,64.277234091435,
    44.138098792713));
#174 = CARTESIAN_POINT('',(114.21359616587,63.033385101431,
    44.132475494014));
#175 = CARTESIAN_POINT('',(114.24482066211,61.785242662041,
    44.143738003949));
#176 = CARTESIAN_POINT('',(114.3287168429,60.535597915511,
    44.173545213293));
#177 = CARTESIAN_POINT('',(114.55587433504,58.57474477608,
    44.251585992141));
#178 = CARTESIAN_POINT('',(114.65849971479,57.862024278112,
    44.286518849299));
#179 = CARTESIAN_POINT('',(114.78258371965,57.149974048335,
    44.328229417764));
#180 = CARTESIAN_POINT('',(114.93035706576,56.437754335285,
    44.377090030025));
#181 = CARTESIAN_POINT('',(115.10459897898,55.725498761858,
    44.433481326938));
#182 = CARTESIAN_POINT('',(115.30863569991,55.014421937141,
    44.497706214495));
#183 = CARTESIAN_POINT('',(115.54634804526,54.306956187828,
    44.569853875166));
#184 = CARTESIAN_POINT('',(115.86550223304,53.497014514104,
    44.662111276594));
#185 = CARTESIAN_POINT('',(115.90977501014,53.387229082504,
    44.674824482712));
#186 = CARTESIAN_POINT('',(115.95503402941,53.277572792857,
    44.687731772134));
#187 = CARTESIAN_POINT('',(116.00130243905,53.168053526781,
    44.70083298007));
#188 = CARTESIAN_POINT('',(116.04860453878,53.058679803673,
    44.714127770333));
#189 = CARTESIAN_POINT('',(116.09696577986,52.949460780703,
    44.727615635339));
#190 = CARTESIAN_POINT('',(116.14641276509,52.840406252819,
    44.741295896107));
#191 = CARTESIAN_POINT('',(116.19697324882,52.731526652743,
    44.755167702256));
#192 = PCURVE('',#32,#193);
#193 = DEFINITIONAL_REPRESENTATION('',(#194),#274);
#194 = B_SPLINE_CURVE_WITH_KNOTS('',8,(#195,#196,#197,#198,#199,#200,
    #201,#202,#203,#204,#205,#206,#207,#208,#209,#210,#211,#212,#213,
    #214,#215,#216,#217,#218,#219,#220,#221,#222,#223,#224,#225,#226,
    #227,#228,#229,#230,#231,#232,#233,#234,#235,#236,#237,#238,#239,
    #240,#241,#242,#243,#244,#245,#246,#247,#248,#249,#250,#251,#252,
    #253,#254,#255,#256,#257,#258,#259,#260,#261,#262,#263,#264,#265,
    #266,#267,#268,#269,#270,#271,#272,#273),.UNSPECIFIED.,.F.,.F.,(9,7,
    7,7,7,7,7,7,7,7,7,9),(0.,0.172170786853,0.258237147205,
    0.451000904205,0.500565251373,0.547294277085,0.583116594655,
    0.63060623222,0.78071543112,0.912482353602,0.988124045064,1.),
  .UNSPECIFIED.);
#195 = CARTESIAN_POINT('',(0.9203909764,-6.E-07));
#196 = CARTESIAN_POINT('',(1.027201472724,1.061554793533));
#197 = CARTESIAN_POINT('',(1.124533725447,2.179230035584));
#198 = CARTESIAN_POINT('',(1.214271502825,3.32472691842));
#199 = CARTESIAN_POINT('',(1.297813487392,4.481157296183));
#200 = CARTESIAN_POINT('',(1.376461723689,5.639890467728));
#201 = CARTESIAN_POINT('',(1.451521621148,6.801817891858));
#202 = CARTESIAN_POINT('',(1.524402823375,7.975892305423));
#203 = CARTESIAN_POINT('',(1.632760420444,9.777016366839));
#204 = CARTESIAN_POINT('',(1.668426632573,10.379196008199));
#205 = CARTESIAN_POINT('',(1.703722327573,10.982911830736));
#206 = CARTESIAN_POINT('',(1.738723851752,11.587920433345));
#207 = CARTESIAN_POINT('',(1.773507003762,12.194059320356));
#208 = CARTESIAN_POINT('',(1.808147524696,12.801212391647));
#209 = CARTESIAN_POINT('',(1.842721826719,13.40927388923));
#210 = CARTESIAN_POINT('',(1.954770897084,15.381729406971));
#211 = CARTESIAN_POINT('',(2.029815828345,16.705624294463));
#212 = CARTESIAN_POINT('',(2.10496376296,18.016940992716));
#213 = CARTESIAN_POINT('',(2.182477386622,19.341641045331));
#214 = CARTESIAN_POINT('',(2.264255266991,20.692245357518));
#215 = CARTESIAN_POINT('',(2.351812303257,22.060128066377));
#216 = CARTESIAN_POINT('',(2.446454261414,23.408274568642));
#217 = CARTESIAN_POINT('',(2.576128866019,24.984915461791));
#218 = CARTESIAN_POINT('',(2.603151618035,25.300415458642));
#219 = CARTESIAN_POINT('',(2.631101164708,25.61268174698));
#220 = CARTESIAN_POINT('',(2.660357956129,25.923627948723));
#221 = CARTESIAN_POINT('',(2.691248589128,26.233161387118));
#222 = CARTESIAN_POINT('',(2.72404738709,26.539062527273));
#223 = CARTESIAN_POINT('',(2.758986948994,26.836920745053));
#224 = CARTESIAN_POINT('',(2.83143517606,27.387131362884));
#225 = CARTESIAN_POINT('',(2.872786596491,27.672280689836));
#226 = CARTESIAN_POINT('',(2.919532174956,27.950806122617));
#227 = CARTESIAN_POINT('',(2.97112354238,28.198011581127));
#228 = CARTESIAN_POINT('',(3.027169943681,28.389278414116));
#229 = CARTESIAN_POINT('',(3.087415198834,28.500142826638));
#230 = CARTESIAN_POINT('',(3.151732438106,28.506424381362));
#231 = CARTESIAN_POINT('',(3.272567709577,28.290703502091));
#232 = CARTESIAN_POINT('',(3.320137095061,28.134611010415));
#233 = CARTESIAN_POINT('',(3.363247569611,27.939111663851));
#234 = CARTESIAN_POINT('',(3.402330854027,27.721309091645));
#235 = CARTESIAN_POINT('',(3.437899924783,27.49244161873));
#236 = CARTESIAN_POINT('',(3.470630981336,27.257804660988));
#237 = CARTESIAN_POINT('',(3.501411964746,27.016752035459));
#238 = CARTESIAN_POINT('',(3.570919513588,26.426692906143));
#239 = CARTESIAN_POINT('',(3.608107052261,26.075412009715));
#240 = CARTESIAN_POINT('',(3.643083387135,25.716345654128));
#241 = CARTESIAN_POINT('',(3.676092404726,25.354184917759));
#242 = CARTESIAN_POINT('',(3.707420050786,24.991199809597));
#243 = CARTESIAN_POINT('',(3.737405399058,24.627338190942));
#244 = CARTESIAN_POINT('',(3.766442534645,24.260386945465));
#245 = CARTESIAN_POINT('',(3.885155517928,22.703419609787));
#246 = CARTESIAN_POINT('',(3.969102450617,21.463730316989));
#247 = CARTESIAN_POINT('',(4.047858523068,20.211732665824));
#248 = CARTESIAN_POINT('',(4.122425391138,18.969619209899));
#249 = CARTESIAN_POINT('',(4.19392868132,17.742561745537));
#250 = CARTESIAN_POINT('',(4.263689712159,16.523355085775));
#251 = CARTESIAN_POINT('',(4.333217630605,15.297224464708));
#252 = CARTESIAN_POINT('',(4.466439713579,12.951959837401));
#253 = CARTESIAN_POINT('',(4.528524570736,11.860663300204));
#254 = CARTESIAN_POINT('',(4.590954646433,10.773745669349));
#255 = CARTESIAN_POINT('',(4.654234501685,9.6903408918));
#256 = CARTESIAN_POINT('',(4.718859310934,8.610324418635));
#257 = CARTESIAN_POINT('',(4.785321562067,7.535032613548));
#258 = CARTESIAN_POINT('',(4.854126095658,6.46771212202));
#259 = CARTESIAN_POINT('',(4.967004791563,4.808583879606));
#260 = CARTESIAN_POINT('',(5.009065673601,4.208816251147));
#261 = CARTESIAN_POINT('',(5.052280812231,3.613017947622));
#262 = CARTESIAN_POINT('',(5.096901718332,3.020647889176));
#263 = CARTESIAN_POINT('',(5.143178256451,2.432012117057));
#264 = CARTESIAN_POINT('',(5.191362412842,1.848313966588));
#265 = CARTESIAN_POINT('',(5.241715732633,1.271704485711));
#266 = CARTESIAN_POINT('',(5.302818838851,0.616403121397));
#267 = CARTESIAN_POINT('',(5.311175629697,0.527682751725));
#268 = CARTESIAN_POINT('',(5.319599462179,0.439171263916));
#269 = CARTESIAN_POINT('',(5.3280922424,0.350875401259));
#270 = CARTESIAN_POINT('',(5.336655972692,0.262802373673));
#271 = CARTESIAN_POINT('',(5.345292751619,0.174959857707));
#272 = CARTESIAN_POINT('',(5.354004773973,8.735599654558E-02));
#273 = CARTESIAN_POINT('',(5.362794330779,-6.E-07));
#274 = ( GEOMETRIC_REPRESENTATION_CONTEXT(2) 
PARAMETRIC_REPRESENTATION_CONTEXT() REPRESENTATION_CONTEXT('2D SPACE',''
  ) );
#275 = PCURVE('',#276,#281);
#276 = CYLINDRICAL_SURFACE('',#277,28.575);
#277 = AXIS2_PLACEMENT_3D('',#278,#279,#280);
#278 = CARTESIAN_POINT('',(123.75743824457,126.,17.198498925933));
#279 = DIRECTION('',(-0.,1.,-0.));
#280 = DIRECTION('',(1.,0.,0.));
#281 = DEFINITIONAL_REPRESENTATION('',(#282),#362);
#282 = B_SPLINE_CURVE_WITH_KNOTS('',8,(#283,#284,#285,#286,#287,#288,
    #289,#290,#291,#292,#293,#294,#295,#296,#297,#298,#299,#300,#301,
    #302,#303,#304,#305,#306,#307,#308,#309,#310,#311,#312,#313,#314,
    #315,#316,#317,#318,#319,#320,#321,#322,#323,#324,#325,#326,#327,
    #328,#329,#330,#331,#332,#333,#334,#335,#336,#337,#338,#339,#340,
    #341,#342,#343,#344,#345,#346,#347,#348,#349,#350,#351,#352,#353,
    #354,#355,#356,#357,#358,#359,#360,#361),.UNSPECIFIED.,.F.,.F.,(9,7,
    7,7,7,7,7,7,7,7,7,9),(0.,0.172170786853,0.258237147205,
    0.451000904205,0.500565251373,0.547294277085,0.583116594655,
    0.63060623222,0.78071543112,0.912482353602,0.988124045064,1.),
  .UNSPECIFIED.);
#283 = CARTESIAN_POINT('',(-1.303024630552,-73.26847334725));
#284 = CARTESIAN_POINT('',(-1.280728399307,-71.94537089961));
#285 = CARTESIAN_POINT('',(-1.263832065962,-70.57199853341));
#286 = CARTESIAN_POINT('',(-1.251333850271,-69.18439545276));
#287 = CARTESIAN_POINT('',(-1.242401145686,-67.8011498501));
#288 = CARTESIAN_POINT('',(-1.236375948349,-66.43026772062));
#289 = CARTESIAN_POINT('',(-1.232784429403,-65.06882696722));
#290 = CARTESIAN_POINT('',(-1.231346780145,-63.7052476587));
#291 = CARTESIAN_POINT('',(-1.23233403339,-61.63090183999));
#292 = CARTESIAN_POINT('',(-1.233184178756,-60.94022411718));
#293 = CARTESIAN_POINT('',(-1.234532438846,-60.25049106934));
#294 = CARTESIAN_POINT('',(-1.236360619642,-59.56185054612));
#295 = CARTESIAN_POINT('',(-1.238655207941,-58.87436443615));
#296 = CARTESIAN_POINT('',(-1.241407268608,-58.18804996149));
#297 = CARTESIAN_POINT('',(-1.24461235901,-57.50292036079));
#298 = CARTESIAN_POINT('',(-1.256463550287,-55.28729704734));
#299 = CARTESIAN_POINT('',(-1.266667064354,-53.81075110578));
#300 = CARTESIAN_POINT('',(-1.278801178282,-52.35658553102));
#301 = CARTESIAN_POINT('',(-1.293173428592,-50.89511442679));
#302 = CARTESIAN_POINT('',(-1.310297513813,-49.41245056457));
#303 = CARTESIAN_POINT('',(-1.33078256405,-47.91815691114));
#304 = CARTESIAN_POINT('',(-1.355239251996,-46.45184306432));
#305 = CARTESIAN_POINT('',(-1.391646541479,-44.74272285593));
#306 = CARTESIAN_POINT('',(-1.399373212023,-44.40103579241));
#307 = CARTESIAN_POINT('',(-1.407501076193,-44.0631456147));
#308 = CARTESIAN_POINT('',(-1.416149302452,-43.72696992728));
#309 = CARTESIAN_POINT('',(-1.425429861516,-43.39260482913));
#310 = CARTESIAN_POINT('',(-1.43544424371,-43.06243826208));
#311 = CARTESIAN_POINT('',(-1.446282206629,-42.74120513647));
#312 = CARTESIAN_POINT('',(-1.469091294799,-42.14822345022));
#313 = CARTESIAN_POINT('',(-1.482254208022,-41.84110407114));
#314 = CARTESIAN_POINT('',(-1.497328908735,-41.54136291897));
#315 = CARTESIAN_POINT('',(-1.514186614666,-41.2755604141));
#316 = CARTESIAN_POINT('',(-1.53270522045,-41.07004825237));
#317 = CARTESIAN_POINT('',(-1.55275756258,-40.95095837595));
#318 = CARTESIAN_POINT('',(-1.574205890478,-40.94416845279));
#319 = CARTESIAN_POINT('',(-1.614268389095,-41.1760211885));
#320 = CARTESIAN_POINT('',(-1.629966859712,-41.34380893138));
#321 = CARTESIAN_POINT('',(-1.644072817475,-41.55402756695));
#322 = CARTESIAN_POINT('',(-1.65673227232,-41.78836242484));
#323 = CARTESIAN_POINT('',(-1.668133315238,-42.03475562904));
#324 = CARTESIAN_POINT('',(-1.678515738795,-42.28750873025));
#325 = CARTESIAN_POINT('',(-1.688175749578,-42.54732885658));
#326 = CARTESIAN_POINT('',(-1.709724047886,-43.18376861245));
#327 = CARTESIAN_POINT('',(-1.721046204368,-43.56297804412));
#328 = CARTESIAN_POINT('',(-1.731492963247,-43.95095849624));
#329 = CARTESIAN_POINT('',(-1.74116054997,-44.34267286632));
#330 = CARTESIAN_POINT('',(-1.750156082685,-44.73567729147));
#331 = CARTESIAN_POINT('',(-1.758595666911,-45.13003326035));
#332 = CARTESIAN_POINT('',(-1.766600470117,-45.5281553183));
#333 = CARTESIAN_POINT('',(-1.798598935796,-47.21930073252));
#334 = CARTESIAN_POINT('',(-1.819447764403,-48.5703476538));
#335 = CARTESIAN_POINT('',(-1.837234297543,-49.94041458211));
#336 = CARTESIAN_POINT('',(-1.852382412386,-51.30581172959));
#337 = CARTESIAN_POINT('',(-1.865295997164,-52.66099086789));
#338 = CARTESIAN_POINT('',(-1.876303771521,-54.01414486368));
#339 = CARTESIAN_POINT('',(-1.885596471572,-55.38240927446));
#340 = CARTESIAN_POINT('',(-1.89976252392,-58.01645091423));
#341 = CARTESIAN_POINT('',(-1.904900644997,-59.24893406073));
#342 = CARTESIAN_POINT('',(-1.908575746702,-60.48383893109));
#343 = CARTESIAN_POINT('',(-1.910751508476,-61.72276590856));
#344 = CARTESIAN_POINT('',(-1.911334166079,-62.96661489856));
#345 = CARTESIAN_POINT('',(-1.910172470564,-64.21475733795));
#346 = CARTESIAN_POINT('',(-1.907056836668,-65.46440208448));
#347 = CARTESIAN_POINT('',(-1.898651262625,-67.42525522392));
#348 = CARTESIAN_POINT('',(-1.894857477121,-68.13797572188));
#349 = CARTESIAN_POINT('',(-1.890276359352,-68.85002595166));
#350 = CARTESIAN_POINT('',(-1.884829740473,-69.56224566471));
#351 = CARTESIAN_POINT('',(-1.878420943028,-70.27450123814));
#352 = CARTESIAN_POINT('',(-1.870935703747,-70.98557806285));
#353 = CARTESIAN_POINT('',(-1.862242858203,-71.69304381217));
#354 = CARTESIAN_POINT('',(-1.850616574864,-72.50298548589));
#355 = CARTESIAN_POINT('',(-1.849004609972,-72.61277091749));
#356 = CARTESIAN_POINT('',(-1.847357596488,-72.72242720714));
#357 = CARTESIAN_POINT('',(-1.845674750734,-72.83194647321));
#358 = CARTESIAN_POINT('',(-1.843955250506,-72.94132019632));
#359 = CARTESIAN_POINT('',(-1.842198235073,-73.05053921929));
#360 = CARTESIAN_POINT('',(-1.840402805178,-73.15959374718));
#361 = CARTESIAN_POINT('',(-1.838568023038,-73.26847334725));
#362 = ( GEOMETRIC_REPRESENTATION_CONTEXT(2) 
PARAMETRIC_REPRESENTATION_CONTEXT() REPRESENTATION_CONTEXT('2D SPACE',''
  ) );
#363 = ORIENTED_EDGE('',*,*,#364,.T.);
#364 = EDGE_CURVE('',#109,#22,#365,.T.);
#365 = SURFACE_CURVE('',#366,(#371,#378),.PCURVE_S1.);
#366 = CIRCLE('',#367,9.5);
#367 = AXIS2_PLACEMENT_3D('',#368,#369,#370);
#368 = CARTESIAN_POINT('',(123.75743824457,55.607695154587,
    39.773498925933));
#369 = DIRECTION('',(0.,0.866025403784,0.5));
#370 = DIRECTION('',(0.,-0.5,0.866025403784));
#371 = PCURVE('',#32,#372);
#372 = DEFINITIONAL_REPRESENTATION('',(#373),#377);
#373 = LINE('',#374,#375);
#374 = CARTESIAN_POINT('',(0.,0.));
#375 = VECTOR('',#376,1.);
#376 = DIRECTION('',(1.,0.));
#377 = ( GEOMETRIC_REPRESENTATION_CONTEXT(2) 
PARAMETRIC_REPRESENTATION_CONTEXT() REPRESENTATION_CONTEXT('2D SPACE',''
  ) );
#378 = PCURVE('',#96,#379);
#379 = DEFINITIONAL_REPRESENTATION('',(#380),#384);
#380 = CIRCLE('',#381,9.5);
#381 = AXIS2_PLACEMENT_2D('',#382,#383);
#382 = CARTESIAN_POINT('',(0.,0.));
#383 = DIRECTION('',(1.,0.));
#384 = ( GEOMETRIC_REPRESENTATION_CONTEXT(2) 
PARAMETRIC_REPRESENTATION_CONTEXT() REPRESENTATION_CONTEXT('2D SPACE',''
  ) );
#385 = ADVANCED_FACE('',(#386),#96,.F.);
#386 = FACE_BOUND('',#387,.F.);
#387 = EDGE_LOOP('',(#388,#389,#390));
#388 = ORIENTED_EDGE('',*,*,#364,.T.);
#389 = ORIENTED_EDGE('',*,*,#79,.T.);
#390 = ORIENTED_EDGE('',*,*,#391,.F.);
#391 = EDGE_CURVE('',#109,#80,#392,.T.);
#392 = SURFACE_CURVE('',#393,(#398,#405),.PCURVE_S1.);
#393 = ELLIPSE('',#394,32.995567884187,28.575);
#394 = AXIS2_PLACEMENT_3D('',#395,#396,#397);
#395 = CARTESIAN_POINT('',(123.75743824457,68.641377481543,
    17.198498925933));
#396 = DIRECTION('',(0.,0.866025403784,0.5));
#397 = DIRECTION('',(0.,0.5,-0.866025403784));
#398 = PCURVE('',#96,#399);
#399 = DEFINITIONAL_REPRESENTATION('',(#400),#404);
#400 = ELLIPSE('',#401,32.995567884187,28.575);
#401 = AXIS2_PLACEMENT_2D('',#402,#403);
#402 = CARTESIAN_POINT('',(-26.06736465391,0.));
#403 = DIRECTION('',(-1.,0.));
#404 = ( GEOMETRIC_REPRESENTATION_CONTEXT(2) 
PARAMETRIC_REPRESENTATION_CONTEXT() REPRESENTATION_CONTEXT('2D SPACE',''
  ) );
#405 = PCURVE('',#276,#406);
#406 = DEFINITIONAL_REPRESENTATION('',(#407),#415);
#407 = B_SPLINE_CURVE_WITH_KNOTS('',6,(#408,#409,#410,#411,#412,#413,
    #414),.UNSPECIFIED.,.F.,.F.,(7,7),(2.731221022312,3.551964284867),
  .PIECEWISE_BEZIER_KNOTS.);
#408 = CARTESIAN_POINT('',(-1.981167958072,-72.48663874663));
#409 = CARTESIAN_POINT('',(-1.844377414313,-73.38696579942));
#410 = CARTESIAN_POINT('',(-1.707586870554,-73.94760845));
#411 = CARTESIAN_POINT('',(-1.570796326795,-74.13824461583));
#412 = CARTESIAN_POINT('',(-1.434005783036,-73.94760845));
#413 = CARTESIAN_POINT('',(-1.297215239277,-73.38696579942));
#414 = CARTESIAN_POINT('',(-1.160424695517,-72.48663874663));
#415 = ( GEOMETRIC_REPRESENTATION_CONTEXT(2) 
PARAMETRIC_REPRESENTATION_CONTEXT() REPRESENTATION_CONTEXT('2D SPACE',''
  ) );
#416 = ADVANCED_FACE('',(#417,#421),#276,.F.);
#417 = FACE_BOUND('',#418,.T.);
#418 = EDGE_LOOP('',(#419,#420));
#419 = ORIENTED_EDGE('',*,*,#108,.F.);
#420 = ORIENTED_EDGE('',*,*,#391,.F.);
#421 = FACE_BOUND('',#422,.T.);
#422 = EDGE_LOOP('',(#423));
#423 = ORIENTED_EDGE('',*,*,#424,.T.);
#424 = EDGE_CURVE('',#425,#425,#427,.T.);
#425 = VERTEX_POINT('',#426);
#426 = CARTESIAN_POINT('',(123.75743824457,55.,45.773498925933));
#427 = SURFACE_CURVE('',#428,(#550,#675),.PCURVE_S1.);
#428 = B_SPLINE_CURVE_WITH_KNOTS('',8,(#429,#430,#431,#432,#433,#434,
    #435,#436,#437,#438,#439,#440,#441,#442,#443,#444,#445,#446,#447,
    #448,#449,#450,#451,#452,#453,#454,#455,#456,#457,#458,#459,#460,
    #461,#462,#463,#464,#465,#466,#467,#468,#469,#470,#471,#472,#473,
    #474,#475,#476,#477,#478,#479,#480,#481,#482,#483,#484,#485,#486,
    #487,#488,#489,#490,#491,#492,#493,#494,#495,#496,#497,#498,#499,
    #500,#501,#502,#503,#504,#505,#506,#507,#508,#509,#510,#511,#512,
    #513,#514,#515,#516,#517,#518,#519,#520,#521,#522,#523,#524,#525,
    #526,#527,#528,#529,#530,#531,#532,#533,#534,#535,#536,#537,#538,
    #539,#540,#541,#542,#543,#544,#545,#546,#547,#548,#549),
  .UNSPECIFIED.,.T.,.F.,(9,7,7,7,7,7,7,7,7,7,7,7,7,7,7,7,7,9),(0.,
    1.393884073064E-02,2.496412306998E-02,4.469279332049E-02,
    6.928100552003E-02,0.163585087717,0.291913667525,0.458216825896,
    0.501034801035,0.539110959604,0.574827236989,0.625079429915,
    0.744588578252,0.841972965031,0.916951771354,0.964274121166,
    0.983796014868,1.),.UNSPECIFIED.);
#429 = CARTESIAN_POINT('',(123.75743824457,55.,45.773498925933));
#430 = CARTESIAN_POINT('',(123.8859306708,55.,45.773498925933));
#431 = CARTESIAN_POINT('',(124.01406250125,55.005717638834,
    45.772838716387));
#432 = CARTESIAN_POINT('',(124.14130289009,55.017096873781,
    45.771524398318));
#433 = CARTESIAN_POINT('',(124.26712127192,55.033973435591,
    45.769577922448));
#434 = CARTESIAN_POINT('',(124.39098734615,55.056074908215,
    45.767036099878));
#435 = CARTESIAN_POINT('',(124.51237106138,55.083020808528,
    45.763949612761));
#436 = CARTESIAN_POINT('',(124.63074259986,55.114322666062,
    45.760382024983));
#437 = CARTESIAN_POINT('',(124.83639989701,55.177116842195,
    45.753266063321));
#438 = CARTESIAN_POINT('',(124.92521532233,55.207264064598,
    45.749862314317));
#439 = CARTESIAN_POINT('',(125.01201455246,55.239633689851,
    45.746223382547));
#440 = CARTESIAN_POINT('',(125.09679739111,55.274040487715,
    45.742374041586));
#441 = CARTESIAN_POINT('',(125.17956753112,55.310306077799,
    45.738338001871));
#442 = CARTESIAN_POINT('',(125.26033255445,55.34825892956,
    45.734137910693));
#443 = CARTESIAN_POINT('',(125.33910393211,55.387734362303,
    45.729795352202));
#444 = CARTESIAN_POINT('',(125.55331079254,55.501654079672,
    45.717342050366));
#445 = CARTESIAN_POINT('',(125.68460206167,55.579216404863,
    45.708950059387));
#446 = CARTESIAN_POINT('',(125.81006075703,55.660507656159,45.700255861)
  );
#447 = CARTESIAN_POINT('',(125.93000707374,55.744904041935,
    45.691341916032));
#448 = CARTESIAN_POINT('',(126.04478521195,55.831907566957,
    45.68227361065));
#449 = CARTESIAN_POINT('',(126.15475711232,55.921141755802,
    45.673100707405));
#450 = CARTESIAN_POINT('',(126.26029619139,56.012347376279,
    45.663858796272));
#451 = CARTESIAN_POINT('',(126.4882635955,56.221324179084,
    45.642994873849));
#452 = CARTESIAN_POINT('',(126.60847933061,56.340133220888,
    45.63134465188));
#453 = CARTESIAN_POINT('',(126.72281987457,56.46121615497,
    45.619695567596));
#454 = CARTESIAN_POINT('',(126.83168615796,56.584121824038,
    45.608103507377));
#455 = CARTESIAN_POINT('',(126.93548312432,56.708530955198,
    45.596607312705));
#456 = CARTESIAN_POINT('',(127.03461440481,56.834250068348,
    45.585231336683));
#457 = CARTESIAN_POINT('',(127.12947699294,56.961205384576,
    45.573988000562));
#458 = CARTESIAN_POINT('',(127.56939076957,57.581247187126,
    45.520278767104));
#459 = CARTESIAN_POINT('',(127.86512873266,58.09736748022,
    45.479192598237));
#460 = CARTESIAN_POINT('',(128.11507237087,58.623772456072,
    45.441348255125));
#461 = CARTESIAN_POINT('',(128.32646775179,59.152499453398,
    45.407352045742));
#462 = CARTESIAN_POINT('',(128.50573327,59.680156700414,45.377205185331)
  );
#463 = CARTESIAN_POINT('',(128.65821105427,60.20732365105,
    45.350654035215));
#464 = CARTESIAN_POINT('',(128.78801507878,60.738152362945,
    45.32742253676));
#465 = CARTESIAN_POINT('',(129.04684094607,62.016113941534,
    45.280091585371));
#466 = CARTESIAN_POINT('',(129.15585420236,62.758211161882,
    45.259221433293));
#467 = CARTESIAN_POINT('',(129.22935519982,63.501320173455,
    45.24478741598));
#468 = CARTESIAN_POINT('',(129.27100347641,64.24315997688,
    45.236512008105));
#469 = CARTESIAN_POINT('',(129.28346755778,64.983095649698,
    45.234042703676));
#470 = CARTESIAN_POINT('',(129.26841570727,65.721599813808,
    45.237065594822));
#471 = CARTESIAN_POINT('',(129.22648683314,66.459689192756,
    45.245336615902));
#472 = CARTESIAN_POINT('',(129.06751505611,68.155538866416,
    45.275928634115));
#473 = CARTESIAN_POINT('',(128.9350655491,69.080057642742,
    45.301077398782));
#474 = CARTESIAN_POINT('',(128.76295389989,69.991237614069,
    45.332947827298));
#475 = CARTESIAN_POINT('',(128.54655129196,70.907096513767,
    45.371578136352));
#476 = CARTESIAN_POINT('',(128.27641829784,71.836197618361,
    45.417420828961));
#477 = CARTESIAN_POINT('',(127.94003657141,72.772746351729,
    45.470510978995));
#478 = CARTESIAN_POINT('',(127.52358562934,73.691647782492,
    45.528854418806));
#479 = CARTESIAN_POINT('',(126.88378789043,74.759323412756,
    45.602265397883));
#480 = CARTESIAN_POINT('',(126.74682355121,74.973040786202,45.6172809947
    ));
#481 = CARTESIAN_POINT('',(126.60172354249,75.184308406381,
    45.632419592816));
#482 = CARTESIAN_POINT('',(126.44629096224,75.394266073318,
    45.647752603417));
#483 = CARTESIAN_POINT('',(126.2784050929,75.60263846938,45.663256126344
    ));
#484 = CARTESIAN_POINT('',(126.09609699343,75.807652327995,
    45.678787313886));
#485 = CARTESIAN_POINT('',(125.8975988085,76.005984070263,
    45.694065369949));
#486 = CARTESIAN_POINT('',(125.4890810923,76.358809956826,
    45.721633049174));
#487 = CARTESIAN_POINT('',(125.26016706401,76.535250449477,
    45.735591881618));
#488 = CARTESIAN_POINT('',(124.99913286091,76.705023654032,
    45.749238827817));
#489 = CARTESIAN_POINT('',(124.709182333,76.852668791113,45.761305192529
    ));
#490 = CARTESIAN_POINT('',(124.39346684642,76.964113938927,
    45.770524716941));
#491 = CARTESIAN_POINT('',(124.05527810241,77.02661880759,
    45.775713268028));
#492 = CARTESIAN_POINT('',(123.69812428611,77.028770905956,
    45.775861987204));
#493 = CARTESIAN_POINT('',(122.97677101853,76.896357178205,
    45.764967236944));
#494 = CARTESIAN_POINT('',(122.66368052775,76.779306364075,
    45.755361038534));
#495 = CARTESIAN_POINT('',(122.38504571695,76.629505740286,
    45.743159707523));
#496 = CARTESIAN_POINT('',(122.13763927459,76.461727233139,
    45.729683090011));
#497 = CARTESIAN_POINT('',(121.91717448332,76.285531808732,
    45.715744564862));
#498 = CARTESIAN_POINT('',(121.71823237767,76.105220044997,
    45.701680693013));
#499 = CARTESIAN_POINT('',(121.53423887033,75.919820476047,
    45.687430531456));
#500 = CARTESIAN_POINT('',(121.11048390278,75.447115459834,
    45.651724576667));
#501 = CARTESIAN_POINT('',(120.88576265077,75.157143668686,
    45.630308974715));
#502 = CARTESIAN_POINT('',(120.68177665296,74.860355474424,
    45.608959466119));
#503 = CARTESIAN_POINT('',(120.49602310839,74.561105632865,
    45.588034903277));
#504 = CARTESIAN_POINT('',(120.32581625154,74.261364900053,
    45.56768317759));
#505 = CARTESIAN_POINT('',(120.16839519448,73.960872052814,
    45.54788751039));
#506 = CARTESIAN_POINT('',(120.02106590073,73.657337295428,
    45.528518787835));
#507 = CARTESIAN_POINT('',(119.54917155357,72.607936239835,
    45.463911460781));
#508 = CARTESIAN_POINT('',(119.26761721352,71.845520563018,
    45.420824883519));
#509 = CARTESIAN_POINT('',(119.03078742038,71.075504486916,
    45.381717244682));
#510 = CARTESIAN_POINT('',(118.83299654234,70.305696260839,
    45.347260304289));
#511 = CARTESIAN_POINT('',(118.6694350179,69.53794676962,45.317630729569
    ));
#512 = CARTESIAN_POINT('',(118.53663712423,68.769867229759,
    45.292868679496));
#513 = CARTESIAN_POINT('',(118.43291720731,67.996432782144,
    45.273145504824));
#514 = CARTESIAN_POINT('',(118.29860361933,66.572660678923,
    45.247304978907));
#515 = CARTESIAN_POINT('',(118.25869049747,65.933078949144,
    45.239472251482));
#516 = CARTESIAN_POINT('',(118.23899020994,65.292874266048,
    45.235557005327));
#517 = CARTESIAN_POINT('',(118.23987026129,64.651682230687,
    45.235722098593));
#518 = CARTESIAN_POINT('',(118.26223140636,64.009362758791,
    45.24016158347));
#519 = CARTESIAN_POINT('',(118.3075004686,63.366262900988,45.2490861462)
  );
#520 = CARTESIAN_POINT('',(118.37763057366,62.723463347143,
    45.262677742096));
#521 = CARTESIAN_POINT('',(118.55015985305,61.589905634738,
    45.295130551579));
#522 = CARTESIAN_POINT('',(118.64100123028,61.100958156057,
    45.311980222212));
#523 = CARTESIAN_POINT('',(118.7489790039,60.61361809797,45.331642622832
    ));
#524 = CARTESIAN_POINT('',(118.87609067458,60.126432560824,
    45.354242540629));
#525 = CARTESIAN_POINT('',(119.02493130837,59.639223016667,
    45.379906896256));
#526 = CARTESIAN_POINT('',(119.1986272788,59.153319631869,45.40868338895
    ));
#527 = CARTESIAN_POINT('',(119.40075761277,58.671850721835,
    45.440420255122));
#528 = CARTESIAN_POINT('',(119.78326933904,57.902337173661,
    45.496183954277));
#529 = CARTESIAN_POINT('',(119.94302205174,57.610765525818,
    45.518568877876));
#530 = CARTESIAN_POINT('',(120.1171408017,57.322621400313,
    45.541896034902));
#531 = CARTESIAN_POINT('',(120.3086264639,57.036836442653,
    45.566236945797));
#532 = CARTESIAN_POINT('',(120.52075039125,56.754156650837,
    45.591540881408));
#533 = CARTESIAN_POINT('',(120.75691564844,56.477317084956,
    45.61754119926));
#534 = CARTESIAN_POINT('',(121.02047556767,56.211264986231,
    45.643652190543));
#535 = CARTESIAN_POINT('',(121.43578692397,55.861200098222,
    45.679288595201));
#536 = CARTESIAN_POINT('',(121.56276993469,55.761637410293,
    45.689589683355));
#537 = CARTESIAN_POINT('',(121.6960011868,55.665092007426,
    45.699735076568));
#538 = CARTESIAN_POINT('',(121.83602177895,55.572105109587,
    45.709653142411));
#539 = CARTESIAN_POINT('',(121.98334327297,55.483423865284,45.7192455971
    ));
#540 = CARTESIAN_POINT('',(122.13843370664,55.400009406651,
    45.728384750184));
#541 = CARTESIAN_POINT('',(122.30170314114,55.323044898201,
    45.736912166718));
#542 = CARTESIAN_POINT('',(122.61607795048,55.196586605449,
    45.751052130376));
#543 = CARTESIAN_POINT('',(122.76569997996,55.144178010215,
    45.756966196096));
#544 = CARTESIAN_POINT('',(122.92139993924,55.09821241323,
    45.762197952936));
#545 = CARTESIAN_POINT('',(123.08222379994,55.059936433762,
    45.766585419657));
#546 = CARTESIAN_POINT('',(123.24721257977,55.030349101886,
    45.769993882918));
#547 = CARTESIAN_POINT('',(123.41539852876,55.010202123623,
    45.772320739957));
#548 = CARTESIAN_POINT('',(123.58580331997,55.,45.773498925933));
#549 = CARTESIAN_POINT('',(123.75743824457,55.,45.773498925933));
#550 = PCURVE('',#276,#551);
#551 = DEFINITIONAL_REPRESENTATION('',(#552),#674);
#552 = B_SPLINE_CURVE_WITH_KNOTS('',8,(#553,#554,#555,#556,#557,#558,
    #559,#560,#561,#562,#563,#564,#565,#566,#567,#568,#569,#570,#571,
    #572,#573,#574,#575,#576,#577,#578,#579,#580,#581,#582,#583,#584,
    #585,#586,#587,#588,#589,#590,#591,#592,#593,#594,#595,#596,#597,
    #598,#599,#600,#601,#602,#603,#604,#605,#606,#607,#608,#609,#610,
    #611,#612,#613,#614,#615,#616,#617,#618,#619,#620,#621,#622,#623,
    #624,#625,#626,#627,#628,#629,#630,#631,#632,#633,#634,#635,#636,
    #637,#638,#639,#640,#641,#642,#643,#644,#645,#646,#647,#648,#649,
    #650,#651,#652,#653,#654,#655,#656,#657,#658,#659,#660,#661,#662,
    #663,#664,#665,#666,#667,#668,#669,#670,#671,#672,#673),
  .UNSPECIFIED.,.T.,.F.,(9,7,7,7,7,7,7,7,7,7,7,7,7,7,7,7,7,9),(0.,
    1.393884073064E-02,2.496412306998E-02,4.469279332049E-02,
    6.928100552003E-02,0.163585087717,0.291913667525,0.458216825896,
    0.501034801035,0.539110959604,0.574827236989,0.625079429915,
    0.744588578252,0.841972965031,0.916951771354,0.964274121166,
    0.983796014868,1.),.UNSPECIFIED.);
#553 = CARTESIAN_POINT('',(-1.570796326795,-71.));
#554 = CARTESIAN_POINT('',(-1.566299653961,-71.));
#555 = CARTESIAN_POINT('',(-1.561815600953,-70.99428236116));
#556 = CARTESIAN_POINT('',(-1.557362604818,-70.98290312621));
#557 = CARTESIAN_POINT('',(-1.5529590988,-70.9660265644));
#558 = CARTESIAN_POINT('',(-1.5486235222,-70.94392509178));
#559 = CARTESIAN_POINT('',(-1.544374330224,-70.91697919147));
#560 = CARTESIAN_POINT('',(-1.540230003843,-70.88567733393));
#561 = CARTESIAN_POINT('',(-1.533028591061,-70.8228831578));
#562 = CARTESIAN_POINT('',(-1.529918178645,-70.7927359354));
#563 = CARTESIAN_POINT('',(-1.52687794929,-70.76036631014));
#564 = CARTESIAN_POINT('',(-1.523907899908,-70.72595951228));
#565 = CARTESIAN_POINT('',(-1.521007897426,-70.6896939222));
#566 = CARTESIAN_POINT('',(-1.518177678786,-70.65174107044));
#567 = CARTESIAN_POINT('',(-1.515416850948,-70.61226563769));
#568 = CARTESIAN_POINT('',(-1.507907890226,-70.49834592032));
#569 = CARTESIAN_POINT('',(-1.503303969215,-70.42078359513));
#570 = CARTESIAN_POINT('',(-1.498903036649,-70.33949234384));
#571 = CARTESIAN_POINT('',(-1.494693964071,-70.25509595806));
#572 = CARTESIAN_POINT('',(-1.490664794117,-70.16809243304));
#573 = CARTESIAN_POINT('',(-1.48680294886,-70.07885824419));
#574 = CARTESIAN_POINT('',(-1.483095438158,-69.98765262372));
#575 = CARTESIAN_POINT('',(-1.475084233887,-69.77867582091));
#576 = CARTESIAN_POINT('',(-1.47085755867,-69.65986677911));
#577 = CARTESIAN_POINT('',(-1.466835506206,-69.53878384503));
#578 = CARTESIAN_POINT('',(-1.463004200534,-69.41587817596));
#579 = CARTESIAN_POINT('',(-1.459349607828,-69.2914690448));
#580 = CARTESIAN_POINT('',(-1.45585771835,-69.16574993165));
#581 = CARTESIAN_POINT('',(-1.452514728408,-69.03879461542));
#582 = CARTESIAN_POINT('',(-1.437005355225,-68.41875281287));
#583 = CARTESIAN_POINT('',(-1.426557846876,-67.90263251978));
#584 = CARTESIAN_POINT('',(-1.417712065497,-67.37622754392));
#585 = CARTESIAN_POINT('',(-1.410219538836,-66.8475005466));
#586 = CARTESIAN_POINT('',(-1.40385820611,-66.31984329958));
#587 = CARTESIAN_POINT('',(-1.398441941093,-65.79267634895));
#588 = CARTESIAN_POINT('',(-1.393827225992,-65.26184763705));
#589 = CARTESIAN_POINT('',(-1.384619249209,-63.98388605846));
#590 = CARTESIAN_POINT('',(-1.380735109966,-63.24178883811));
#591 = CARTESIAN_POINT('',(-1.378113771889,-62.49867982654));
#592 = CARTESIAN_POINT('',(-1.376627755237,-61.75684002312));
#593 = CARTESIAN_POINT('',(-1.376183102476,-61.0169043503));
#594 = CARTESIAN_POINT('',(-1.376720366173,-60.27840018619));
#595 = CARTESIAN_POINT('',(-1.378215955744,-59.54031080724));
#596 = CARTESIAN_POINT('',(-1.383881346263,-57.84446113358));
#597 = CARTESIAN_POINT('',(-1.388599297978,-56.91994235725));
#598 = CARTESIAN_POINT('',(-1.394724752399,-56.00876238593));
#599 = CARTESIAN_POINT('',(-1.402417251574,-55.09290348622));
#600 = CARTESIAN_POINT('',(-1.412005046992,-54.16380238164));
#601 = CARTESIAN_POINT('',(-1.42392077579,-53.22725364826));
#602 = CARTESIAN_POINT('',(-1.438632482859,-52.3083522175));
#603 = CARTESIAN_POINT('',(-1.461169511343,-51.24067658724));
#604 = CARTESIAN_POINT('',(-1.465991322168,-51.02695921379));
#605 = CARTESIAN_POINT('',(-1.471096626858,-50.81569159361));
#606 = CARTESIAN_POINT('',(-1.476562305155,-50.60573392668));
#607 = CARTESIAN_POINT('',(-1.482462314921,-50.39736153062));
#608 = CARTESIAN_POINT('',(-1.488865080424,-50.192347672));
#609 = CARTESIAN_POINT('',(-1.495831885296,-49.99401592973));
#610 = CARTESIAN_POINT('',(-1.510160733018,-49.64119004317));
#611 = CARTESIAN_POINT('',(-1.518186434424,-49.46474955052));
#612 = CARTESIAN_POINT('',(-1.527333383158,-49.29497634596));
#613 = CARTESIAN_POINT('',(-1.53748793835,-49.14733120888));
#614 = CARTESIAN_POINT('',(-1.548539423551,-49.03588606107));
#615 = CARTESIAN_POINT('',(-1.560373826961,-48.97338119241));
#616 = CARTESIAN_POINT('',(-1.57287114438,-48.97122909404));
#617 = CARTESIAN_POINT('',(-1.598118232245,-49.10364282179));
#618 = CARTESIAN_POINT('',(-1.609078854847,-49.22069363592));
#619 = CARTESIAN_POINT('',(-1.618837981916,-49.37049425971));
#620 = CARTESIAN_POINT('',(-1.627508170131,-49.53827276686));
#621 = CARTESIAN_POINT('',(-1.635238417023,-49.71446819126));
#622 = CARTESIAN_POINT('',(-1.642217610025,-49.894779955));
#623 = CARTESIAN_POINT('',(-1.648675715786,-50.08017952395));
#624 = CARTESIAN_POINT('',(-1.66355783701,-50.55288454016));
#625 = CARTESIAN_POINT('',(-1.671457257231,-50.84285633131));
#626 = CARTESIAN_POINT('',(-1.678634395282,-51.13964452557));
#627 = CARTESIAN_POINT('',(-1.68517572528,-51.43889436713));
#628 = CARTESIAN_POINT('',(-1.691174412722,-51.73863509994));
#629 = CARTESIAN_POINT('',(-1.696726689612,-52.03912794718));
#630 = CARTESIAN_POINT('',(-1.701926862969,-52.34266270457));
#631 = CARTESIAN_POINT('',(-1.718595157876,-53.39206376016));
#632 = CARTESIAN_POINT('',(-1.728561794648,-54.15447943698));
#633 = CARTESIAN_POINT('',(-1.73696129164,-54.92449551308));
#634 = CARTESIAN_POINT('',(-1.743986992963,-55.69430373916));
#635 = CARTESIAN_POINT('',(-1.749803905865,-56.46205323038));
#636 = CARTESIAN_POINT('',(-1.754531314659,-57.23013277024));
#637 = CARTESIAN_POINT('',(-1.758226089827,-58.00356721785));
#638 = CARTESIAN_POINT('',(-1.763012676903,-59.42733932107));
#639 = CARTESIAN_POINT('',(-1.764436091874,-60.06692105085));
#640 = CARTESIAN_POINT('',(-1.765139005599,-60.70712573395));
#641 = CARTESIAN_POINT('',(-1.765107673213,-61.34831776931));
#642 = CARTESIAN_POINT('',(-1.764309847846,-61.9906372412));
#643 = CARTESIAN_POINT('',(-1.762695141942,-62.63373709901));
#644 = CARTESIAN_POINT('',(-1.760195263562,-63.27653665285));
#645 = CARTESIAN_POINT('',(-1.754051608605,-64.41009436526));
#646 = CARTESIAN_POINT('',(-1.75081833384,-64.89904184394));
#647 = CARTESIAN_POINT('',(-1.746977504018,-65.38638190203));
#648 = CARTESIAN_POINT('',(-1.742459466373,-65.87356743917));
#649 = CARTESIAN_POINT('',(-1.737173978873,-66.36077698333));
#650 = CARTESIAN_POINT('',(-1.73101284631,-66.84668036813));
#651 = CARTESIAN_POINT('',(-1.723852928342,-67.32814927816));
#652 = CARTESIAN_POINT('',(-1.710325192369,-68.09766282633));
#653 = CARTESIAN_POINT('',(-1.70468001585,-68.38923447418));
#654 = CARTESIAN_POINT('',(-1.698532373773,-68.67737859968));
#655 = CARTESIAN_POINT('',(-1.691777625555,-68.96316355734));
#656 = CARTESIAN_POINT('',(-1.684302100049,-69.24584334916));
#657 = CARTESIAN_POINT('',(-1.675988140616,-69.52268291504));
#658 = CARTESIAN_POINT('',(-1.666720344475,-69.78873501376));
#659 = CARTESIAN_POINT('',(-1.652132856477,-70.13879990177));
#660 = CARTESIAN_POINT('',(-1.647674456937,-70.2383625897));
#661 = CARTESIAN_POINT('',(-1.642998544683,-70.33490799257));
#662 = CARTESIAN_POINT('',(-1.638086303648,-70.42789489041));
#663 = CARTESIAN_POINT('',(-1.6329199606,-70.51657613471));
#664 = CARTESIAN_POINT('',(-1.627483252492,-70.59999059334));
#665 = CARTESIAN_POINT('',(-1.621761898379,-70.67695510179));
#666 = CARTESIAN_POINT('',(-1.610749032496,-70.80341339455));
#667 = CARTESIAN_POINT('',(-1.605508904622,-70.85582198978));
#668 = CARTESIAN_POINT('',(-1.600057174246,-70.90178758677));
#669 = CARTESIAN_POINT('',(-1.594427179672,-70.94006356623));
#670 = CARTESIAN_POINT('',(-1.588652322984,-70.96965089811));
#671 = CARTESIAN_POINT('',(-1.582766220804,-70.98979787637));
#672 = CARTESIAN_POINT('',(-1.576802798347,-71.));
#673 = CARTESIAN_POINT('',(-1.570796326795,-71.));
#674 = ( GEOMETRIC_REPRESENTATION_CONTEXT(2) 
PARAMETRIC_REPRESENTATION_CONTEXT() REPRESENTATION_CONTEXT('2D SPACE',''
  ) );
#675 = PCURVE('',#676,#681);
#676 = CYLINDRICAL_SURFACE('',#677,5.5);
#677 = AXIS2_PLACEMENT_3D('',#678,#679,#680);
#678 = CARTESIAN_POINT('',(123.75743824457,31.358983848622,
    25.773498925933));
#679 = DIRECTION('',(0.,0.866025403784,0.5));
#680 = DIRECTION('',(0.,-0.5,0.866025403784));
#681 = DEFINITIONAL_REPRESENTATION('',(#682),#804);
#682 = B_SPLINE_CURVE_WITH_KNOTS('',8,(#683,#684,#685,#686,#687,#688,
    #689,#690,#691,#692,#693,#694,#695,#696,#697,#698,#699,#700,#701,
    #702,#703,#704,#705,#706,#707,#708,#709,#710,#711,#712,#713,#714,
    #715,#716,#717,#718,#719,#720,#721,#722,#723,#724,#725,#726,#727,
    #728,#729,#730,#731,#732,#733,#734,#735,#736,#737,#738,#739,#740,
    #741,#742,#743,#744,#745,#746,#747,#748,#749,#750,#751,#752,#753,
    #754,#755,#756,#757,#758,#759,#760,#761,#762,#763,#764,#765,#766,
    #767,#768,#769,#770,#771,#772,#773,#774,#775,#776,#777,#778,#779,
    #780,#781,#782,#783,#784,#785,#786,#787,#788,#789,#790,#791,#792,
    #793,#794,#795,#796,#797,#798,#799,#800,#801,#802,#803),
  .UNSPECIFIED.,.F.,.F.,(9,7,7,7,7,7,7,7,7,7,7,7,7,7,7,7,7,9),(0.,
    1.393884073064E-02,2.496412306998E-02,4.469279332049E-02,
    6.928100552003E-02,0.163585087717,0.291913667525,0.458216825896,
    0.501034801035,0.539110959604,0.574827236989,0.625079429915,
    0.744588578252,0.841972965031,0.916951771354,0.964274121166,
    0.983796014868,1.),.UNSPECIFIED.);
#683 = CARTESIAN_POINT('',(0.,30.473720558371));
#684 = CARTESIAN_POINT('',(2.336225931498E-02,30.473720558371));
#685 = CARTESIAN_POINT('',(4.665892565741E-02,30.478342074078));
#686 = CARTESIAN_POINT('',(6.981300316493E-02,30.487539621583));
#687 = CARTESIAN_POINT('',(9.274694094194E-02,30.501181914904));
#688 = CARTESIAN_POINT('',(0.11538139604,30.519051440373));
#689 = CARTESIAN_POINT('',(0.137633996439,30.540844031014));
#690 = CARTESIAN_POINT('',(0.159418104027,30.566168440935));
#691 = CARTESIAN_POINT('',(0.197428826441,30.616991811844));
#692 = CARTESIAN_POINT('',(0.213903106253,30.641398197797));
#693 = CARTESIAN_POINT('',(0.230066830226,30.667611649692));
#694 = CARTESIAN_POINT('',(0.245922321696,30.695484140225));
#695 = CARTESIAN_POINT('',(0.261471814125,30.724873042663));
#696 = CARTESIAN_POINT('',(0.276717451105,30.755641130845));
#697 = CARTESIAN_POINT('',(0.291661286356,30.787656579181));
#698 = CARTESIAN_POINT('',(0.332509292507,30.880087297495));
#699 = CARTESIAN_POINT('',(0.357794044079,30.943062245998));
#700 = CARTESIAN_POINT('',(0.382211486878,31.009115435533));
#701 = CARTESIAN_POINT('',(0.405815677109,31.077747877118));
#702 = CARTESIAN_POINT('',(0.428663217959,31.148560987315));
#703 = CARTESIAN_POINT('',(0.450813698817,31.221253610118));
#704 = CARTESIAN_POINT('',(0.472330134495,31.295619038853));
#705 = CARTESIAN_POINT('',(0.519388872969,31.466166297673));
#706 = CARTESIAN_POINT('',(0.544623640107,31.563232835089));
#707 = CARTESIAN_POINT('',(0.569042261133,31.662269189827));
#708 = CARTESIAN_POINT('',(0.592705080802,31.7629125914));
#709 = CARTESIAN_POINT('',(0.615674614065,31.864905962111));
#710 = CARTESIAN_POINT('',(0.638015926758,31.968093919829));
#711 = CARTESIAN_POINT('',(0.659797016313,32.072418780768));
#712 = CARTESIAN_POINT('',(0.762751865339,32.582536116455));
#713 = CARTESIAN_POINT('',(0.83814187859,33.008966317249));
#714 = CARTESIAN_POINT('',(0.908158975938,33.44592422746));
#715 = CARTESIAN_POINT('',(0.97361071178,33.886817134119));
#716 = CARTESIAN_POINT('',(1.03531159466,34.328708284321));
#717 = CARTESIAN_POINT('',(1.094139242785,34.771972680549));
#718 = CARTESIAN_POINT('',(1.151053917648,35.220068080881));
#719 = CARTESIAN_POINT('',(1.283338464503,36.303149797305));
#720 = CARTESIAN_POINT('',(1.356510971294,36.935389766165));
#721 = CARTESIAN_POINT('',(1.427200580059,37.571724039312));
#722 = CARTESIAN_POINT('',(1.49593887976,38.210038450679));
#723 = CARTESIAN_POINT('',(1.56324906472,38.849606888291));
#724 = CARTESIAN_POINT('',(1.629658993008,39.490681700784));
#725 = CARTESIAN_POINT('',(1.695705477113,40.134021363757));
#726 = CARTESIAN_POINT('',(1.847827820725,41.617966271252));
#727 = CARTESIAN_POINT('',(1.931032197198,42.43119740016));
#728 = CARTESIAN_POINT('',(2.01433897143,43.236237617003));
#729 = CARTESIAN_POINT('',(2.100236072607,44.048709844959));
#730 = CARTESIAN_POINT('',(2.190838957724,44.876256350518));
#731 = CARTESIAN_POINT('',(2.287896039588,45.713876420517));
#732 = CARTESIAN_POINT('',(2.392940420274,46.538840123037));
#733 = CARTESIAN_POINT('',(2.537309957041,47.500179831386));
#734 = CARTESIAN_POINT('',(2.56748191401,47.692772304429));
#735 = CARTESIAN_POINT('',(2.598741330579,47.883304729559));
#736 = CARTESIAN_POINT('',(2.631511906109,48.072799908146));
#737 = CARTESIAN_POINT('',(2.666157974428,48.261007458047));
#738 = CARTESIAN_POINT('',(2.702987155983,48.446320261506));
#739 = CARTESIAN_POINT('',(2.742263269708,48.625719616718));
#740 = CARTESIAN_POINT('',(2.821548247687,48.945059637207));
#741 = CARTESIAN_POINT('',(2.865381521217,49.104841002323));
#742 = CARTESIAN_POINT('',(2.914570225534,49.258692383441));
#743 = CARTESIAN_POINT('',(2.968342205357,49.392590005268));
#744 = CARTESIAN_POINT('',(3.026130889114,49.493714096598));
#745 = CARTESIAN_POINT('',(3.087525087387,49.550439176269));
#746 = CARTESIAN_POINT('',(3.152248466557,49.552377307712));
#747 = CARTESIAN_POINT('',(3.283809163841,49.43225628054));
#748 = CARTESIAN_POINT('',(3.341275488377,49.326084202765));
#749 = CARTESIAN_POINT('',(3.393091046862,49.190252391555));
#750 = CARTESIAN_POINT('',(3.439824459838,49.038213633401));
#751 = CARTESIAN_POINT('',(3.48214450347,48.87865465726));
#752 = CARTESIAN_POINT('',(3.520945999925,48.715468153339));
#753 = CARTESIAN_POINT('',(3.557422113934,48.547782335999));
#754 = CARTESIAN_POINT('',(3.643044745095,48.120554806068));
#755 = CARTESIAN_POINT('',(3.689839291783,47.858724067577));
#756 = CARTESIAN_POINT('',(3.733706461725,47.591023197505));
#757 = CARTESIAN_POINT('',(3.774996307909,47.321402951215));
#758 = CARTESIAN_POINT('',(3.81411552856,47.051643999207));
#759 = CARTESIAN_POINT('',(3.851546173302,46.781511726243));
#760 = CARTESIAN_POINT('',(3.887848351303,46.508958554138));
#761 = CARTESIAN_POINT('',(4.008782708862,45.56784691771));
#762 = CARTESIAN_POINT('',(4.089166229341,44.88603228471));
#763 = CARTESIAN_POINT('',(4.165648639503,44.199624982068));
#764 = CARTESIAN_POINT('',(4.239039686316,43.515723032045));
#765 = CARTESIAN_POINT('',(4.310196544462,42.836017681544));
#766 = CARTESIAN_POINT('',(4.380054491834,42.158460262865));
#767 = CARTESIAN_POINT('',(4.449626880331,41.47878479573));
#768 = CARTESIAN_POINT('',(4.577348262541,40.232841722183));
#769 = CARTESIAN_POINT('',(4.634596655059,39.675031332686));
#770 = CARTESIAN_POINT('',(4.692089616509,39.118640190425));
#771 = CARTESIAN_POINT('',(4.750157711311,38.563434145731));
#772 = CARTESIAN_POINT('',(4.809123237023,38.009388908162));
#773 = CARTESIAN_POINT('',(4.869306993124,37.456910375499));
#774 = CARTESIAN_POINT('',(4.931038050094,36.907025430277));
#775 = CARTESIAN_POINT('',(5.043655754026,35.94156205942));
#776 = CARTESIAN_POINT('',(5.093495693824,35.526545957082));
#777 = CARTESIAN_POINT('',(5.14466560616,35.114328286807));
#778 = CARTESIAN_POINT('',(5.197621858837,34.703713194181));
#779 = CARTESIAN_POINT('',(5.252797888014,34.294609529788));
#780 = CARTESIAN_POINT('',(5.310613630577,33.888193101115));
#781 = CARTESIAN_POINT('',(5.371494420361,33.487097226979));
#782 = CARTESIAN_POINT('',(5.476548068537,32.848560795281));
#783 = CARTESIAN_POINT('',(5.518285022162,32.607244803026));
#784 = CARTESIAN_POINT('',(5.561731328557,32.3693682489));
#785 = CARTESIAN_POINT('',(5.60745440145,32.134041670994));
#786 = CARTESIAN_POINT('',(5.655974843731,31.901885757951));
#787 = CARTESIAN_POINT('',(5.707766383094,31.675135820052));
#788 = CARTESIAN_POINT('',(5.763269074211,31.457783439467));
#789 = CARTESIAN_POINT('',(5.847550393339,31.172436555808));
#790 = CARTESIAN_POINT('',(5.87297645514,31.091363282869));
#791 = CARTESIAN_POINT('',(5.899310318043,31.012825207973));
#792 = CARTESIAN_POINT('',(5.926642338681,30.937255225148));
#793 = CARTESIAN_POINT('',(5.955056826148,30.865251242086));
#794 = CARTESIAN_POINT('',(5.984632632619,30.797581778409));
#795 = CARTESIAN_POINT('',(6.015444599364,30.735192267169));
#796 = CARTESIAN_POINT('',(6.07422784126,30.632746154955));
#797 = CARTESIAN_POINT('',(6.10200983112,30.590316012966));
#798 = CARTESIAN_POINT('',(6.130733383853,30.553124516697));
#799 = CARTESIAN_POINT('',(6.160236607162,30.522170279484));
#800 = CARTESIAN_POINT('',(6.190370716838,30.498251130079));
#801 = CARTESIAN_POINT('',(6.220996253171,30.481966763614));
#802 = CARTESIAN_POINT('',(6.251978957253,30.473720558371));
#803 = CARTESIAN_POINT('',(6.28318530718,30.473720558371));
#804 = ( GEOMETRIC_REPRESENTATION_CONTEXT(2) 
PARAMETRIC_REPRESENTATION_CONTEXT() REPRESENTATION_CONTEXT('2D SPACE',''
  ) );
#805 = ADVANCED_FACE('',(#806,#809),#66,.T.);
#806 = FACE_BOUND('',#807,.T.);
#807 = EDGE_LOOP('',(#808));
#808 = ORIENTED_EDGE('',*,*,#51,.T.);
#809 = FACE_BOUND('',#810,.T.);
#810 = EDGE_LOOP('',(#811));
#811 = ORIENTED_EDGE('',*,*,#812,.F.);
#812 = EDGE_CURVE('',#813,#813,#815,.T.);
#813 = VERTEX_POINT('',#814);
#814 = CARTESIAN_POINT('',(123.75743824457,83.400635094611,65.6347148581
    ));
#815 = SURFACE_CURVE('',#816,(#821,#828),.PCURVE_S1.);
#816 = CIRCLE('',#817,8.5);
#817 = AXIS2_PLACEMENT_3D('',#818,#819,#820);
#818 = CARTESIAN_POINT('',(123.75743824457,87.650635094611,
    58.273498925933));
#819 = DIRECTION('',(0.,0.866025403784,0.5));
#820 = DIRECTION('',(0.,-0.5,0.866025403784));
#821 = PCURVE('',#66,#822);
#822 = DEFINITIONAL_REPRESENTATION('',(#823),#827);
#823 = CIRCLE('',#824,8.5);
#824 = AXIS2_PLACEMENT_2D('',#825,#826);
#825 = CARTESIAN_POINT('',(0.,0.));
#826 = DIRECTION('',(1.,0.));
#827 = ( GEOMETRIC_REPRESENTATION_CONTEXT(2) 
PARAMETRIC_REPRESENTATION_CONTEXT() REPRESENTATION_CONTEXT('2D SPACE',''
  ) );
#828 = PCURVE('',#829,#834);
#829 = CONICAL_SURFACE('',#830,7.,0.785398163397);
#830 = AXIS2_PLACEMENT_3D('',#831,#832,#833);
#831 = CARTESIAN_POINT('',(123.75743824457,86.351596988934,
    57.523498925933));
#832 = DIRECTION('',(0.,0.866025403784,0.5));
#833 = DIRECTION('',(0.,-0.5,0.866025403784));
#834 = DEFINITIONAL_REPRESENTATION('',(#835),#839);
#835 = LINE('',#836,#837);
#836 = CARTESIAN_POINT('',(0.,1.5));
#837 = VECTOR('',#838,1.);
#838 = DIRECTION('',(1.,0.));
#839 = ( GEOMETRIC_REPRESENTATION_CONTEXT(2) 
PARAMETRIC_REPRESENTATION_CONTEXT() REPRESENTATION_CONTEXT('2D SPACE',''
  ) );
#840 = ADVANCED_FACE('',(#841),#676,.F.);
#841 = FACE_BOUND('',#842,.F.);
#842 = EDGE_LOOP('',(#843,#866,#893,#894));
#843 = ORIENTED_EDGE('',*,*,#844,.T.);
#844 = EDGE_CURVE('',#425,#845,#847,.T.);
#845 = VERTEX_POINT('',#846);
#846 = CARTESIAN_POINT('',(123.75743824457,76.240381056767,
    58.036638646747));
#847 = SEAM_CURVE('',#848,(#852,#859),.PCURVE_S1.);
#848 = LINE('',#849,#850);
#849 = CARTESIAN_POINT('',(123.75743824457,28.608983848622,
    30.536638646747));
#850 = VECTOR('',#851,1.);
#851 = DIRECTION('',(0.,0.866025403784,0.5));
#852 = PCURVE('',#676,#853);
#853 = DEFINITIONAL_REPRESENTATION('',(#854),#858);
#854 = LINE('',#855,#856);
#855 = CARTESIAN_POINT('',(6.28318530718,-0.));
#856 = VECTOR('',#857,1.);
#857 = DIRECTION('',(0.,1.));
#858 = ( GEOMETRIC_REPRESENTATION_CONTEXT(2) 
PARAMETRIC_REPRESENTATION_CONTEXT() REPRESENTATION_CONTEXT('2D SPACE',''
  ) );
#859 = PCURVE('',#676,#860);
#860 = DEFINITIONAL_REPRESENTATION('',(#861),#865);
#861 = LINE('',#862,#863);
#862 = CARTESIAN_POINT('',(0.,-0.));
#863 = VECTOR('',#864,1.);
#864 = DIRECTION('',(0.,1.));
#865 = ( GEOMETRIC_REPRESENTATION_CONTEXT(2) 
PARAMETRIC_REPRESENTATION_CONTEXT() REPRESENTATION_CONTEXT('2D SPACE',''
  ) );
#866 = ORIENTED_EDGE('',*,*,#867,.F.);
#867 = EDGE_CURVE('',#845,#845,#868,.T.);
#868 = SURFACE_CURVE('',#869,(#874,#881),.PCURVE_S1.);
#869 = CIRCLE('',#870,5.5);
#870 = AXIS2_PLACEMENT_3D('',#871,#872,#873);
#871 = CARTESIAN_POINT('',(123.75743824457,78.990381056767,
    53.273498925933));
#872 = DIRECTION('',(0.,0.866025403784,0.5));
#873 = DIRECTION('',(0.,-0.5,0.866025403784));
#874 = PCURVE('',#676,#875);
#875 = DEFINITIONAL_REPRESENTATION('',(#876),#880);
#876 = LINE('',#877,#878);
#877 = CARTESIAN_POINT('',(0.,55.));
#878 = VECTOR('',#879,1.);
#879 = DIRECTION('',(1.,0.));
#880 = ( GEOMETRIC_REPRESENTATION_CONTEXT(2) 
PARAMETRIC_REPRESENTATION_CONTEXT() REPRESENTATION_CONTEXT('2D SPACE',''
  ) );
#881 = PCURVE('',#882,#887);
#882 = PLANE('',#883);
#883 = AXIS2_PLACEMENT_3D('',#884,#885,#886);
#884 = CARTESIAN_POINT('',(123.75743824457,78.990381056767,
    53.273498925933));
#885 = DIRECTION('',(0.,0.866025403784,0.5));
#886 = DIRECTION('',(0.,-0.5,0.866025403784));
#887 = DEFINITIONAL_REPRESENTATION('',(#888),#892);
#888 = CIRCLE('',#889,5.5);
#889 = AXIS2_PLACEMENT_2D('',#890,#891);
#890 = CARTESIAN_POINT('',(6.153480596427E-15,0.));
#891 = DIRECTION('',(1.,0.));
#892 = ( GEOMETRIC_REPRESENTATION_CONTEXT(2) 
PARAMETRIC_REPRESENTATION_CONTEXT() REPRESENTATION_CONTEXT('2D SPACE',''
  ) );
#893 = ORIENTED_EDGE('',*,*,#844,.F.);
#894 = ORIENTED_EDGE('',*,*,#424,.T.);
#895 = ADVANCED_FACE('',(#896),#829,.F.);
#896 = FACE_BOUND('',#897,.F.);
#897 = EDGE_LOOP('',(#898,#899,#922,#949));
#898 = ORIENTED_EDGE('',*,*,#812,.F.);
#899 = ORIENTED_EDGE('',*,*,#900,.F.);
#900 = EDGE_CURVE('',#901,#813,#903,.T.);
#901 = VERTEX_POINT('',#902);
#902 = CARTESIAN_POINT('',(123.75743824457,82.851596988934,
    63.585676752424));
#903 = SEAM_CURVE('',#904,(#908,#915),.PCURVE_S1.);
#904 = LINE('',#905,#906);
#905 = CARTESIAN_POINT('',(123.75743824457,82.851596988934,
    63.585676752424));
#906 = VECTOR('',#907,1.);
#907 = DIRECTION('',(-1.731912112471E-16,0.258819045103,0.965925826289)
  );
#908 = PCURVE('',#829,#909);
#909 = DEFINITIONAL_REPRESENTATION('',(#910),#914);
#910 = LINE('',#911,#912);
#911 = CARTESIAN_POINT('',(6.28318530718,-0.));
#912 = VECTOR('',#913,1.);
#913 = DIRECTION('',(0.,1.));
#914 = ( GEOMETRIC_REPRESENTATION_CONTEXT(2) 
PARAMETRIC_REPRESENTATION_CONTEXT() REPRESENTATION_CONTEXT('2D SPACE',''
  ) );
#915 = PCURVE('',#829,#916);
#916 = DEFINITIONAL_REPRESENTATION('',(#917),#921);
#917 = LINE('',#918,#919);
#918 = CARTESIAN_POINT('',(0.,-0.));
#919 = VECTOR('',#920,1.);
#920 = DIRECTION('',(0.,1.));
#921 = ( GEOMETRIC_REPRESENTATION_CONTEXT(2) 
PARAMETRIC_REPRESENTATION_CONTEXT() REPRESENTATION_CONTEXT('2D SPACE',''
  ) );
#922 = ORIENTED_EDGE('',*,*,#923,.T.);
#923 = EDGE_CURVE('',#901,#901,#924,.T.);
#924 = SURFACE_CURVE('',#925,(#930,#937),.PCURVE_S1.);
#925 = CIRCLE('',#926,7.);
#926 = AXIS2_PLACEMENT_3D('',#927,#928,#929);
#927 = CARTESIAN_POINT('',(123.75743824457,86.351596988934,
    57.523498925933));
#928 = DIRECTION('',(0.,0.866025403784,0.5));
#929 = DIRECTION('',(0.,-0.5,0.866025403784));
#930 = PCURVE('',#829,#931);
#931 = DEFINITIONAL_REPRESENTATION('',(#932),#936);
#932 = LINE('',#933,#934);
#933 = CARTESIAN_POINT('',(0.,0.));
#934 = VECTOR('',#935,1.);
#935 = DIRECTION('',(1.,0.));
#936 = ( GEOMETRIC_REPRESENTATION_CONTEXT(2) 
PARAMETRIC_REPRESENTATION_CONTEXT() REPRESENTATION_CONTEXT('2D SPACE',''
  ) );
#937 = PCURVE('',#938,#943);
#938 = CYLINDRICAL_SURFACE('',#939,7.);
#939 = AXIS2_PLACEMENT_3D('',#940,#941,#942);
#940 = CARTESIAN_POINT('',(123.75743824457,78.990381056767,
    53.273498925933));
#941 = DIRECTION('',(0.,0.866025403784,0.5));
#942 = DIRECTION('',(0.,-0.5,0.866025403784));
#943 = DEFINITIONAL_REPRESENTATION('',(#944),#948);
#944 = LINE('',#945,#946);
#945 = CARTESIAN_POINT('',(0.,8.5));
#946 = VECTOR('',#947,1.);
#947 = DIRECTION('',(1.,0.));
#948 = ( GEOMETRIC_REPRESENTATION_CONTEXT(2) 
PARAMETRIC_REPRESENTATION_CONTEXT() REPRESENTATION_CONTEXT('2D SPACE',''
  ) );
#949 = ORIENTED_EDGE('',*,*,#900,.T.);
#950 = ADVANCED_FACE('',(#951,#977),#882,.T.);
#951 = FACE_BOUND('',#952,.T.);
#952 = EDGE_LOOP('',(#953));
#953 = ORIENTED_EDGE('',*,*,#954,.T.);
#954 = EDGE_CURVE('',#955,#955,#957,.T.);
#955 = VERTEX_POINT('',#956);
#956 = CARTESIAN_POINT('',(123.75743824457,75.490381056767,
    59.335676752424));
#957 = SURFACE_CURVE('',#958,(#963,#970),.PCURVE_S1.);
#958 = CIRCLE('',#959,7.);
#959 = AXIS2_PLACEMENT_3D('',#960,#961,#962);
#960 = CARTESIAN_POINT('',(123.75743824457,78.990381056767,
    53.273498925933));
#961 = DIRECTION('',(0.,0.866025403784,0.5));
#962 = DIRECTION('',(0.,-0.5,0.866025403784));
#963 = PCURVE('',#882,#964);
#964 = DEFINITIONAL_REPRESENTATION('',(#965),#969);
#965 = CIRCLE('',#966,7.);
#966 = AXIS2_PLACEMENT_2D('',#967,#968);
#967 = CARTESIAN_POINT('',(0.,0.));
#968 = DIRECTION('',(1.,0.));
#969 = ( GEOMETRIC_REPRESENTATION_CONTEXT(2) 
PARAMETRIC_REPRESENTATION_CONTEXT() REPRESENTATION_CONTEXT('2D SPACE',''
  ) );
#970 = PCURVE('',#938,#971);
#971 = DEFINITIONAL_REPRESENTATION('',(#972),#976);
#972 = LINE('',#973,#974);
#973 = CARTESIAN_POINT('',(0.,0.));
#974 = VECTOR('',#975,1.);
#975 = DIRECTION('',(1.,0.));
#976 = ( GEOMETRIC_REPRESENTATION_CONTEXT(2) 
PARAMETRIC_REPRESENTATION_CONTEXT() REPRESENTATION_CONTEXT('2D SPACE',''
  ) );
#977 = FACE_BOUND('',#978,.T.);
#978 = EDGE_LOOP('',(#979));
#979 = ORIENTED_EDGE('',*,*,#867,.F.);
#980 = ADVANCED_FACE('',(#981),#938,.F.);
#981 = FACE_BOUND('',#982,.F.);
#982 = EDGE_LOOP('',(#983,#984,#1005,#1006));
#983 = ORIENTED_EDGE('',*,*,#923,.F.);
#984 = ORIENTED_EDGE('',*,*,#985,.F.);
#985 = EDGE_CURVE('',#955,#901,#986,.T.);
#986 = SEAM_CURVE('',#987,(#991,#998),.PCURVE_S1.);
#987 = LINE('',#988,#989);
#988 = CARTESIAN_POINT('',(123.75743824457,75.490381056767,
    59.335676752424));
#989 = VECTOR('',#990,1.);
#990 = DIRECTION('',(0.,0.866025403784,0.5));
#991 = PCURVE('',#938,#992);
#992 = DEFINITIONAL_REPRESENTATION('',(#993),#997);
#993 = LINE('',#994,#995);
#994 = CARTESIAN_POINT('',(6.28318530718,-0.));
#995 = VECTOR('',#996,1.);
#996 = DIRECTION('',(0.,1.));
#997 = ( GEOMETRIC_REPRESENTATION_CONTEXT(2) 
PARAMETRIC_REPRESENTATION_CONTEXT() REPRESENTATION_CONTEXT('2D SPACE',''
  ) );
#998 = PCURVE('',#938,#999);
#999 = DEFINITIONAL_REPRESENTATION('',(#1000),#1004);
#1000 = LINE('',#1001,#1002);
#1001 = CARTESIAN_POINT('',(0.,-0.));
#1002 = VECTOR('',#1003,1.);
#1003 = DIRECTION('',(0.,1.));
#1004 = ( GEOMETRIC_REPRESENTATION_CONTEXT(2) 
PARAMETRIC_REPRESENTATION_CONTEXT() REPRESENTATION_CONTEXT('2D SPACE',''
  ) );
#1005 = ORIENTED_EDGE('',*,*,#954,.T.);
#1006 = ORIENTED_EDGE('',*,*,#985,.T.);
#1007 = ( GEOMETRIC_REPRESENTATION_CONTEXT(3) 
GLOBAL_UNCERTAINTY_ASSIGNED_CONTEXT((#1011)) 
GLOBAL_UNIT_ASSIGNED_CONTEXT((#1008,#1009,#1010)) REPRESENTATION_CONTEXT
('Context #1','3D Context with UNIT and UNCERTAINTY') );
#1008 = ( LENGTH_UNIT() NAMED_UNIT(*) SI_UNIT(.MILLI.,.METRE.) );
#1009 = ( NAMED_UNIT(*) PLANE_ANGLE_UNIT() SI_UNIT($,.RADIAN.) );
#1010 = ( NAMED_UNIT(*) SI_UNIT($,.STERADIAN.) SOLID_ANGLE_UNIT() );
#1011 = UNCERTAINTY_MEASURE_WITH_UNIT(LENGTH_MEASURE(1.E-07),#1008,
  'distance_accuracy_value','confusion accuracy');
#1012 = PRODUCT_RELATED_PRODUCT_CATEGORY('part',$,(#7));
ENDSEC;
END-ISO-10303-21;
