ISO-10303-21;
HEADER;
FILE_DESCRIPTION(('Open CASCADE Model'),'2;1');
FILE_NAME('Open CASCADE Shape Model','2026-10-04T18:34:10',('Author'),(
    'Open CASCADE'),'Open CASCADE STEP processor 7.9','Open CASCADE 7.9'
  ,'Unknown');
FILE_SCHEMA(('AUTOMOTIVE_DESIGN { 1 0 10303 214 1 1 1 1 }'));
ENDSEC;
DATA;
#1 = APPLICATION_PROTOCOL_DEFINITION('international standard',
  'automotive_design',2000,#2);
#2 = APPLICATION_CONTEXT(
  'core data for automotive mechanical design processes');
#3 = SHAPE_DEFINITION_REPRESENTATION(#4,#10);
#4 = PRODUCT_DEFINITION_SHAPE('','',#5);
#5 = PRODUCT_DEFINITION('design','',#6,#9);
#6 = PRODUCT_DEFINITION_FORMATION('','',#7);
#7 = PRODUCT('Open CASCADE STEP translator 7.9 15',
  'Open CASCADE STEP translator 7.9 15','',(#8));
#8 = PRODUCT_CONTEXT('',#2,'mechanical');
#9 = PRODUCT_DEFINITION_CONTEXT('part definition',#2,'design');
#10 = ADVANCED_BREP_SHAPE_REPRESENTATION('',(#11,#15),#1007);
#11 = AXIS2_PLACEMENT_3D('',#12,#13,#14);
#12 = CARTESIAN_POINT('',(0.,0.,0.));
#13 = DIRECTION('',(0.,0.,1.));
#14 = DIRECTION('',(1.,0.,-0.));
#15 = MANIFOLD_SOLID_BREP('',#16);
#16 = CLOSED_SHELL('',(#17,#385,#416,#805,#840,#895,#950,#980));
#17 = ADVANCED_FACE('',(#18),#32,.T.);
#18 = FACE_BOUND('',#19,.T.);
#19 = EDGE_LOOP('',(#20,#50,#77,#78,#107,#363));
#20 = ORIENTED_EDGE('',*,*,#21,.T.);
#21 = EDGE_CURVE('',#22,#24,#26,.T.);
#22 = VERTEX_POINT('',#23);
#23 = CARTESIAN_POINT('',(299.52543824457,50.857695154587,
    48.000740261885));
#24 = VERTEX_POINT('',#25);
#25 = CARTESIAN_POINT('',(299.52543824457,82.900635094611,
    66.500740261885));
#26 = SEAM_CURVE('',#27,(#31,#43),.PCURVE_S1.);
#27 = LINE('',#28,#29);
#28 = CARTESIAN_POINT('',(299.52543824457,50.857695154587,
    48.000740261885));
#29 = VECTOR('',#30,1.);
#30 = DIRECTION('',(0.,0.866025403784,0.5));
#31 = PCURVE('',#32,#37);
#32 = CYLINDRICAL_SURFACE('',#33,9.5);
#33 = AXIS2_PLACEMENT_3D('',#34,#35,#36);
#34 = CARTESIAN_POINT('',(299.52543824457,55.607695154587,
    39.773498925933));
#35 = DIRECTION('',(0.,0.866025403784,0.5));
#36 = DIRECTION('',(0.,-0.5,0.866025403784));
#37 = DEFINITIONAL_REPRESENTATION('',(#38),#42);
#38 = LINE('',#39,#40);
#39 = CARTESIAN_POINT('',(6.28318530718,-0.));
#40 = VECTOR('',#41,1.);
#41 = DIRECTION('',(0.,1.));
#42 = ( GEOMETRIC_REPRESENTATION_CONTEXT(2) 
PARAMETRIC_REPRESENTATION_CONTEXT() REPRESENTATION_CONTEXT('2D SPACE',''
  ) );
#43 = PCURVE('',#32,#44);
#44 = DEFINITIONAL_REPRESENTATION('',(#45),#49);
#45 = LINE('',#46,#47);
#46 = CARTESIAN_POINT('',(0.,-0.));
#47 = VECTOR('',#48,1.);
#48 = DIRECTION('',(0.,1.));
#49 = ( GEOMETRIC_REPRESENTATION_CONTEXT(2) 
PARAMETRIC_REPRESENTATION_CONTEXT() REPRESENTATION_CONTEXT('2D SPACE',''
  ) );
#50 = ORIENTED_EDGE('',*,*,#51,.F.);
#51 = EDGE_CURVE('',#24,#24,#52,.T.);
#52 = SURFACE_CURVE('',#53,(#58,#65),.PCURVE_S1.);
#53 = CIRCLE('',#54,9.5);
#54 = AXIS2_PLACEMENT_3D('',#55,#56,#57);
#55 = CARTESIAN_POINT('',(299.52543824457,87.650635094611,
    58.273498925933));
#56 = DIRECTION('',(0.,0.866025403784,0.5));
#57 = DIRECTION('',(0.,-0.5,0.866025403784));
#58 = PCURVE('',#32,#59);
#59 = DEFINITIONAL_REPRESENTATION('',(#60),#64);
#60 = LINE('',#61,#62);
#61 = CARTESIAN_POINT('',(0.,37.));
#62 = VECTOR('',#63,1.);
#63 = DIRECTION('',(1.,0.));
#64 = ( GEOMETRIC_REPRESENTATION_CONTEXT(2) 
PARAMETRIC_REPRESENTATION_CONTEXT() REPRESENTATION_CONTEXT('2D SPACE',''
  ) );
#65 = PCURVE('',#66,#71);
#66 = PLANE('',#67);
#67 = AXIS2_PLACEMENT_3D('',#68,#69,#70);
#68 = CARTESIAN_POINT('',(299.52543824457,87.650635094611,
    58.273498925933));
#69 = DIRECTION('',(0.,0.866025403784,0.5));
#70 = DIRECTION('',(0.,-0.5,0.866025403784));
#71 = DEFINITIONAL_REPRESENTATION('',(#72),#76);
#72 = CIRCLE('',#73,9.5);
#73 = AXIS2_PLACEMENT_2D('',#74,#75);
#74 = CARTESIAN_POINT('',(0.,0.));
#75 = DIRECTION('',(1.,0.));
#76 = ( GEOMETRIC_REPRESENTATION_CONTEXT(2) 
PARAMETRIC_REPRESENTATION_CONTEXT() REPRESENTATION_CONTEXT('2D SPACE',''
  ) );
#77 = ORIENTED_EDGE('',*,*,#21,.F.);
#78 = ORIENTED_EDGE('',*,*,#79,.T.);
#79 = EDGE_CURVE('',#22,#80,#82,.T.);
#80 = VERTEX_POINT('',#81);
#81 = CARTESIAN_POINT('',(307.08590358759,52.731527400571,
    44.755167606979));
#82 = SURFACE_CURVE('',#83,(#88,#95),.PCURVE_S1.);
#83 = CIRCLE('',#84,9.5);
#84 = AXIS2_PLACEMENT_3D('',#85,#86,#87);
#85 = CARTESIAN_POINT('',(299.52543824457,55.607695154587,
    39.773498925933));
#86 = DIRECTION('',(0.,0.866025403784,0.5));
#87 = DIRECTION('',(0.,-0.5,0.866025403784));
#88 = PCURVE('',#32,#89);
#89 = DEFINITIONAL_REPRESENTATION('',(#90),#94);
#90 = LINE('',#91,#92);
#91 = CARTESIAN_POINT('',(0.,0.));
#92 = VECTOR('',#93,1.);
#93 = DIRECTION('',(1.,0.));
#94 = ( GEOMETRIC_REPRESENTATION_CONTEXT(2) 
PARAMETRIC_REPRESENTATION_CONTEXT() REPRESENTATION_CONTEXT('2D SPACE',''
  ) );
#95 = PCURVE('',#96,#101);
#96 = PLANE('',#97);
#97 = AXIS2_PLACEMENT_3D('',#98,#99,#100);
#98 = CARTESIAN_POINT('',(299.52543824457,55.607695154587,
    39.773498925933));
#99 = DIRECTION('',(0.,0.866025403784,0.5));
#100 = DIRECTION('',(0.,-0.5,0.866025403784));
#101 = DEFINITIONAL_REPRESENTATION('',(#102),#106);
#102 = CIRCLE('',#103,9.5);
#103 = AXIS2_PLACEMENT_2D('',#104,#105);
#104 = CARTESIAN_POINT('',(0.,0.));
#105 = DIRECTION('',(1.,0.));
#106 = ( GEOMETRIC_REPRESENTATION_CONTEXT(2) 
PARAMETRIC_REPRESENTATION_CONTEXT() REPRESENTATION_CONTEXT('2D SPACE',''
  ) );
#107 = ORIENTED_EDGE('',*,*,#108,.T.);
#108 = EDGE_CURVE('',#80,#109,#111,.T.);
#109 = VERTEX_POINT('',#110);
#110 = CARTESIAN_POINT('',(291.96497290155,52.731527400571,
    44.755167606979));
#111 = SURFACE_CURVE('',#112,(#192,#275),.PCURVE_S1.);
#112 = B_SPLINE_CURVE_WITH_KNOTS('',8,(#113,#114,#115,#116,#117,#118,
    #119,#120,#121,#122,#123,#124,#125,#126,#127,#128,#129,#130,#131,
    #132,#133,#134,#135,#136,#137,#138,#139,#140,#141,#142,#143,#144,
    #145,#146,#147,#148,#149,#150,#151,#152,#153,#154,#155,#156,#157,
    #158,#159,#160,#161,#162,#163,#164,#165,#166,#167,#168,#169,#170,
    #171,#172,#173,#174,#175,#176,#177,#178,#179,#180,#181,#182,#183,
    #184,#185,#186,#187,#188,#189,#190,#191),.UNSPECIFIED.,.F.,.F.,(9,7,
    7,7,7,7,7,7,7,7,7,9),(0.,0.172170795273,0.258237159837,0.45100092627
    ,0.500565274625,0.547294300291,0.583116616687,0.630606252684,
    0.780715443269,0.91248235845,0.988124045722,1.),.UNSPECIFIED.);
#113 = CARTESIAN_POINT('',(307.08590324032,52.731526652743,
    44.755167702256));
#114 = CARTESIAN_POINT('',(307.7003130997,54.054629100358,
    44.586597826393));
#115 = CARTESIAN_POINT('',(308.16162357842,55.428001466648,
    44.443197594514));
#116 = CARTESIAN_POINT('',(308.50062243167,56.815604547181,
    44.330792323795));
#117 = CARTESIAN_POINT('',(308.74203890131,58.198850149849,
    44.247801416116));
#118 = CARTESIAN_POINT('',(308.90449928943,59.569732279481,
    44.190830259801));
#119 = CARTESIAN_POINT('',(309.00125399895,60.931173032704,
    44.156600551645));
#120 = CARTESIAN_POINT('',(309.04000373718,62.294752341322,
    44.142960736271));
#121 = CARTESIAN_POINT('',(309.0133965585,64.369098160017,44.15233650863
    ));
#122 = CARTESIAN_POINT('',(308.99048336979,65.059775882824,
    44.160406883793));
#123 = CARTESIAN_POINT('',(308.95413791187,65.74950893066,
    44.173185846343));
#124 = CARTESIAN_POINT('',(308.90483012681,66.438149453873,
    44.190442677195));
#125 = CARTESIAN_POINT('',(308.84289290255,67.125635563839,
    44.21195957926));
#126 = CARTESIAN_POINT('',(308.76852661261,67.811950038508,
    44.237534181757));
#127 = CARTESIAN_POINT('',(308.68180202459,68.497079639207,
    44.26697789875));
#128 = CARTESIAN_POINT('',(308.36061564616,70.71270295265,44.3743167849)
  );
#129 = CARTESIAN_POINT('',(308.08338922782,72.18924889423,
    44.464653969389));
#130 = CARTESIAN_POINT('',(307.75257074995,73.64341446897,
    44.568598707807));
#131 = CARTESIAN_POINT('',(307.35913618694,75.104885573185,
    44.686656606674));
#132 = CARTESIAN_POINT('',(306.88812852173,76.587549435448,
    44.819816091168));
#133 = CARTESIAN_POINT('',(306.32136611335,78.081843088872,
    44.967388979706));
#134 = CARTESIAN_POINT('',(305.63972857302,79.548156935663,
    45.123951901705));
#135 = CARTESIAN_POINT('',(304.61744913748,81.25727713534,
    45.316950649843));
#136 = CARTESIAN_POINT('',(304.40015631055,81.598964222331,
    45.356131291956));
#137 = CARTESIAN_POINT('',(304.17123540834,81.936854385563,
    45.395420911725));
#138 = CARTESIAN_POINT('',(303.9272874633,82.273030058964,
    45.435039942715));
#139 = CARTESIAN_POINT('',(303.66508943389,82.60739517033,
    45.474969482836));
#140 = CARTESIAN_POINT('',(303.38169278179,82.937561752349,
    45.514906495806));
#141 = CARTESIAN_POINT('',(303.07447192422,83.258794855932,
    45.55423083407));
#142 = CARTESIAN_POINT('',(302.42684240956,83.851776549755,
    45.627577662116));
#143 = CARTESIAN_POINT('',(302.05265117791,84.158895928901,
    45.665929947463));
#144 = CARTESIAN_POINT('',(301.6234878288,84.458637081011,
    45.703813908388));
#145 = CARTESIAN_POINT('',(301.14282575716,84.724439585881,
    45.737841382099));
#146 = CARTESIAN_POINT('',(300.614075617,84.929951747645,45.764417542482
    ));
#147 = CARTESIAN_POINT('',(300.04098954118,85.049041624038,
    45.779876650863));
#148 = CARTESIAN_POINT('',(299.42787402001,85.055831547201,
    45.780679268431));
#149 = CARTESIAN_POINT('',(298.28347765755,84.823978814695,
    45.750818228408));
#150 = CARTESIAN_POINT('',(297.83530378543,84.656191054877,
    45.729250138467));
#151 = CARTESIAN_POINT('',(297.43301993031,84.445972451358,
    45.702360806868));
#152 = CARTESIAN_POINT('',(297.0724274753,84.211637573428,
    45.672635539833));
#153 = CARTESIAN_POINT('',(296.7480736954,83.965244352719,
    45.641666140224));
#154 = CARTESIAN_POINT('',(296.45304507136,83.712491287154,
    45.610173442239));
#155 = CARTESIAN_POINT('',(296.17886690085,83.45267113747,45.57808984794
    ));
#156 = CARTESIAN_POINT('',(295.56805560624,82.816231395526,
    45.500317584127));
#157 = CARTESIAN_POINT('',(295.24773850113,82.437021940341,
    45.454565790842));
#158 = CARTESIAN_POINT('',(294.9527670308,82.049041504179,
    45.408434936897));
#159 = CARTESIAN_POINT('',(294.68031441872,81.65732714832,
    45.362582656899));
#160 = CARTESIAN_POINT('',(294.42726008683,81.264322708423,
    45.317316070865));
#161 = CARTESIAN_POINT('',(294.19025747405,80.869966724063,
    45.272637406116));
#162 = CARTESIAN_POINT('',(293.96584976305,80.471844690782,
    45.228302549919));
#163 = CARTESIAN_POINT('',(293.0703601014,78.780699267475,
    45.043517657986));
#164 = CARTESIAN_POINT('',(292.49079714397,77.429652346181,
    44.90422098345));
#165 = CARTESIAN_POINT('',(291.99950363462,76.059585417931,
    44.773251210709));
#166 = CARTESIAN_POINT('',(291.58329313831,74.694188270356,
    44.653961530838));
#167 = CARTESIAN_POINT('',(291.23004256771,73.339009132141,
    44.547085722969));
#168 = CARTESIAN_POINT('',(290.93005813312,71.985855136286,
    44.452403874643));
#169 = CARTESIAN_POINT('',(290.67760697713,70.617590725559,
    44.370046110161));
#170 = CARTESIAN_POINT('',(290.29366081598,67.98354908577,
    44.241810804876));
#171 = CARTESIAN_POINT('',(290.15485475461,66.75106593927,
    44.193941159696));
#172 = CARTESIAN_POINT('',(290.05581073898,65.516161068891,
    44.159023875973));
#173 = CARTESIAN_POINT('',(289.99726748891,64.277234091437,
    44.138098792713));
#174 = CARTESIAN_POINT('',(289.98159616587,63.033385101443,
    44.132475494014));
#175 = CARTESIAN_POINT('',(290.01282066211,61.785242662036,
    44.143738003949));
#176 = CARTESIAN_POINT('',(290.0967168429,60.535597915506,
    44.173545213293));
#177 = CARTESIAN_POINT('',(290.32387433504,58.574744776078,
    44.251585992141));
#178 = CARTESIAN_POINT('',(290.42649971479,57.862024278113,
    44.286518849299));
#179 = CARTESIAN_POINT('',(290.55058371965,57.149974048335,
    44.328229417764));
#180 = CARTESIAN_POINT('',(290.69835706576,56.437754335285,
    44.377090030025));
#181 = CARTESIAN_POINT('',(290.87259897898,55.725498761858,
    44.433481326938));
#182 = CARTESIAN_POINT('',(291.07663569991,55.01442193714,
    44.497706214495));
#183 = CARTESIAN_POINT('',(291.31434804526,54.306956187828,
    44.569853875166));
#184 = CARTESIAN_POINT('',(291.63350223304,53.497014514104,
    44.662111276594));
#185 = CARTESIAN_POINT('',(291.67777501014,53.387229082504,
    44.674824482712));
#186 = CARTESIAN_POINT('',(291.72303402941,53.277572792857,
    44.687731772134));
#187 = CARTESIAN_POINT('',(291.76930243905,53.168053526781,
    44.70083298007));
#188 = CARTESIAN_POINT('',(291.81660453878,53.058679803673,
    44.714127770333));
#189 = CARTESIAN_POINT('',(291.86496577986,52.949460780703,
    44.727615635339));
#190 = CARTESIAN_POINT('',(291.91441276509,52.840406252819,
    44.741295896107));
#191 = CARTESIAN_POINT('',(291.96497324882,52.731526652743,
    44.755167702256));
#192 = PCURVE('',#32,#193);
#193 = DEFINITIONAL_REPRESENTATION('',(#194),#274);
#194 = B_SPLINE_CURVE_WITH_KNOTS('',8,(#195,#196,#197,#198,#199,#200,
    #201,#202,#203,#204,#205,#206,#207,#208,#209,#210,#211,#212,#213,
    #214,#215,#216,#217,#218,#219,#220,#221,#222,#223,#224,#225,#226,
    #227,#228,#229,#230,#231,#232,#233,#234,#235,#236,#237,#238,#239,
    #240,#241,#242,#243,#244,#245,#246,#247,#248,#249,#250,#251,#252,
    #253,#254,#255,#256,#257,#258,#259,#260,#261,#262,#263,#264,#265,
    #266,#267,#268,#269,#270,#271,#272,#273),.UNSPECIFIED.,.F.,.F.,(9,7,
    7,7,7,7,7,7,7,7,7,9),(0.,0.172170795273,0.258237159837,0.45100092627
    ,0.500565274625,0.547294300291,0.583116616687,0.630606252684,
    0.780715443269,0.91248235845,0.988124045722,1.),.UNSPECIFIED.);
#195 = CARTESIAN_POINT('',(0.9203909764,-6.E-07));
#196 = CARTESIAN_POINT('',(1.027201472722,1.061554793513));
#197 = CARTESIAN_POINT('',(1.124533725453,2.179230035635));
#198 = CARTESIAN_POINT('',(1.21427150282,3.324726918391));
#199 = CARTESIAN_POINT('',(1.297813487391,4.481157296128));
#200 = CARTESIAN_POINT('',(1.376461723694,5.639890467832));
#201 = CARTESIAN_POINT('',(1.451521621144,6.801817891789));
#202 = CARTESIAN_POINT('',(1.524402823376,7.975892305441));
#203 = CARTESIAN_POINT('',(1.632760420445,9.777016366845));
#204 = CARTESIAN_POINT('',(1.668426632573,10.379196008205));
#205 = CARTESIAN_POINT('',(1.703722327573,10.982911830735));
#206 = CARTESIAN_POINT('',(1.738723851752,11.587920433339));
#207 = CARTESIAN_POINT('',(1.773507003762,12.194059320352));
#208 = CARTESIAN_POINT('',(1.808147524697,12.801212391648));
#209 = CARTESIAN_POINT('',(1.842721826719,13.409273889235));
#210 = CARTESIAN_POINT('',(1.954770897084,15.381729406969));
#211 = CARTESIAN_POINT('',(2.029815828346,16.705624294474));
#212 = CARTESIAN_POINT('',(2.10496376296,18.016940992725));
#213 = CARTESIAN_POINT('',(2.18247738662,19.34164104529));
#214 = CARTESIAN_POINT('',(2.264255266992,20.692245357545));
#215 = CARTESIAN_POINT('',(2.351812303258,22.060128066386));
#216 = CARTESIAN_POINT('',(2.446454261413,23.408274568629));
#217 = CARTESIAN_POINT('',(2.576128865357,24.984915453739));
#218 = CARTESIAN_POINT('',(2.603151619391,25.300415472275));
#219 = CARTESIAN_POINT('',(2.631101164555,25.612681747207));
#220 = CARTESIAN_POINT('',(2.660357954776,25.923627936001));
#221 = CARTESIAN_POINT('',(2.691248589256,26.233161386645));
#222 = CARTESIAN_POINT('',(2.724047388613,26.539062540638));
#223 = CARTESIAN_POINT('',(2.758986948066,26.83692073801));
#224 = CARTESIAN_POINT('',(2.831435176058,27.387131362863));
#225 = CARTESIAN_POINT('',(2.872786596495,27.672280689874));
#226 = CARTESIAN_POINT('',(2.919532174957,27.950806122614));
#227 = CARTESIAN_POINT('',(2.971123542376,28.198011581092));
#228 = CARTESIAN_POINT('',(3.027169943681,28.389278414143));
#229 = CARTESIAN_POINT('',(3.087415198835,28.500142826631));
#230 = CARTESIAN_POINT('',(3.151732438106,28.506424381362));
#231 = CARTESIAN_POINT('',(3.272567707912,28.290703505064));
#232 = CARTESIAN_POINT('',(3.320137099479,28.134610997647));
#233 = CARTESIAN_POINT('',(3.363247565631,27.939111680851));
#234 = CARTESIAN_POINT('',(3.402330853286,27.721309090055));
#235 = CARTESIAN_POINT('',(3.437899928811,27.492441601795));
#236 = CARTESIAN_POINT('',(3.470630978576,27.257804677139));
#237 = CARTESIAN_POINT('',(3.501411965395,27.016752029948));
#238 = CARTESIAN_POINT('',(3.570919512717,26.42669291354));
#239 = CARTESIAN_POINT('',(3.608107053707,26.075411995353));
#240 = CARTESIAN_POINT('',(3.643083387253,25.716345654492));
#241 = CARTESIAN_POINT('',(3.676092403442,25.354184931292));
#242 = CARTESIAN_POINT('',(3.707420050646,24.991199809524));
#243 = CARTESIAN_POINT('',(3.737405400347,24.627338176559));
#244 = CARTESIAN_POINT('',(3.766442534007,24.260386953833));
#245 = CARTESIAN_POINT('',(3.885155517927,22.703419609789));
#246 = CARTESIAN_POINT('',(3.969102450616,21.463730316977));
#247 = CARTESIAN_POINT('',(4.04785852307,20.211732665851));
#248 = CARTESIAN_POINT('',(4.122425391135,18.969619209874));
#249 = CARTESIAN_POINT('',(4.193928681322,17.742561745552));
#250 = CARTESIAN_POINT('',(4.263689712159,16.523355085754));
#251 = CARTESIAN_POINT('',(4.333217630604,15.297224464727));
#252 = CARTESIAN_POINT('',(4.466439713579,12.951959837402));
#253 = CARTESIAN_POINT('',(4.528524570736,11.860663300207));
#254 = CARTESIAN_POINT('',(4.590954646434,10.77374566934));
#255 = CARTESIAN_POINT('',(4.654234501685,9.6903408918));
#256 = CARTESIAN_POINT('',(4.718859310934,8.610324418645));
#257 = CARTESIAN_POINT('',(4.785321562067,7.535032613544));
#258 = CARTESIAN_POINT('',(4.854126095658,6.467712122016));
#259 = CARTESIAN_POINT('',(4.967004791564,4.808583879605));
#260 = CARTESIAN_POINT('',(5.009065673601,4.208816251148));
#261 = CARTESIAN_POINT('',(5.052280812231,3.613017947622));
#262 = CARTESIAN_POINT('',(5.096901718332,3.020647889175));
#263 = CARTESIAN_POINT('',(5.143178256451,2.432012117058));
#264 = CARTESIAN_POINT('',(5.191362412843,1.848313966587));
#265 = CARTESIAN_POINT('',(5.241715732633,1.271704485711));
#266 = CARTESIAN_POINT('',(5.302818838851,0.616403121397));
#267 = CARTESIAN_POINT('',(5.311175629697,0.527682751725));
#268 = CARTESIAN_POINT('',(5.319599462179,0.439171263916));
#269 = CARTESIAN_POINT('',(5.3280922424,0.350875401259));
#270 = CARTESIAN_POINT('',(5.336655972692,0.262802373673));
#271 = CARTESIAN_POINT('',(5.345292751619,0.174959857707));
#272 = CARTESIAN_POINT('',(5.354004773973,8.735599654558E-02));
#273 = CARTESIAN_POINT('',(5.362794330779,-6.E-07));
#274 = ( GEOMETRIC_REPRESENTATION_CONTEXT(2) 
PARAMETRIC_REPRESENTATION_CONTEXT() REPRESENTATION_CONTEXT('2D SPACE',''
  ) );
#275 = PCURVE('',#276,#281);
#276 = CYLINDRICAL_SURFACE('',#277,28.575);
#277 = AXIS2_PLACEMENT_3D('',#278,#279,#280);
#278 = CARTESIAN_POINT('',(299.52543824457,126.,17.198498925933));
#279 = DIRECTION('',(-0.,1.,-0.));
#280 = DIRECTION('',(1.,0.,0.));
#281 = DEFINITIONAL_REPRESENTATION('',(#282),#362);
#282 = B_SPLINE_CURVE_WITH_KNOTS('',8,(#283,#284,#285,#286,#287,#288,
    #289,#290,#291,#292,#293,#294,#295,#296,#297,#298,#299,#300,#301,
    #302,#303,#304,#305,#306,#307,#308,#309,#310,#311,#312,#313,#314,
    #315,#316,#317,#318,#319,#320,#321,#322,#323,#324,#325,#326,#327,
    #328,#329,#330,#331,#332,#333,#334,#335,#336,#337,#338,#339,#340,
    #341,#342,#343,#344,#345,#346,#347,#348,#349,#350,#351,#352,#353,
    #354,#355,#356,#357,#358,#359,#360,#361),.UNSPECIFIED.,.F.,.F.,(9,7,
    7,7,7,7,7,7,7,7,7,9),(0.,0.172170795273,0.258237159837,0.45100092627
    ,0.500565274625,0.547294300291,0.583116616687,0.630606252684,
    0.780715443269,0.91248235845,0.988124045722,1.),.UNSPECIFIED.);
#283 = CARTESIAN_POINT('',(-1.303024630552,-73.26847334725));
#284 = CARTESIAN_POINT('',(-1.280728399307,-71.94537089964));
#285 = CARTESIAN_POINT('',(-1.26383206596,-70.57199853335));
#286 = CARTESIAN_POINT('',(-1.251333850273,-69.18439545282));
#287 = CARTESIAN_POINT('',(-1.242401145685,-67.80114985014));
#288 = CARTESIAN_POINT('',(-1.23637594835,-66.43026772052));
#289 = CARTESIAN_POINT('',(-1.232784429402,-65.06882696729));
#290 = CARTESIAN_POINT('',(-1.231346780145,-63.70524765867));
#291 = CARTESIAN_POINT('',(-1.23233403339,-61.63090183998));
#292 = CARTESIAN_POINT('',(-1.233184178756,-60.94022411717));
#293 = CARTESIAN_POINT('',(-1.234532438846,-60.25049106934));
#294 = CARTESIAN_POINT('',(-1.236360619642,-59.56185054612));
#295 = CARTESIAN_POINT('',(-1.238655207941,-58.87436443616));
#296 = CARTESIAN_POINT('',(-1.241407268608,-58.18804996149));
#297 = CARTESIAN_POINT('',(-1.24461235901,-57.50292036079));
#298 = CARTESIAN_POINT('',(-1.256463550287,-55.28729704735));
#299 = CARTESIAN_POINT('',(-1.266667064354,-53.81075110577));
#300 = CARTESIAN_POINT('',(-1.278801178282,-52.35658553103));
#301 = CARTESIAN_POINT('',(-1.293173428592,-50.89511442681));
#302 = CARTESIAN_POINT('',(-1.310297513813,-49.41245056455));
#303 = CARTESIAN_POINT('',(-1.33078256405,-47.91815691112));
#304 = CARTESIAN_POINT('',(-1.355239251996,-46.45184306433));
#305 = CARTESIAN_POINT('',(-1.391646541293,-44.74272286466));
#306 = CARTESIAN_POINT('',(-1.399373212426,-44.40103577766));
#307 = CARTESIAN_POINT('',(-1.407501076134,-44.06314561443));
#308 = CARTESIAN_POINT('',(-1.416149302043,-43.72696994103));
#309 = CARTESIAN_POINT('',(-1.425429861567,-43.39260482967));
#310 = CARTESIAN_POINT('',(-1.435444244176,-43.06243824765));
#311 = CARTESIAN_POINT('',(-1.446282206337,-42.74120514406));
#312 = CARTESIAN_POINT('',(-1.469091294798,-42.14822345024));
#313 = CARTESIAN_POINT('',(-1.482254208023,-41.84110407109));
#314 = CARTESIAN_POINT('',(-1.497328908735,-41.54136291899));
#315 = CARTESIAN_POINT('',(-1.514186614664,-41.27556041411));
#316 = CARTESIAN_POINT('',(-1.53270522045,-41.07004825235));
#317 = CARTESIAN_POINT('',(-1.55275756258,-40.95095837596));
#318 = CARTESIAN_POINT('',(-1.574205890478,-40.94416845279));
#319 = CARTESIAN_POINT('',(-1.614268388543,-41.1760211853));
#320 = CARTESIAN_POINT('',(-1.629966861164,-41.34380894512));
#321 = CARTESIAN_POINT('',(-1.644072816184,-41.55402754864));
#322 = CARTESIAN_POINT('',(-1.656732272065,-41.78836242657));
#323 = CARTESIAN_POINT('',(-1.668133316546,-42.03475564728));
#324 = CARTESIAN_POINT('',(-1.678515737914,-42.28750871284));
#325 = CARTESIAN_POINT('',(-1.688175749779,-42.54732886253));
#326 = CARTESIAN_POINT('',(-1.709724047616,-43.18376860447));
#327 = CARTESIAN_POINT('',(-1.721046204799,-43.56297805965));
#328 = CARTESIAN_POINT('',(-1.731492963295,-43.95095849582));
#329 = CARTESIAN_POINT('',(-1.741160549594,-44.34267285168));
#330 = CARTESIAN_POINT('',(-1.750156082631,-44.73567729157));
#331 = CARTESIAN_POINT('',(-1.758595667281,-45.13003327593));
#332 = CARTESIAN_POINT('',(-1.766600469945,-45.52815530921));
#333 = CARTESIAN_POINT('',(-1.798598935796,-47.21930073252));
#334 = CARTESIAN_POINT('',(-1.819447764403,-48.57034765381));
#335 = CARTESIAN_POINT('',(-1.837234297543,-49.94041458207));
#336 = CARTESIAN_POINT('',(-1.852382412387,-51.30581172963));
#337 = CARTESIAN_POINT('',(-1.865295997164,-52.66099086786));
#338 = CARTESIAN_POINT('',(-1.876303771521,-54.01414486371));
#339 = CARTESIAN_POINT('',(-1.885596471572,-55.38240927444));
#340 = CARTESIAN_POINT('',(-1.89976252392,-58.01645091423));
#341 = CARTESIAN_POINT('',(-1.904900644997,-59.24893406073));
#342 = CARTESIAN_POINT('',(-1.908575746702,-60.4838389311));
#343 = CARTESIAN_POINT('',(-1.910751508476,-61.72276590856));
#344 = CARTESIAN_POINT('',(-1.911334166079,-62.96661489855));
#345 = CARTESIAN_POINT('',(-1.910172470564,-64.21475733796));
#346 = CARTESIAN_POINT('',(-1.907056836668,-65.46440208449));
#347 = CARTESIAN_POINT('',(-1.898651262625,-67.42525522392));
#348 = CARTESIAN_POINT('',(-1.894857477121,-68.13797572188));
#349 = CARTESIAN_POINT('',(-1.890276359352,-68.85002595166));
#350 = CARTESIAN_POINT('',(-1.884829740473,-69.56224566471));
#351 = CARTESIAN_POINT('',(-1.878420943028,-70.27450123814));
#352 = CARTESIAN_POINT('',(-1.870935703747,-70.98557806286));
#353 = CARTESIAN_POINT('',(-1.862242858203,-71.69304381217));
#354 = CARTESIAN_POINT('',(-1.850616574864,-72.50298548589));
#355 = CARTESIAN_POINT('',(-1.849004609972,-72.61277091749));
#356 = CARTESIAN_POINT('',(-1.847357596488,-72.72242720714));
#357 = CARTESIAN_POINT('',(-1.845674750734,-72.83194647321));
#358 = CARTESIAN_POINT('',(-1.843955250506,-72.94132019632));
#359 = CARTESIAN_POINT('',(-1.842198235073,-73.05053921929));
#360 = CARTESIAN_POINT('',(-1.840402805178,-73.15959374718));
#361 = CARTESIAN_POINT('',(-1.838568023038,-73.26847334725));
#362 = ( GEOMETRIC_REPRESENTATION_CONTEXT(2) 
PARAMETRIC_REPRESENTATION_CONTEXT() REPRESENTATION_CONTEXT('2D SPACE',''
  ) );
#363 = ORIENTED_EDGE('',*,*,#364,.T.);
#364 = EDGE_CURVE('',#109,#22,#365,.T.);
#365 = SURFACE_CURVE('',#366,(#371,#378),.PCURVE_S1.);
#366 = CIRCLE('',#367,9.5);
#367 = AXIS2_PLACEMENT_3D('',#368,#369,#370);
#368 = CARTESIAN_POINT('',(299.52543824457,55.607695154587,
    39.773498925933));
#369 = DIRECTION('',(0.,0.866025403784,0.5));
#370 = DIRECTION('',(0.,-0.5,0.866025403784));
#371 = PCURVE('',#32,#372);
#372 = DEFINITIONAL_REPRESENTATION('',(#373),#377);
#373 = LINE('',#374,#375);
#374 = CARTESIAN_POINT('',(0.,0.));
#375 = VECTOR('',#376,1.);
#376 = DIRECTION('',(1.,0.));
#377 = ( GEOMETRIC_REPRESENTATION_CONTEXT(2) 
PARAMETRIC_REPRESENTATION_CONTEXT() REPRESENTATION_CONTEXT('2D SPACE',''
  ) );
#378 = PCURVE('',#96,#379);
#379 = DEFINITIONAL_REPRESENTATION('',(#380),#384);
#380 = CIRCLE('',#381,9.5);
#381 = AXIS2_PLACEMENT_2D('',#382,#383);
#382 = CARTESIAN_POINT('',(0.,0.));
#383 = DIRECTION('',(1.,0.));
#384 = ( GEOMETRIC_REPRESENTATION_CONTEXT(2) 
PARAMETRIC_REPRESENTATION_CONTEXT() REPRESENTATION_CONTEXT('2D SPACE',''
  ) );
#385 = ADVANCED_FACE('',(#386),#96,.F.);
#386 = FACE_BOUND('',#387,.F.);
#387 = EDGE_LOOP('',(#388,#389,#390));
#388 = ORIENTED_EDGE('',*,*,#364,.T.);
#389 = ORIENTED_EDGE('',*,*,#79,.T.);
#390 = ORIENTED_EDGE('',*,*,#391,.F.);
#391 = EDGE_CURVE('',#109,#80,#392,.T.);
#392 = SURFACE_CURVE('',#393,(#398,#405),.PCURVE_S1.);
#393 = ELLIPSE('',#394,32.995567884187,28.575);
#394 = AXIS2_PLACEMENT_3D('',#395,#396,#397);
#395 = CARTESIAN_POINT('',(299.52543824457,68.641377481543,
    17.198498925933));
#396 = DIRECTION('',(0.,0.866025403784,0.5));
#397 = DIRECTION('',(0.,0.5,-0.866025403784));
#398 = PCURVE('',#96,#399);
#399 = DEFINITIONAL_REPRESENTATION('',(#400),#404);
#400 = ELLIPSE('',#401,32.995567884187,28.575);
#401 = AXIS2_PLACEMENT_2D('',#402,#403);
#402 = CARTESIAN_POINT('',(-26.06736465391,0.));
#403 = DIRECTION('',(-1.,0.));
#404 = ( GEOMETRIC_REPRESENTATION_CONTEXT(2) 
PARAMETRIC_REPRESENTATION_CONTEXT() REPRESENTATION_CONTEXT('2D SPACE',''
  ) );
#405 = PCURVE('',#276,#406);
#406 = DEFINITIONAL_REPRESENTATION('',(#407),#415);
#407 = B_SPLINE_CURVE_WITH_KNOTS('',6,(#408,#409,#410,#411,#412,#413,
    #414),.UNSPECIFIED.,.F.,.F.,(7,7),(2.731221022312,3.551964284867),
  .PIECEWISE_BEZIER_KNOTS.);
#408 = CARTESIAN_POINT('',(-1.981167958072,-72.48663874663));
#409 = CARTESIAN_POINT('',(-1.844377414313,-73.38696579942));
#410 = CARTESIAN_POINT('',(-1.707586870554,-73.94760845));
#411 = CARTESIAN_POINT('',(-1.570796326795,-74.13824461583));
#412 = CARTESIAN_POINT('',(-1.434005783036,-73.94760845));
#413 = CARTESIAN_POINT('',(-1.297215239277,-73.38696579942));
#414 = CARTESIAN_POINT('',(-1.160424695517,-72.48663874663));
#415 = ( GEOMETRIC_REPRESENTATION_CONTEXT(2) 
PARAMETRIC_REPRESENTATION_CONTEXT() REPRESENTATION_CONTEXT('2D SPACE',''
  ) );
#416 = ADVANCED_FACE('',(#417,#421),#276,.F.);
#417 = FACE_BOUND('',#418,.T.);
#418 = EDGE_LOOP('',(#419,#420));
#419 = ORIENTED_EDGE('',*,*,#108,.F.);
#420 = ORIENTED_EDGE('',*,*,#391,.F.);
#421 = FACE_BOUND('',#422,.T.);
#422 = EDGE_LOOP('',(#423));
#423 = ORIENTED_EDGE('',*,*,#424,.T.);
#424 = EDGE_CURVE('',#425,#425,#427,.T.);
#425 = VERTEX_POINT('',#426);
#426 = CARTESIAN_POINT('',(299.52543824457,55.,45.773498925932));
#427 = SURFACE_CURVE('',#428,(#550,#675),.PCURVE_S1.);
#428 = B_SPLINE_CURVE_WITH_KNOTS('',8,(#429,#430,#431,#432,#433,#434,
    #435,#436,#437,#438,#439,#440,#441,#442,#443,#444,#445,#446,#447,
    #448,#449,#450,#451,#452,#453,#454,#455,#456,#457,#458,#459,#460,
    #461,#462,#463,#464,#465,#466,#467,#468,#469,#470,#471,#472,#473,
    #474,#475,#476,#477,#478,#479,#480,#481,#482,#483,#484,#485,#486,
    #487,#488,#489,#490,#491,#492,#493,#494,#495,#496,#497,#498,#499,
    #500,#501,#502,#503,#504,#505,#506,#507,#508,#509,#510,#511,#512,
    #513,#514,#515,#516,#517,#518,#519,#520,#521,#522,#523,#524,#525,
    #526,#527,#528,#529,#530,#531,#532,#533,#534,#535,#536,#537,#538,
    #539,#540,#541,#542,#543,#544,#545,#546,#547,#548,#549),
  .UNSPECIFIED.,.T.,.F.,(9,7,7,7,7,7,7,7,7,7,7,7,7,7,7,7,7,9),(0.,
    1.393884110799E-02,2.496412374575E-02,4.469279565365E-02,
    6.928100997562E-02,0.16358509298,0.29191367743,0.458216841818,
    0.501034817919,0.539110976708,0.574827255743,0.625079447769,
    0.744588590416,0.841972972557,0.91695177531,0.96427412287,
    0.98379601564,1.),.UNSPECIFIED.);
#429 = CARTESIAN_POINT('',(299.52543824457,55.,45.773498925933));
#430 = CARTESIAN_POINT('',(299.6539306708,55.,45.773498925933));
#431 = CARTESIAN_POINT('',(299.78206250125,55.005717638834,
    45.772838716387));
#432 = CARTESIAN_POINT('',(299.90930289009,55.017096873781,
    45.771524398318));
#433 = CARTESIAN_POINT('',(300.03512127192,55.033973435591,
    45.769577922448));
#434 = CARTESIAN_POINT('',(300.15898734615,55.056074908215,
    45.767036099878));
#435 = CARTESIAN_POINT('',(300.28037106138,55.083020808528,
    45.763949612761));
#436 = CARTESIAN_POINT('',(300.39874259986,55.114322666062,
    45.760382024983));
#437 = CARTESIAN_POINT('',(300.60439989701,55.177116842195,
    45.753266063321));
#438 = CARTESIAN_POINT('',(300.69321532233,55.207264064598,
    45.749862314317));
#439 = CARTESIAN_POINT('',(300.78001455246,55.239633689851,
    45.746223382547));
#440 = CARTESIAN_POINT('',(300.86479739111,55.274040487715,
    45.742374041586));
#441 = CARTESIAN_POINT('',(300.94756753112,55.310306077799,
    45.738338001871));
#442 = CARTESIAN_POINT('',(301.02833255445,55.34825892956,
    45.734137910693));
#443 = CARTESIAN_POINT('',(301.10710393211,55.387734362303,
    45.729795352202));
#444 = CARTESIAN_POINT('',(301.32131080037,55.501654083833,
    45.717342049911));
#445 = CARTESIAN_POINT('',(301.45260205828,55.579216401987,
    45.708950059679));
#446 = CARTESIAN_POINT('',(301.57806074978,55.660507651696,
    45.700255861476));
#447 = CARTESIAN_POINT('',(301.69800707277,55.744904042304,
    45.691341916012));
#448 = CARTESIAN_POINT('',(301.81278521814,55.831907571823,
    45.682273610152));
#449 = CARTESIAN_POINT('',(301.92275711667,55.921141758306,
    45.673100707134));
#450 = CARTESIAN_POINT('',(302.02829618587,56.012347371226,
    45.663858796777));
#451 = CARTESIAN_POINT('',(302.25626360267,56.22132418565,
    45.642994873193));
#452 = CARTESIAN_POINT('',(302.37647932768,56.340133216896,
    45.631344652231));
#453 = CARTESIAN_POINT('',(302.49081986799,56.461216148112,
    45.619695568251));
#454 = CARTESIAN_POINT('',(302.59968615684,56.58412182391,
    45.608103507424));
#455 = CARTESIAN_POINT('',(302.70348312962,56.708530961836,
    45.596607312108));
#456 = CARTESIAN_POINT('',(302.80261440869,56.834250072211,
    45.585231336308));
#457 = CARTESIAN_POINT('',(302.89747698826,56.961205377981,
    45.573988001133));
#458 = CARTESIAN_POINT('',(303.33739076039,57.581247174179,
    45.520278768226));
#459 = CARTESIAN_POINT('',(303.63312875594,58.097367520812,
    45.479192595213));
#460 = CARTESIAN_POINT('',(303.88307235028,58.623772409646,
    45.441348258014));
#461 = CARTESIAN_POINT('',(304.09446774786,59.152499455646,
    45.407352046089));
#462 = CARTESIAN_POINT('',(304.27373329101,59.680156747315,
    45.377205182393));
#463 = CARTESIAN_POINT('',(304.4262110399,60.207323606357,
    45.350654037433));
#464 = CARTESIAN_POINT('',(304.55601508181,60.738152377896,
    45.327422536206));
#465 = CARTESIAN_POINT('',(304.81484094607,62.016113941525,
    45.280091585371));
#466 = CARTESIAN_POINT('',(304.92385420237,62.758211161884,
    45.259221433292));
#467 = CARTESIAN_POINT('',(304.99735519982,63.501320173464,
    45.244787415979));
#468 = CARTESIAN_POINT('',(305.03900347641,64.243159976883,
    45.236512008105));
#469 = CARTESIAN_POINT('',(305.05146755778,64.98309564969,
    45.234042703676));
#470 = CARTESIAN_POINT('',(305.03641570727,65.721599813801,
    45.237065594822));
#471 = CARTESIAN_POINT('',(304.99448683314,66.459689192766,
    45.245336615902));
#472 = CARTESIAN_POINT('',(304.83551505611,68.155538866408,
    45.275928634115));
#473 = CARTESIAN_POINT('',(304.7030655491,69.080057642765,
    45.301077398783));
#474 = CARTESIAN_POINT('',(304.5309538999,69.991237614038,
    45.332947827297));
#475 = CARTESIAN_POINT('',(304.31455129196,70.907096513791,
    45.371578136352));
#476 = CARTESIAN_POINT('',(304.04441829784,71.836197618347,
    45.417420828961));
#477 = CARTESIAN_POINT('',(303.70803657141,72.772746351735,
    45.470510978995));
#478 = CARTESIAN_POINT('',(303.29158562934,73.691647782492,
    45.528854418806));
#479 = CARTESIAN_POINT('',(302.65178789223,74.759323409757,
    45.602265397677));
#480 = CARTESIAN_POINT('',(302.51482354701,74.973040791614,
    45.61728099509));
#481 = CARTESIAN_POINT('',(302.36972354336,75.184308406227,
    45.632419592792));
#482 = CARTESIAN_POINT('',(302.21429096657,75.394266068194,
    45.647752603041));
#483 = CARTESIAN_POINT('',(302.04640509196,75.602638469555,
    45.66325612637));
#484 = CARTESIAN_POINT('',(301.86409698819,75.807652333689,
    45.678787314311));
#485 = CARTESIAN_POINT('',(301.6655988121,76.005984067157,
    45.694065369706));
#486 = CARTESIAN_POINT('',(301.25708109231,76.358809956821,
    45.721633049173));
#487 = CARTESIAN_POINT('',(301.028167064,76.53525044949,45.735591881619)
  );
#488 = CARTESIAN_POINT('',(300.76713286092,76.705023654015,
    45.749238827816));
#489 = CARTESIAN_POINT('',(300.477182333,76.852668791125,45.761305192529
    ));
#490 = CARTESIAN_POINT('',(300.16146684642,76.964113938923,
    45.770524716941));
#491 = CARTESIAN_POINT('',(299.82327810241,77.02661880759,
    45.775713268028));
#492 = CARTESIAN_POINT('',(299.46612428612,77.028770905956,
    45.775861987204));
#493 = CARTESIAN_POINT('',(298.74477100443,76.896357175616,
    45.76496723673));
#494 = CARTESIAN_POINT('',(298.43168056541,76.779306376005,
    45.755361039487));
#495 = CARTESIAN_POINT('',(298.15304568255,76.629505723484,
    45.743159706207));
#496 = CARTESIAN_POINT('',(297.90563926878,76.461727235707,
    45.729683090192));
#497 = CARTESIAN_POINT('',(297.68517451795,76.285531825293,
    45.71574456616));
#498 = CARTESIAN_POINT('',(297.48623235268,76.105220027335,
    45.701680691655));
#499 = CARTESIAN_POINT('',(297.30223887632,75.91982048273,
    45.687430531961));
#500 = CARTESIAN_POINT('',(296.87848391023,75.447115468147,
    45.651724577295));
#501 = CARTESIAN_POINT('',(296.6537626404,75.157143654413,
    45.630308973705));
#502 = CARTESIAN_POINT('',(296.44977665146,74.860355474628,
    45.608959466083));
#503 = CARTESIAN_POINT('',(296.26402311732,74.561105646176,
    45.588034904197));
#504 = CARTESIAN_POINT('',(296.0938162529,74.261364899553,45.56768317761
    ));
#505 = CARTESIAN_POINT('',(295.93639518556,73.96087203823,
    45.547887509412));
#506 = CARTESIAN_POINT('',(295.78906590488,73.657337304656,
    45.528518788403));
#507 = CARTESIAN_POINT('',(295.31717155357,72.60793623983,
    45.463911460781));
#508 = CARTESIAN_POINT('',(295.03561721353,71.845520563035,
    45.42082488352));
#509 = CARTESIAN_POINT('',(294.79878742037,71.075504486916,
    45.381717244681));
#510 = CARTESIAN_POINT('',(294.60099654234,70.305696260818,
    45.347260304289));
#511 = CARTESIAN_POINT('',(294.4374350179,69.537946769617,45.31763072957
    ));
#512 = CARTESIAN_POINT('',(294.30463712423,68.769867229784,
    45.292868679497));
#513 = CARTESIAN_POINT('',(294.20091720731,67.996432782132,
    45.273145504824));
#514 = CARTESIAN_POINT('',(294.06660361933,66.572660678938,
    45.247304978907));
#515 = CARTESIAN_POINT('',(294.02669049747,65.933078949143,
    45.239472251482));
#516 = CARTESIAN_POINT('',(294.00699020994,65.292874266041,
    45.235557005327));
#517 = CARTESIAN_POINT('',(294.00787026129,64.651682230686,
    45.235722098593));
#518 = CARTESIAN_POINT('',(294.03023140636,64.009362758796,
    45.24016158347));
#519 = CARTESIAN_POINT('',(294.0755004686,63.36626290099,45.2490861462)
  );
#520 = CARTESIAN_POINT('',(294.14563057366,62.723463347136,
    45.262677742097));
#521 = CARTESIAN_POINT('',(294.31815985305,61.589905634738,
    45.295130551579));
#522 = CARTESIAN_POINT('',(294.40900123028,61.100958156057,
    45.311980222212));
#523 = CARTESIAN_POINT('',(294.5169790039,60.61361809797,45.331642622832
    ));
#524 = CARTESIAN_POINT('',(294.64409067458,60.126432560825,
    45.354242540629));
#525 = CARTESIAN_POINT('',(294.79293130837,59.639223016667,
    45.379906896256));
#526 = CARTESIAN_POINT('',(294.96662727881,59.153319631869,
    45.40868338895));
#527 = CARTESIAN_POINT('',(295.16875761277,58.671850721835,
    45.440420255122));
#528 = CARTESIAN_POINT('',(295.55126933904,57.902337173661,
    45.496183954277));
#529 = CARTESIAN_POINT('',(295.71102205174,57.610765525817,
    45.518568877876));
#530 = CARTESIAN_POINT('',(295.8851408017,57.322621400314,
    45.541896034902));
#531 = CARTESIAN_POINT('',(296.0766264639,57.036836442653,
    45.566236945797));
#532 = CARTESIAN_POINT('',(296.28875039125,56.754156650836,
    45.591540881409));
#533 = CARTESIAN_POINT('',(296.52491564844,56.477317084958,
    45.617541199259));
#534 = CARTESIAN_POINT('',(296.78847556767,56.21126498623,
    45.643652190543));
#535 = CARTESIAN_POINT('',(297.20378692395,55.861200098237,45.6792885952
    ));
#536 = CARTESIAN_POINT('',(297.3307699347,55.761637410283,
    45.689589683356));
#537 = CARTESIAN_POINT('',(297.46400118682,55.665092007413,
    45.699735076569));
#538 = CARTESIAN_POINT('',(297.60402177895,55.572105109589,
    45.709653142411));
#539 = CARTESIAN_POINT('',(297.75134327295,55.483423865295,
    45.719245597099));
#540 = CARTESIAN_POINT('',(297.90643370662,55.400009406655,
    45.728384750183));
#541 = CARTESIAN_POINT('',(298.06970314116,55.323044898192,
    45.736912166719));
#542 = CARTESIAN_POINT('',(298.38407795048,55.196586605449,
    45.751052130376));
#543 = CARTESIAN_POINT('',(298.53369997996,55.144178010215,
    45.756966196096));
#544 = CARTESIAN_POINT('',(298.68939993924,55.09821241323,
    45.762197952936));
#545 = CARTESIAN_POINT('',(298.85022379994,55.059936433762,
    45.766585419657));
#546 = CARTESIAN_POINT('',(299.01521257977,55.030349101886,
    45.769993882918));
#547 = CARTESIAN_POINT('',(299.18339852876,55.010202123623,
    45.772320739957));
#548 = CARTESIAN_POINT('',(299.35380331997,55.,45.773498925933));
#549 = CARTESIAN_POINT('',(299.52543824457,55.,45.773498925933));
#550 = PCURVE('',#276,#551);
#551 = DEFINITIONAL_REPRESENTATION('',(#552),#674);
#552 = B_SPLINE_CURVE_WITH_KNOTS('',8,(#553,#554,#555,#556,#557,#558,
    #559,#560,#561,#562,#563,#564,#565,#566,#567,#568,#569,#570,#571,
    #572,#573,#574,#575,#576,#577,#578,#579,#580,#581,#582,#583,#584,
    #585,#586,#587,#588,#589,#590,#591,#592,#593,#594,#595,#596,#597,
    #598,#599,#600,#601,#602,#603,#604,#605,#606,#607,#608,#609,#610,
    #611,#612,#613,#614,#615,#616,#617,#618,#619,#620,#621,#622,#623,
    #624,#625,#626,#627,#628,#629,#630,#631,#632,#633,#634,#635,#636,
    #637,#638,#639,#640,#641,#642,#643,#644,#645,#646,#647,#648,#649,
    #650,#651,#652,#653,#654,#655,#656,#657,#658,#659,#660,#661,#662,
    #663,#664,#665,#666,#667,#668,#669,#670,#671,#672,#673),
  .UNSPECIFIED.,.T.,.F.,(9,7,7,7,7,7,7,7,7,7,7,7,7,7,7,7,7,9),(0.,
    1.393884110799E-02,2.496412374575E-02,4.469279565365E-02,
    6.928100997562E-02,0.16358509298,0.29191367743,0.458216841818,
    0.501034817919,0.539110976708,0.574827255743,0.625079447769,
    0.744588590416,0.841972972557,0.91695177531,0.96427412287,
    0.98379601564,1.),.UNSPECIFIED.);
#553 = CARTESIAN_POINT('',(-1.570796326795,-71.));
#554 = CARTESIAN_POINT('',(-1.566299653961,-71.));
#555 = CARTESIAN_POINT('',(-1.561815600953,-70.99428236116));
#556 = CARTESIAN_POINT('',(-1.557362604818,-70.98290312621));
#557 = CARTESIAN_POINT('',(-1.5529590988,-70.9660265644));
#558 = CARTESIAN_POINT('',(-1.5486235222,-70.94392509178));
#559 = CARTESIAN_POINT('',(-1.544374330224,-70.91697919147));
#560 = CARTESIAN_POINT('',(-1.540230003843,-70.88567733393));
#561 = CARTESIAN_POINT('',(-1.533028591061,-70.8228831578));
#562 = CARTESIAN_POINT('',(-1.529918178645,-70.7927359354));
#563 = CARTESIAN_POINT('',(-1.52687794929,-70.76036631014));
#564 = CARTESIAN_POINT('',(-1.523907899908,-70.72595951228));
#565 = CARTESIAN_POINT('',(-1.521007897426,-70.6896939222));
#566 = CARTESIAN_POINT('',(-1.518177678786,-70.65174107044));
#567 = CARTESIAN_POINT('',(-1.515416850948,-70.61226563769));
#568 = CARTESIAN_POINT('',(-1.507907889952,-70.49834591616));
#569 = CARTESIAN_POINT('',(-1.503303969334,-70.42078359801));
#570 = CARTESIAN_POINT('',(-1.498903036904,-70.3394923483));
#571 = CARTESIAN_POINT('',(-1.494693964105,-70.25509595769));
#572 = CARTESIAN_POINT('',(-1.490664793899,-70.16809242817));
#573 = CARTESIAN_POINT('',(-1.486802948708,-70.07885824169));
#574 = CARTESIAN_POINT('',(-1.483095438352,-69.98765262877));
#575 = CARTESIAN_POINT('',(-1.475084233635,-69.77867581435));
#576 = CARTESIAN_POINT('',(-1.470857558773,-69.6598667831));
#577 = CARTESIAN_POINT('',(-1.466835506437,-69.53878385188));
#578 = CARTESIAN_POINT('',(-1.463004200573,-69.41587817609));
#579 = CARTESIAN_POINT('',(-1.459349607642,-69.29146903816));
#580 = CARTESIAN_POINT('',(-1.455857718214,-69.16574992778));
#581 = CARTESIAN_POINT('',(-1.452514728573,-69.03879462201));
#582 = CARTESIAN_POINT('',(-1.437005355549,-68.41875282582));
#583 = CARTESIAN_POINT('',(-1.426557846055,-67.90263247918));
#584 = CARTESIAN_POINT('',(-1.417712066225,-67.37622759035));
#585 = CARTESIAN_POINT('',(-1.410219538973,-66.84750054435));
#586 = CARTESIAN_POINT('',(-1.403858205367,-66.31984325268));
#587 = CARTESIAN_POINT('',(-1.398441941602,-65.79267639364));
#588 = CARTESIAN_POINT('',(-1.393827225884,-65.2618476221));
#589 = CARTESIAN_POINT('',(-1.384619249209,-63.98388605847));
#590 = CARTESIAN_POINT('',(-1.380735109966,-63.24178883811));
#591 = CARTESIAN_POINT('',(-1.378113771889,-62.49867982653));
#592 = CARTESIAN_POINT('',(-1.376627755237,-61.75684002311));
#593 = CARTESIAN_POINT('',(-1.376183102476,-61.01690435031));
#594 = CARTESIAN_POINT('',(-1.376720366173,-60.27840018619));
#595 = CARTESIAN_POINT('',(-1.378215955744,-59.54031080723));
#596 = CARTESIAN_POINT('',(-1.383881346263,-57.84446113359));
#597 = CARTESIAN_POINT('',(-1.388599297978,-56.91994235723));
#598 = CARTESIAN_POINT('',(-1.394724752399,-56.00876238596));
#599 = CARTESIAN_POINT('',(-1.402417251574,-55.09290348621));
#600 = CARTESIAN_POINT('',(-1.412005046992,-54.16380238165));
#601 = CARTESIAN_POINT('',(-1.42392077579,-53.22725364826));
#602 = CARTESIAN_POINT('',(-1.438632482859,-52.3083522175));
#603 = CARTESIAN_POINT('',(-1.461169511279,-51.24067659024));
#604 = CARTESIAN_POINT('',(-1.465991322315,-51.02695920838));
#605 = CARTESIAN_POINT('',(-1.471096626828,-50.81569159377));
#606 = CARTESIAN_POINT('',(-1.476562305003,-50.6057339318));
#607 = CARTESIAN_POINT('',(-1.482462314954,-50.39736153044));
#608 = CARTESIAN_POINT('',(-1.488865080608,-50.19234766631));
#609 = CARTESIAN_POINT('',(-1.49583188517,-49.99401593284));
#610 = CARTESIAN_POINT('',(-1.510160733017,-49.64119004317));
#611 = CARTESIAN_POINT('',(-1.518186434424,-49.4647495505));
#612 = CARTESIAN_POINT('',(-1.527333383158,-49.29497634599));
#613 = CARTESIAN_POINT('',(-1.53748793835,-49.14733120886));
#614 = CARTESIAN_POINT('',(-1.548539423551,-49.03588606108));
#615 = CARTESIAN_POINT('',(-1.560373826961,-48.9733811924));
#616 = CARTESIAN_POINT('',(-1.57287114438,-48.97122909404));
#617 = CARTESIAN_POINT('',(-1.598118232739,-49.10364282438));
#618 = CARTESIAN_POINT('',(-1.609078853529,-49.22069362399));
#619 = CARTESIAN_POINT('',(-1.618837983121,-49.37049427651));
#620 = CARTESIAN_POINT('',(-1.627508170333,-49.53827276429));
#621 = CARTESIAN_POINT('',(-1.635238415809,-49.7144681747));
#622 = CARTESIAN_POINT('',(-1.642217610901,-49.89477997266));
#623 = CARTESIAN_POINT('',(-1.648675715576,-50.08017951727));
#624 = CARTESIAN_POINT('',(-1.663557836748,-50.55288453185));
#625 = CARTESIAN_POINT('',(-1.671457257595,-50.84285634558));
#626 = CARTESIAN_POINT('',(-1.678634395335,-51.13964452537));
#627 = CARTESIAN_POINT('',(-1.685175724966,-51.43889435382));
#628 = CARTESIAN_POINT('',(-1.691174412674,-51.73863510044));
#629 = CARTESIAN_POINT('',(-1.696726689926,-52.03912796177));
#630 = CARTESIAN_POINT('',(-1.701926862822,-52.34266269534));
#631 = CARTESIAN_POINT('',(-1.718595157876,-53.39206376017));
#632 = CARTESIAN_POINT('',(-1.728561794648,-54.15447943696));
#633 = CARTESIAN_POINT('',(-1.73696129164,-54.92449551308));
#634 = CARTESIAN_POINT('',(-1.743986992963,-55.69430373918));
#635 = CARTESIAN_POINT('',(-1.749803905865,-56.46205323038));
#636 = CARTESIAN_POINT('',(-1.754531314659,-57.23013277021));
#637 = CARTESIAN_POINT('',(-1.758226089827,-58.00356721786));
#638 = CARTESIAN_POINT('',(-1.763012676903,-59.42733932106));
#639 = CARTESIAN_POINT('',(-1.764436091874,-60.06692105085));
#640 = CARTESIAN_POINT('',(-1.765139005599,-60.70712573395));
#641 = CARTESIAN_POINT('',(-1.765107673213,-61.34831776931));
#642 = CARTESIAN_POINT('',(-1.764309847846,-61.9906372412));
#643 = CARTESIAN_POINT('',(-1.762695141943,-62.63373709901));
#644 = CARTESIAN_POINT('',(-1.760195263561,-63.27653665286));
#645 = CARTESIAN_POINT('',(-1.754051608605,-64.41009436526));
#646 = CARTESIAN_POINT('',(-1.75081833384,-64.89904184394));
#647 = CARTESIAN_POINT('',(-1.746977504018,-65.38638190203));
#648 = CARTESIAN_POINT('',(-1.742459466373,-65.87356743917));
#649 = CARTESIAN_POINT('',(-1.737173978873,-66.36077698333));
#650 = CARTESIAN_POINT('',(-1.73101284631,-66.84668036813));
#651 = CARTESIAN_POINT('',(-1.723852928342,-67.32814927816));
#652 = CARTESIAN_POINT('',(-1.710325192369,-68.09766282633));
#653 = CARTESIAN_POINT('',(-1.70468001585,-68.38923447418));
#654 = CARTESIAN_POINT('',(-1.698532373773,-68.67737859968));
#655 = CARTESIAN_POINT('',(-1.691777625555,-68.96316355734));
#656 = CARTESIAN_POINT('',(-1.684302100048,-69.24584334916));
#657 = CARTESIAN_POINT('',(-1.675988140616,-69.52268291504));
#658 = CARTESIAN_POINT('',(-1.666720344475,-69.78873501377));
#659 = CARTESIAN_POINT('',(-1.652132856478,-70.13879990176));
#660 = CARTESIAN_POINT('',(-1.647674456937,-70.23836258971));
#661 = CARTESIAN_POINT('',(-1.642998544682,-70.33490799258));
#662 = CARTESIAN_POINT('',(-1.638086303648,-70.42789489041));
#663 = CARTESIAN_POINT('',(-1.6329199606,-70.5165761347));
#664 = CARTESIAN_POINT('',(-1.627483252493,-70.59999059334));
#665 = CARTESIAN_POINT('',(-1.621761898378,-70.6769551018));
#666 = CARTESIAN_POINT('',(-1.610749032496,-70.80341339455));
#667 = CARTESIAN_POINT('',(-1.605508904622,-70.85582198978));
#668 = CARTESIAN_POINT('',(-1.600057174246,-70.90178758677));
#669 = CARTESIAN_POINT('',(-1.594427179672,-70.94006356623));
#670 = CARTESIAN_POINT('',(-1.588652322984,-70.96965089811));
#671 = CARTESIAN_POINT('',(-1.582766220804,-70.98979787637));
#672 = CARTESIAN_POINT('',(-1.576802798347,-71.));
#673 = CARTESIAN_POINT('',(-1.570796326795,-71.));
#674 = ( GEOMETRIC_REPRESENTATION_CONTEXT(2) 
PARAMETRIC_REPRESENTATION_CONTEXT() REPRESENTATION_CONTEXT('2D SPACE',''
  ) );
#675 = PCURVE('',#676,#681);
#676 = CYLINDRICAL_SURFACE('',#677,5.5);
#677 = AXIS2_PLACEMENT_3D('',#678,#679,#680);
#678 = CARTESIAN_POINT('',(299.52543824457,31.358983848622,
    25.773498925933));
#679 = DIRECTION('',(0.,0.866025403784,0.5));
#680 = DIRECTION('',(0.,-0.5,0.866025403784));
#681 = DEFINITIONAL_REPRESENTATION('',(#682),#804);
#682 = B_SPLINE_CURVE_WITH_KNOTS('',8,(#683,#684,#685,#686,#687,#688,
    #689,#690,#691,#692,#693,#694,#695,#696,#697,#698,#699,#700,#701,
    #702,#703,#704,#705,#706,#707,#708,#709,#710,#711,#712,#713,#714,
    #715,#716,#717,#718,#719,#720,#721,#722,#723,#724,#725,#726,#727,
    #728,#729,#730,#731,#732,#733,#734,#735,#736,#737,#738,#739,#740,
    #741,#742,#743,#744,#745,#746,#747,#748,#749,#750,#751,#752,#753,
    #754,#755,#756,#757,#758,#759,#760,#761,#762,#763,#764,#765,#766,
    #767,#768,#769,#770,#771,#772,#773,#774,#775,#776,#777,#778,#779,
    #780,#781,#782,#783,#784,#785,#786,#787,#788,#789,#790,#791,#792,
    #793,#794,#795,#796,#797,#798,#799,#800,#801,#802,#803),
  .UNSPECIFIED.,.F.,.F.,(9,7,7,7,7,7,7,7,7,7,7,7,7,7,7,7,7,9),(0.,
    1.393884110799E-02,2.496412374575E-02,4.469279565365E-02,
    6.928100997562E-02,0.16358509298,0.29191367743,0.458216841818,
    0.501034817919,0.539110976708,0.574827255743,0.625079447769,
    0.744588590416,0.841972972557,0.91695177531,0.96427412287,
    0.98379601564,1.),.UNSPECIFIED.);
#683 = CARTESIAN_POINT('',(0.,30.473720558371));
#684 = CARTESIAN_POINT('',(2.336225931484E-02,30.473720558371));
#685 = CARTESIAN_POINT('',(4.665892565737E-02,30.478342074078));
#686 = CARTESIAN_POINT('',(6.9813003165E-02,30.487539621583));
#687 = CARTESIAN_POINT('',(9.274694094206E-02,30.501181914904));
#688 = CARTESIAN_POINT('',(0.11538139604,30.519051440373));
#689 = CARTESIAN_POINT('',(0.137633996439,30.540844031014));
#690 = CARTESIAN_POINT('',(0.159418104027,30.566168440935));
#691 = CARTESIAN_POINT('',(0.197428826441,30.616991811844));
#692 = CARTESIAN_POINT('',(0.213903106253,30.641398197797));
#693 = CARTESIAN_POINT('',(0.230066830226,30.667611649692));
#694 = CARTESIAN_POINT('',(0.245922321696,30.695484140225));
#695 = CARTESIAN_POINT('',(0.261471814125,30.724873042663));
#696 = CARTESIAN_POINT('',(0.276717451105,30.755641130845));
#697 = CARTESIAN_POINT('',(0.291661286356,30.787656579181));
#698 = CARTESIAN_POINT('',(0.332509293999,30.880087300872));
#699 = CARTESIAN_POINT('',(0.357794043389,30.943062243654));
#700 = CARTESIAN_POINT('',(0.382211485471,31.009115431906));
#701 = CARTESIAN_POINT('',(0.405815676961,31.077747877428));
#702 = CARTESIAN_POINT('',(0.428663219204,31.14856099128));
#703 = CARTESIAN_POINT('',(0.450813699653,31.221253612151));
#704 = CARTESIAN_POINT('',(0.472330133357,31.295619034729));
#705 = CARTESIAN_POINT('',(0.519388874447,31.466166303031));
#706 = CARTESIAN_POINT('',(0.544623639431,31.563232831807));
#707 = CARTESIAN_POINT('',(0.569042259729,31.662269184215));
#708 = CARTESIAN_POINT('',(0.592705080621,31.762912591313));
#709 = CARTESIAN_POINT('',(0.615674615258,31.864905967561));
#710 = CARTESIAN_POINT('',(0.638015927575,31.968093922986));
#711 = CARTESIAN_POINT('',(0.659797015218,32.072418775342));
#712 = CARTESIAN_POINT('',(0.762751863189,32.582536105804));
#713 = CARTESIAN_POINT('',(0.838141884626,33.008966350892));
#714 = CARTESIAN_POINT('',(0.908158969791,33.445924188698));
#715 = CARTESIAN_POINT('',(0.973610711473,33.88681713624));
#716 = CARTESIAN_POINT('',(1.035311600896,34.32870832347));
#717 = CARTESIAN_POINT('',(1.094139237525,34.771972642953));
#718 = CARTESIAN_POINT('',(1.151053919195,35.220068093551));
#719 = CARTESIAN_POINT('',(1.283338464502,36.303149797298));
#720 = CARTESIAN_POINT('',(1.356510971294,36.935389766166));
#721 = CARTESIAN_POINT('',(1.42720058006,37.57172403932));
#722 = CARTESIAN_POINT('',(1.49593887976,38.210038450682));
#723 = CARTESIAN_POINT('',(1.563249064719,38.849606888284));
#724 = CARTESIAN_POINT('',(1.629658993008,39.490681700779));
#725 = CARTESIAN_POINT('',(1.695705477114,40.134021363765));
#726 = CARTESIAN_POINT('',(1.847827820724,41.617966271245));
#727 = CARTESIAN_POINT('',(1.931032197201,42.431197400184));
#728 = CARTESIAN_POINT('',(2.014338971425,43.236237616968));
#729 = CARTESIAN_POINT('',(2.100236072612,44.04870984499));
#730 = CARTESIAN_POINT('',(2.190838957721,44.876256350499));
#731 = CARTESIAN_POINT('',(2.28789603959,45.713876420525));
#732 = CARTESIAN_POINT('',(2.392940420274,46.538840123037));
#733 = CARTESIAN_POINT('',(2.537309956636,47.500179828685));
#734 = CARTESIAN_POINT('',(2.567481914893,47.69277230931));
#735 = CARTESIAN_POINT('',(2.598741330434,47.883304729413));
#736 = CARTESIAN_POINT('',(2.631511905216,48.072799903521));
#737 = CARTESIAN_POINT('',(2.666157974586,48.26100745821));
#738 = CARTESIAN_POINT('',(2.702987157044,48.44632026665));
#739 = CARTESIAN_POINT('',(2.742263269011,48.625719613907));
#740 = CARTESIAN_POINT('',(2.821548247686,48.945059637203));
#741 = CARTESIAN_POINT('',(2.86538152122,49.104841002335));
#742 = CARTESIAN_POINT('',(2.91457022553,49.258692383425));
#743 = CARTESIAN_POINT('',(2.96834220536,49.392590005281));
#744 = CARTESIAN_POINT('',(3.026130889113,49.493714096591));
#745 = CARTESIAN_POINT('',(3.087525087388,49.55043917627));
#746 = CARTESIAN_POINT('',(3.152248466557,49.552377307712));
#747 = CARTESIAN_POINT('',(3.283809166414,49.432256278191));
#748 = CARTESIAN_POINT('',(3.341275481422,49.326084213573));
#749 = CARTESIAN_POINT('',(3.393091053329,49.190252376347));
#750 = CARTESIAN_POINT('',(3.439824460818,49.038213635715));
#751 = CARTESIAN_POINT('',(3.482144496964,48.87865467225));
#752 = CARTESIAN_POINT('',(3.520946004743,48.715468137365));
#753 = CARTESIAN_POINT('',(3.557422112723,48.54778234204));
#754 = CARTESIAN_POINT('',(3.643044743589,48.120554813581));
#755 = CARTESIAN_POINT('',(3.689839294004,47.858724054712));
#756 = CARTESIAN_POINT('',(3.733706461937,47.591023197664));
#757 = CARTESIAN_POINT('',(3.774996305947,47.321402963203));
#758 = CARTESIAN_POINT('',(3.814115528385,47.051643998785));
#759 = CARTESIAN_POINT('',(3.851546175327,46.781511713124));
#760 = CARTESIAN_POINT('',(3.88784835024,46.508958562413));
#761 = CARTESIAN_POINT('',(4.008782708862,45.567846917704));
#762 = CARTESIAN_POINT('',(4.089166229339,44.886032284726));
#763 = CARTESIAN_POINT('',(4.165648639503,44.199624982067));
#764 = CARTESIAN_POINT('',(4.239039686318,43.515723032026));
#765 = CARTESIAN_POINT('',(4.310196544462,42.836017681543));
#766 = CARTESIAN_POINT('',(4.380054491832,42.158460262885));
#767 = CARTESIAN_POINT('',(4.449626880332,41.47878479572));
#768 = CARTESIAN_POINT('',(4.57734826254,40.232841722196));
#769 = CARTESIAN_POINT('',(4.634596655059,39.675031332684));
#770 = CARTESIAN_POINT('',(4.69208961651,39.118640190419));
#771 = CARTESIAN_POINT('',(4.750157711311,38.563434145731));
#772 = CARTESIAN_POINT('',(4.809123237023,38.009388908167));
#773 = CARTESIAN_POINT('',(4.869306993124,37.456910375501));
#774 = CARTESIAN_POINT('',(4.931038050095,36.907025430271));
#775 = CARTESIAN_POINT('',(5.043655754026,35.94156205942));
#776 = CARTESIAN_POINT('',(5.093495693824,35.526545957082));
#777 = CARTESIAN_POINT('',(5.144665606159,35.114328286807));
#778 = CARTESIAN_POINT('',(5.197621858837,34.703713194181));
#779 = CARTESIAN_POINT('',(5.252797888014,34.294609529788));
#780 = CARTESIAN_POINT('',(5.310613630577,33.888193101114));
#781 = CARTESIAN_POINT('',(5.371494420361,33.487097226979));
#782 = CARTESIAN_POINT('',(5.476548068537,32.848560795282));
#783 = CARTESIAN_POINT('',(5.518285022162,32.607244803025));
#784 = CARTESIAN_POINT('',(5.561731328557,32.369368248901));
#785 = CARTESIAN_POINT('',(5.60745440145,32.134041670994));
#786 = CARTESIAN_POINT('',(5.655974843731,31.90188575795));
#787 = CARTESIAN_POINT('',(5.707766383093,31.675135820053));
#788 = CARTESIAN_POINT('',(5.763269074211,31.457783439467));
#789 = CARTESIAN_POINT('',(5.847550393336,31.172436555819));
#790 = CARTESIAN_POINT('',(5.872976455141,31.091363282861));
#791 = CARTESIAN_POINT('',(5.899310318047,31.012825207963));
#792 = CARTESIAN_POINT('',(5.926642338681,30.93725522515));
#793 = CARTESIAN_POINT('',(5.955056826144,30.865251242095));
#794 = CARTESIAN_POINT('',(5.984632632616,30.797581778412));
#795 = CARTESIAN_POINT('',(6.015444599368,30.735192267161));
#796 = CARTESIAN_POINT('',(6.07422784126,30.632746154955));
#797 = CARTESIAN_POINT('',(6.10200983112,30.590316012966));
#798 = CARTESIAN_POINT('',(6.130733383853,30.553124516697));
#799 = CARTESIAN_POINT('',(6.160236607162,30.522170279484));
#800 = CARTESIAN_POINT('',(6.190370716838,30.498251130079));
#801 = CARTESIAN_POINT('',(6.220996253171,30.481966763614));
#802 = CARTESIAN_POINT('',(6.251978957253,30.473720558371));
#803 = CARTESIAN_POINT('',(6.28318530718,30.473720558371));
#804 = ( GEOMETRIC_REPRESENTATION_CONTEXT(2) 
PARAMETRIC_REPRESENTATION_CONTEXT() REPRESENTATION_CONTEXT('2D SPACE',''
  ) );
#805 = ADVANCED_FACE('',(#806,#809),#66,.T.);
#806 = FACE_BOUND('',#807,.T.);
#807 = EDGE_LOOP('',(#808));
#808 = ORIENTED_EDGE('',*,*,#51,.T.);
#809 = FACE_BOUND('',#810,.T.);
#810 = EDGE_LOOP('',(#811));
#811 = ORIENTED_EDGE('',*,*,#812,.F.);
#812 = EDGE_CURVE('',#813,#813,#815,.T.);
#813 = VERTEX_POINT('',#814);
#814 = CARTESIAN_POINT('',(299.52543824457,83.400635094611,65.6347148581
    ));
#815 = SURFACE_CURVE('',#816,(#821,#828),.PCURVE_S1.);
#816 = CIRCLE('',#817,8.5);
#817 = AXIS2_PLACEMENT_3D('',#818,#819,#820);
#818 = CARTESIAN_POINT('',(299.52543824457,87.650635094611,
    58.273498925933));
#819 = DIRECTION('',(0.,0.866025403784,0.5));
#820 = DIRECTION('',(0.,-0.5,0.866025403784));
#821 = PCURVE('',#66,#822);
#822 = DEFINITIONAL_REPRESENTATION('',(#823),#827);
#823 = CIRCLE('',#824,8.5);
#824 = AXIS2_PLACEMENT_2D('',#825,#826);
#825 = CARTESIAN_POINT('',(0.,0.));
#826 = DIRECTION('',(1.,0.));
#827 = ( GEOMETRIC_REPRESENTATION_CONTEXT(2) 
PARAMETRIC_REPRESENTATION_CONTEXT() REPRESENTATION_CONTEXT('2D SPACE',''
  ) );
#828 = PCURVE('',#829,#834);
#829 = CONICAL_SURFACE('',#830,7.,0.785398163397);
#830 = AXIS2_PLACEMENT_3D('',#831,#832,#833);
#831 = CARTESIAN_POINT('',(299.52543824457,86.351596988934,
    57.523498925933));
#832 = DIRECTION('',(0.,0.866025403784,0.5));
#833 = DIRECTION('',(0.,-0.5,0.866025403784));
#834 = DEFINITIONAL_REPRESENTATION('',(#835),#839);
#835 = LINE('',#836,#837);
#836 = CARTESIAN_POINT('',(0.,1.5));
#837 = VECTOR('',#838,1.);
#838 = DIRECTION('',(1.,0.));
#839 = ( GEOMETRIC_REPRESENTATION_CONTEXT(2) 
PARAMETRIC_REPRESENTATION_CONTEXT() REPRESENTATION_CONTEXT('2D SPACE',''
  ) );
#840 = ADVANCED_FACE('',(#841),#676,.F.);
#841 = FACE_BOUND('',#842,.F.);
#842 = EDGE_LOOP('',(#843,#866,#893,#894));
#843 = ORIENTED_EDGE('',*,*,#844,.T.);
#844 = EDGE_CURVE('',#425,#845,#847,.T.);
#845 = VERTEX_POINT('',#846);
#846 = CARTESIAN_POINT('',(299.52543824457,76.240381056767,
    58.036638646747));
#847 = SEAM_CURVE('',#848,(#852,#859),.PCURVE_S1.);
#848 = LINE('',#849,#850);
#849 = CARTESIAN_POINT('',(299.52543824457,28.608983848622,
    30.536638646747));
#850 = VECTOR('',#851,1.);
#851 = DIRECTION('',(0.,0.866025403784,0.5));
#852 = PCURVE('',#676,#853);
#853 = DEFINITIONAL_REPRESENTATION('',(#854),#858);
#854 = LINE('',#855,#856);
#855 = CARTESIAN_POINT('',(6.28318530718,-0.));
#856 = VECTOR('',#857,1.);
#857 = DIRECTION('',(0.,1.));
#858 = ( GEOMETRIC_REPRESENTATION_CONTEXT(2) 
PARAMETRIC_REPRESENTATION_CONTEXT() REPRESENTATION_CONTEXT('2D SPACE',''
  ) );
#859 = PCURVE('',#676,#860);
#860 = DEFINITIONAL_REPRESENTATION('',(#861),#865);
#861 = LINE('',#862,#863);
#862 = CARTESIAN_POINT('',(0.,-0.));
#863 = VECTOR('',#864,1.);
#864 = DIRECTION('',(0.,1.));
#865 = ( GEOMETRIC_REPRESENTATION_CONTEXT(2) 
PARAMETRIC_REPRESENTATION_CONTEXT() REPRESENTATION_CONTEXT('2D SPACE',''
  ) );
#866 = ORIENTED_EDGE('',*,*,#867,.F.);
#867 = EDGE_CURVE('',#845,#845,#868,.T.);
#868 = SURFACE_CURVE('',#869,(#874,#881),.PCURVE_S1.);
#869 = CIRCLE('',#870,5.5);
#870 = AXIS2_PLACEMENT_3D('',#871,#872,#873);
#871 = CARTESIAN_POINT('',(299.52543824457,78.990381056767,
    53.273498925933));
#872 = DIRECTION('',(0.,0.866025403784,0.5));
#873 = DIRECTION('',(0.,-0.5,0.866025403784));
#874 = PCURVE('',#676,#875);
#875 = DEFINITIONAL_REPRESENTATION('',(#876),#880);
#876 = LINE('',#877,#878);
#877 = CARTESIAN_POINT('',(0.,55.));
#878 = VECTOR('',#879,1.);
#879 = DIRECTION('',(1.,0.));
#880 = ( GEOMETRIC_REPRESENTATION_CONTEXT(2) 
PARAMETRIC_REPRESENTATION_CONTEXT() REPRESENTATION_CONTEXT('2D SPACE',''
  ) );
#881 = PCURVE('',#882,#887);
#882 = PLANE('',#883);
#883 = AXIS2_PLACEMENT_3D('',#884,#885,#886);
#884 = CARTESIAN_POINT('',(299.52543824457,78.990381056767,
    53.273498925933));
#885 = DIRECTION('',(0.,0.866025403784,0.5));
#886 = DIRECTION('',(0.,-0.5,0.866025403784));
#887 = DEFINITIONAL_REPRESENTATION('',(#888),#892);
#888 = CIRCLE('',#889,5.5);
#889 = AXIS2_PLACEMENT_2D('',#890,#891);
#890 = CARTESIAN_POINT('',(6.153480596427E-15,0.));
#891 = DIRECTION('',(1.,0.));
#892 = ( GEOMETRIC_REPRESENTATION_CONTEXT(2) 
PARAMETRIC_REPRESENTATION_CONTEXT() REPRESENTATION_CONTEXT('2D SPACE',''
  ) );
#893 = ORIENTED_EDGE('',*,*,#844,.F.);
#894 = ORIENTED_EDGE('',*,*,#424,.T.);
#895 = ADVANCED_FACE('',(#896),#829,.F.);
#896 = FACE_BOUND('',#897,.F.);
#897 = EDGE_LOOP('',(#898,#899,#922,#949));
#898 = ORIENTED_EDGE('',*,*,#812,.F.);
#899 = ORIENTED_EDGE('',*,*,#900,.F.);
#900 = EDGE_CURVE('',#901,#813,#903,.T.);
#901 = VERTEX_POINT('',#902);
#902 = CARTESIAN_POINT('',(299.52543824457,82.851596988934,
    63.585676752424));
#903 = SEAM_CURVE('',#904,(#908,#915),.PCURVE_S1.);
#904 = LINE('',#905,#906);
#905 = CARTESIAN_POINT('',(299.52543824457,82.851596988934,
    63.585676752424));
#906 = VECTOR('',#907,1.);
#907 = DIRECTION('',(-1.731912112471E-16,0.258819045103,0.965925826289)
  );
#908 = PCURVE('',#829,#909);
#909 = DEFINITIONAL_REPRESENTATION('',(#910),#914);
#910 = LINE('',#911,#912);
#911 = CARTESIAN_POINT('',(6.28318530718,-0.));
#912 = VECTOR('',#913,1.);
#913 = DIRECTION('',(0.,1.));
#914 = ( GEOMETRIC_REPRESENTATION_CONTEXT(2) 
PARAMETRIC_REPRESENTATION_CONTEXT() REPRESENTATION_CONTEXT('2D SPACE',''
  ) );
#915 = PCURVE('',#829,#916);
#916 = DEFINITIONAL_REPRESENTATION('',(#917),#921);
#917 = LINE('',#918,#919);
#918 = CARTESIAN_POINT('',(0.,-0.));
#919 = VECTOR('',#920,1.);
#920 = DIRECTION('',(0.,1.));
#921 = ( GEOMETRIC_REPRESENTATION_CONTEXT(2) 
PARAMETRIC_REPRESENTATION_CONTEXT() REPRESENTATION_CONTEXT('2D SPACE',''
  ) );
#922 = ORIENTED_EDGE('',*,*,#923,.T.);
#923 = EDGE_CURVE('',#901,#901,#924,.T.);
#924 = SURFACE_CURVE('',#925,(#930,#937),.PCURVE_S1.);
#925 = CIRCLE('',#926,7.);
#926 = AXIS2_PLACEMENT_3D('',#927,#928,#929);
#927 = CARTESIAN_POINT('',(299.52543824457,86.351596988934,
    57.523498925933));
#928 = DIRECTION('',(0.,0.866025403784,0.5));
#929 = DIRECTION('',(0.,-0.5,0.866025403784));
#930 = PCURVE('',#829,#931);
#931 = DEFINITIONAL_REPRESENTATION('',(#932),#936);
#932 = LINE('',#933,#934);
#933 = CARTESIAN_POINT('',(0.,0.));
#934 = VECTOR('',#935,1.);
#935 = DIRECTION('',(1.,0.));
#936 = ( GEOMETRIC_REPRESENTATION_CONTEXT(2) 
PARAMETRIC_REPRESENTATION_CONTEXT() REPRESENTATION_CONTEXT('2D SPACE',''
  ) );
#937 = PCURVE('',#938,#943);
#938 = CYLINDRICAL_SURFACE('',#939,7.);
#939 = AXIS2_PLACEMENT_3D('',#940,#941,#942);
#940 = CARTESIAN_POINT('',(299.52543824457,78.990381056767,
    53.273498925933));
#941 = DIRECTION('',(0.,0.866025403784,0.5));
#942 = DIRECTION('',(0.,-0.5,0.866025403784));
#943 = DEFINITIONAL_REPRESENTATION('',(#944),#948);
#944 = LINE('',#945,#946);
#945 = CARTESIAN_POINT('',(0.,8.5));
#946 = VECTOR('',#947,1.);
#947 = DIRECTION('',(1.,0.));
#948 = ( GEOMETRIC_REPRESENTATION_CONTEXT(2) 
PARAMETRIC_REPRESENTATION_CONTEXT() REPRESENTATION_CONTEXT('2D SPACE',''
  ) );
#949 = ORIENTED_EDGE('',*,*,#900,.T.);
#950 = ADVANCED_FACE('',(#951,#977),#882,.T.);
#951 = FACE_BOUND('',#952,.T.);
#952 = EDGE_LOOP('',(#953));
#953 = ORIENTED_EDGE('',*,*,#954,.T.);
#954 = EDGE_CURVE('',#955,#955,#957,.T.);
#955 = VERTEX_POINT('',#956);
#956 = CARTESIAN_POINT('',(299.52543824457,75.490381056767,
    59.335676752424));
#957 = SURFACE_CURVE('',#958,(#963,#970),.PCURVE_S1.);
#958 = CIRCLE('',#959,7.);
#959 = AXIS2_PLACEMENT_3D('',#960,#961,#962);
#960 = CARTESIAN_POINT('',(299.52543824457,78.990381056767,
    53.273498925933));
#961 = DIRECTION('',(0.,0.866025403784,0.5));
#962 = DIRECTION('',(0.,-0.5,0.866025403784));
#963 = PCURVE('',#882,#964);
#964 = DEFINITIONAL_REPRESENTATION('',(#965),#969);
#965 = CIRCLE('',#966,7.);
#966 = AXIS2_PLACEMENT_2D('',#967,#968);
#967 = CARTESIAN_POINT('',(0.,0.));
#968 = DIRECTION('',(1.,0.));
#969 = ( GEOMETRIC_REPRESENTATION_CONTEXT(2) 
PARAMETRIC_REPRESENTATION_CONTEXT() REPRESENTATION_CONTEXT('2D SPACE',''
  ) );
#970 = PCURVE('',#938,#971);
#971 = DEFINITIONAL_REPRESENTATION('',(#972),#976);
#972 = LINE('',#973,#974);
#973 = CARTESIAN_POINT('',(0.,0.));
#974 = VECTOR('',#975,1.);
#975 = DIRECTION('',(1.,0.));
#976 = ( GEOMETRIC_REPRESENTATION_CONTEXT(2) 
PARAMETRIC_REPRESENTATION_CONTEXT() REPRESENTATION_CONTEXT('2D SPACE',''
  ) );
#977 = FACE_BOUND('',#978,.T.);
#978 = EDGE_LOOP('',(#979));
#979 = ORIENTED_EDGE('',*,*,#867,.F.);
#980 = ADVANCED_FACE('',(#981),#938,.F.);
#981 = FACE_BOUND('',#982,.F.);
#982 = EDGE_LOOP('',(#983,#984,#1005,#1006));
#983 = ORIENTED_EDGE('',*,*,#923,.F.);
#984 = ORIENTED_EDGE('',*,*,#985,.F.);
#985 = EDGE_CURVE('',#955,#901,#986,.T.);
#986 = SEAM_CURVE('',#987,(#991,#998),.PCURVE_S1.);
#987 = LINE('',#988,#989);
#988 = CARTESIAN_POINT('',(299.52543824457,75.490381056767,
    59.335676752424));
#989 = VECTOR('',#990,1.);
#990 = DIRECTION('',(0.,0.866025403784,0.5));
#991 = PCURVE('',#938,#992);
#992 = DEFINITIONAL_REPRESENTATION('',(#993),#997);
#993 = LINE('',#994,#995);
#994 = CARTESIAN_POINT('',(6.28318530718,-0.));
#995 = VECTOR('',#996,1.);
#996 = DIRECTION('',(0.,1.));
#997 = ( GEOMETRIC_REPRESENTATION_CONTEXT(2) 
PARAMETRIC_REPRESENTATION_CONTEXT() REPRESENTATION_CONTEXT('2D SPACE',''
  ) );
#998 = PCURVE('',#938,#999);
#999 = DEFINITIONAL_REPRESENTATION('',(#1000),#1004);
#1000 = LINE('',#1001,#1002);
#1001 = CARTESIAN_POINT('',(0.,-0.));
#1002 = VECTOR('',#1003,1.);
#1003 = DIRECTION('',(0.,1.));
#1004 = ( GEOMETRIC_REPRESENTATION_CONTEXT(2) 
PARAMETRIC_REPRESENTATION_CONTEXT() REPRESENTATION_CONTEXT('2D SPACE',''
  ) );
#1005 = ORIENTED_EDGE('',*,*,#954,.T.);
#1006 = ORIENTED_EDGE('',*,*,#985,.T.);
#1007 = ( GEOMETRIC_REPRESENTATION_CONTEXT(3) 
GLOBAL_UNCERTAINTY_ASSIGNED_CONTEXT((#1011)) 
GLOBAL_UNIT_ASSIGNED_CONTEXT((#1008,#1009,#1010)) REPRESENTATION_CONTEXT
('Context #1','3D Context with UNIT and UNCERTAINTY') );
#1008 = ( LENGTH_UNIT() NAMED_UNIT(*) SI_UNIT(.MILLI.,.METRE.) );
#1009 = ( NAMED_UNIT(*) PLANE_ANGLE_UNIT() SI_UNIT($,.RADIAN.) );
#1010 = ( NAMED_UNIT(*) SI_UNIT($,.STERADIAN.) SOLID_ANGLE_UNIT() );
#1011 = UNCERTAINTY_MEASURE_WITH_UNIT(LENGTH_MEASURE(1.E-07),#1008,
  'distance_accuracy_value','confusion accuracy');
#1012 = PRODUCT_RELATED_PRODUCT_CATEGORY('part',$,(#7));
ENDSEC;
END-ISO-10303-21;
