ISO-10303-21;
HEADER;
FILE_DESCRIPTION(('Open CASCADE Model'),'2;1');
FILE_NAME('Open CASCADE Shape Model','2026-10-04T18:34:10',('Author'),(
    'Open CASCADE'),'Open CASCADE STEP processor 7.9','Open CASCADE 7.9'
  ,'Unknown');
FILE_SCHEMA(('AUTOMOTIVE_DESIGN { 1 0 10303 214 1 1 1 1 }'));
ENDSEC;
DATA;
#1 = APPLICATION_PROTOCOL_DEFINITION('international standard',
  'automotive_design',2000,#2);
#2 = APPLICATION_CONTEXT(
  'core data for automotive mechanical design processes');
#3 = SHAPE_DEFINITION_REPRESENTATION(#4,#10);
#4 = PRODUCT_DEFINITION_SHAPE('','',#5);
#5 = PRODUCT_DEFINITION('design','',#6,#9);
#6 = PRODUCT_DEFINITION_FORMATION('','',#7);
#7 = PRODUCT('Open CASCADE STEP translator 7.9 19',
  'Open CASCADE STEP translator 7.9 19','',(#8));
#8 = PRODUCT_CONTEXT('',#2,'mechanical');
#9 = PRODUCT_DEFINITION_CONTEXT('part definition',#2,'design');
#10 = ADVANCED_BREP_SHAPE_REPRESENTATION('',(#11,#15),#838);
#11 = AXIS2_PLACEMENT_3D('',#12,#13,#14);
#12 = CARTESIAN_POINT('',(0.,0.,0.));
#13 = DIRECTION('',(0.,0.,1.));
#14 = DIRECTION('',(1.,0.,-0.));
#15 = MANIFOLD_SOLID_BREP('',#16);
#16 = CLOSED_SHELL('',(#17,#458,#777,#811));
#17 = ADVANCED_FACE('',(#18),#148,.T.);
#18 = FACE_BOUND('',#19,.F.);
#19 = EDGE_LOOP('',(#20,#407,#430,#457));
#20 = ORIENTED_EDGE('',*,*,#21,.F.);
#21 = EDGE_CURVE('',#22,#22,#24,.T.);
#22 = VERTEX_POINT('',#23);
#23 = CARTESIAN_POINT('',(224.34143824457,230.99560952102,
    67.998498925932));
#24 = SURFACE_CURVE('',#25,(#147,#277),.PCURVE_S1.);
#25 = B_SPLINE_CURVE_WITH_KNOTS('',8,(#26,#27,#28,#29,#30,#31,#32,#33,
    #34,#35,#36,#37,#38,#39,#40,#41,#42,#43,#44,#45,#46,#47,#48,#49,#50,
    #51,#52,#53,#54,#55,#56,#57,#58,#59,#60,#61,#62,#63,#64,#65,#66,#67,
    #68,#69,#70,#71,#72,#73,#74,#75,#76,#77,#78,#79,#80,#81,#82,#83,#84,
    #85,#86,#87,#88,#89,#90,#91,#92,#93,#94,#95,#96,#97,#98,#99,#100,
    #101,#102,#103,#104,#105,#106,#107,#108,#109,#110,#111,#112,#113,
    #114,#115,#116,#117,#118,#119,#120,#121,#122,#123,#124,#125,#126,
    #127,#128,#129,#130,#131,#132,#133,#134,#135,#136,#137,#138,#139,
    #140,#141,#142,#143,#144,#145,#146),.UNSPECIFIED.,.T.,.F.,(9,7,7,7,7
    ,7,7,7,7,7,7,7,7,7,7,7,7,9),(0.,4.285108021821E-02,
    7.134118051431E-02,0.1090328865,0.140330793333,0.189136452812,
    0.249177592368,0.358221414344,0.457447479077,0.542548057683,
    0.641774122417,0.749792144884,0.810860258731,0.859666783596,
    0.890965246287,0.928657621685,0.95714822797,1.),.UNSPECIFIED.);
#26 = CARTESIAN_POINT('',(224.34143824457,230.99560952102,
    67.998498925933));
#27 = CARTESIAN_POINT('',(224.34143824457,231.51853136177,
    67.998498925933));
#28 = CARTESIAN_POINT('',(224.31683099268,232.0407182862,67.992347176965
    ));
#29 = CARTESIAN_POINT('',(224.26773786388,232.55977950728,
    67.980073736762));
#30 = CARTESIAN_POINT('',(224.19464216014,233.07334437242,67.96186245928
    ));
#31 = CARTESIAN_POINT('',(224.09838506073,233.57909259509,
    67.938047102926));
#32 = CARTESIAN_POINT('',(223.98016371327,234.07478412526,
    67.909098676175));
#33 = CARTESIAN_POINT('',(223.84153146545,234.55828865847,67.87560402056
    ));
#34 = CARTESIAN_POINT('',(223.57992948848,235.33965238712,
    67.813390769249));
#35 = CARTESIAN_POINT('',(223.46718308615,235.64571602596,
    67.786810185072));
#36 = CARTESIAN_POINT('',(223.34656676815,235.94558544508,
    67.758655317715));
#37 = CARTESIAN_POINT('',(223.21849065915,236.23905897721,
    67.729090927824));
#38 = CARTESIAN_POINT('',(223.08336956581,236.52595350818,
    67.698283522404));
#39 = CARTESIAN_POINT('',(222.94162327185,236.80610444227,
    67.666399779737));
#40 = CARTESIAN_POINT('',(222.79367683312,237.07936566751,
    67.633604974307));
#41 = CARTESIAN_POINT('',(222.43659841593,237.69784362838,
    67.555684075457));
#42 = CARTESIAN_POINT('',(222.22309347287,238.03787228657,
    67.509986412129));
#43 = CARTESIAN_POINT('',(222.00024981789,238.36571193957,
    67.463303397841));
#44 = CARTESIAN_POINT('',(221.76881741671,238.68140968419,
    67.415949630524));
#45 = CARTESIAN_POINT('',(221.5294956883,238.98503893056,67.368219030643
    ));
#46 = CARTESIAN_POINT('',(221.28293676687,239.27669506267,67.32038455191
    ));
#47 = CARTESIAN_POINT('',(221.02974876383,239.55649109889,
    67.272697892002));
#48 = CARTESIAN_POINT('',(220.55522689476,240.04714310318,
    67.186105682039));
#49 = CARTESIAN_POINT('',(220.33573827833,240.26168070448,
    67.147076111334));
#50 = CARTESIAN_POINT('',(220.11232420402,240.46826524442,
    67.108427093021));
#51 = CARTESIAN_POINT('',(219.88525575623,240.66699488203,
    67.070275975127));
#52 = CARTESIAN_POINT('',(219.65478408729,240.85796688765,67.03273120037
    ));
#53 = CARTESIAN_POINT('',(219.42114042452,241.04127768329,
    66.995892654675));
#54 = CARTESIAN_POINT('',(219.18453607718,241.2170228829,66.959852015707
    ));
#55 = CARTESIAN_POINT('',(218.57188546652,241.647702916,66.869866623404)
  );
#56 = CARTESIAN_POINT('',(218.19185507801,241.89195508176,
    66.817181533417));
#57 = CARTESIAN_POINT('',(217.80583637035,242.11837909605,
    66.766962282005));
#58 = CARTESIAN_POINT('',(217.41451011668,242.3272814262,66.719491286755
    ));
#59 = CARTESIAN_POINT('',(217.01848277108,242.51894548521,66.67501290707
    ));
#60 = CARTESIAN_POINT('',(216.61829646863,242.69362737626,
    66.633737418973));
#61 = CARTESIAN_POINT('',(216.21443902552,242.85155163707,
    66.595844989908));
#62 = CARTESIAN_POINT('',(215.30655438549,243.16680354128,
    66.519225425027));
#63 = CARTESIAN_POINT('',(214.80089335763,243.3156164785,66.482316102044
    ));
#64 = CARTESIAN_POINT('',(214.29129266028,243.43966802921,
    66.451055169066));
#65 = CARTESIAN_POINT('',(213.77859920946,243.53921886533,
    66.425670784107));
#66 = CARTESIAN_POINT('',(213.26360228193,243.61446736851,
    66.406331242194));
#67 = CARTESIAN_POINT('',(212.74705070602,243.66554816772,
    66.393148898835));
#68 = CARTESIAN_POINT('',(212.22966999393,243.69252994358,
    66.386182553504));
#69 = CARTESIAN_POINT('',(210.77233798455,243.70064765792,
    66.384086603359));
#70 = CARTESIAN_POINT('',(209.83292401465,243.62639039085,
    66.403258780425));
#71 = CARTESIAN_POINT('',(208.89785468554,243.47287107969,
    66.442931261207));
#72 = CARTESIAN_POINT('',(207.97120391877,243.23940718986,
    66.502549300568));
#73 = CARTESIAN_POINT('',(207.05748501683,242.92450295555,
    66.581010847402));
#74 = CARTESIAN_POINT('',(206.16201191228,242.52594251649,
    66.676568994349));
#75 = CARTESIAN_POINT('',(205.29135532758,242.04089091197,
    66.786671918682));
#76 = CARTESIAN_POINT('',(203.69186431733,240.9429024878,67.01794445237)
  );
#77 = CARTESIAN_POINT('',(202.95437331099,240.34338861747,
    67.137650706152));
#78 = CARTESIAN_POINT('',(202.24919685701,239.66468483502,
    67.264168925016));
#79 = CARTESIAN_POINT('',(201.58559373098,238.9042986076,67.393897491176
    ));
#80 = CARTESIAN_POINT('',(200.97455492283,238.06038712782,67.52224795215
    ));
#81 = CARTESIAN_POINT('',(200.42902009795,237.13209521107,67.64356653054
    ));
#82 = CARTESIAN_POINT('',(199.96424360093,236.12010400386,
    67.751250141539));
#83 = CARTESIAN_POINT('',(199.28477830205,234.09064862449,
    67.912838161191));
#84 = CARTESIAN_POINT('',(199.04372384812,233.09392544247,
    67.972260112464));
#85 = CARTESIAN_POINT('',(198.89238829018,232.05550408492,
    68.010730407953));
#86 = CARTESIAN_POINT('',(198.8408394538,230.99560952101,68.024078160106
    ));
#87 = CARTESIAN_POINT('',(198.89238829018,229.93571495713,
    68.010730407953));
#88 = CARTESIAN_POINT('',(199.04372384812,228.89729359955,
    67.972260112464));
#89 = CARTESIAN_POINT('',(199.28477830205,227.90057041755,
    67.912838161192));
#90 = CARTESIAN_POINT('',(199.96424360093,225.87111503817,
    67.751250141539));
#91 = CARTESIAN_POINT('',(200.42902009795,224.85912383096,67.64356653054
    ));
#92 = CARTESIAN_POINT('',(200.97455492283,223.93083191421,67.52224795215
    ));
#93 = CARTESIAN_POINT('',(201.58559373097,223.08692043443,
    67.393897491176));
#94 = CARTESIAN_POINT('',(202.24919685701,222.32653420701,
    67.264168925016));
#95 = CARTESIAN_POINT('',(202.95437331099,221.64783042456,
    67.137650706152));
#96 = CARTESIAN_POINT('',(203.69186431732,221.04831655424,67.01794445237
    ));
#97 = CARTESIAN_POINT('',(205.28347729433,219.95573609376,
    66.787811013993));
#98 = CARTESIAN_POINT('',(206.14563215181,219.47441172722,
    66.678641757852));
#99 = CARTESIAN_POINT('',(207.03221080099,219.07799235633,66.58371269442
    ));
#100 = CARTESIAN_POINT('',(207.9368095901,218.76371509474,
    66.505513072826));
#101 = CARTESIAN_POINT('',(208.85424385165,218.52941148381,
    66.445754752428));
#102 = CARTESIAN_POINT('',(209.78011093611,218.37360656237,
    66.405526198046));
#103 = CARTESIAN_POINT('',(210.71044340714,218.29560952102,
    66.385387422767));
#104 = CARTESIAN_POINT('',(212.16777725194,218.29560952102,
    66.385387422767));
#105 = CARTESIAN_POINT('',(212.69408100351,218.32053939404,
    66.391824290495));
#106 = CARTESIAN_POINT('',(213.21959250347,218.37039311734,
    66.404696459443));
#107 = CARTESIAN_POINT('',(213.74354935459,218.44523835372,
    66.423945949092));
#108 = CARTESIAN_POINT('',(214.2651652316,218.5452132843,66.449457549587
    ));
#109 = CARTESIAN_POINT('',(214.78361128857,218.67052425358,
    66.481056302769));
#110 = CARTESIAN_POINT('',(215.29799750054,218.82144422647,
    66.518503279534));
#111 = CARTESIAN_POINT('',(216.2144390138,219.13966740089,
    66.595844988919));
#112 = CARTESIAN_POINT('',(216.61829647492,219.29759166987,
    66.633737419845));
#113 = CARTESIAN_POINT('',(217.01848278259,219.47227356187,
    66.675012908234));
#114 = CARTESIAN_POINT('',(217.41451011705,219.66393761436,
    66.719491286505));
#115 = CARTESIAN_POINT('',(217.80583635924,219.87283993932,
    66.766962280568));
#116 = CARTESIAN_POINT('',(218.19185507134,220.09926395765,
    66.817181532793));
#117 = CARTESIAN_POINT('',(218.57188547733,220.34351613363,
    66.869866624991));
#118 = CARTESIAN_POINT('',(219.18453607718,220.77419615913,
    66.959852015707));
#119 = CARTESIAN_POINT('',(219.42114042452,220.94994135874,
    66.995892654675));
#120 = CARTESIAN_POINT('',(219.65478408729,221.13325215438,
    67.03273120037));
#121 = CARTESIAN_POINT('',(219.88525575623,221.32422416001,
    67.070275975127));
#122 = CARTESIAN_POINT('',(220.11232420402,221.52295379762,
    67.108427093021));
#123 = CARTESIAN_POINT('',(220.33573827833,221.72953833755,
    67.147076111334));
#124 = CARTESIAN_POINT('',(220.55522689476,221.94407593885,
    67.186105682039));
#125 = CARTESIAN_POINT('',(221.02974876383,222.43472794314,
    67.272697892001));
#126 = CARTESIAN_POINT('',(221.28293676687,222.71452397936,
    67.32038455191));
#127 = CARTESIAN_POINT('',(221.52949568831,223.00618011148,
    67.368219030644));
#128 = CARTESIAN_POINT('',(221.76881741672,223.30980935785,
    67.415949630525));
#129 = CARTESIAN_POINT('',(222.00024981789,223.62550710246,
    67.463303397841));
#130 = CARTESIAN_POINT('',(222.22309347286,223.95334675546,
    67.509986412129));
#131 = CARTESIAN_POINT('',(222.43659841592,224.29337541364,
    67.555684075457));
#132 = CARTESIAN_POINT('',(222.79367683312,224.91185337452,
    67.633604974307));
#133 = CARTESIAN_POINT('',(222.94162327185,225.18511459976,
    67.666399779737));
#134 = CARTESIAN_POINT('',(223.08336956581,225.46526553385,
    67.698283522404));
#135 = CARTESIAN_POINT('',(223.21849065915,225.75216006482,
    67.729090927824));
#136 = CARTESIAN_POINT('',(223.34656676815,226.04563359695,
    67.758655317715));
#137 = CARTESIAN_POINT('',(223.46718308615,226.34550301607,
    67.786810185072));
#138 = CARTESIAN_POINT('',(223.57992948848,226.65156665491,
    67.813390769249));
#139 = CARTESIAN_POINT('',(223.84153121159,227.43292962532,
    67.875603960187));
#140 = CARTESIAN_POINT('',(223.98016356058,227.91643423539,
    67.909098638081));
#141 = CARTESIAN_POINT('',(224.09838514191,228.41212645601,
    67.938047121784));
#142 = CARTESIAN_POINT('',(224.19464243131,228.91787568358,
    67.961862526124));
#143 = CARTESIAN_POINT('',(224.26773817423,229.43144150297,
    67.980073814233));
#144 = CARTESIAN_POINT('',(224.31683117797,229.95050320354,
    67.992347223357));
#145 = CARTESIAN_POINT('',(224.34143824457,230.47268965186,
    67.998498925933));
#146 = CARTESIAN_POINT('',(224.34143824457,230.99560952102,
    67.998498925933));
#147 = PCURVE('',#148,#153);
#148 = CYLINDRICAL_SURFACE('',#149,12.7);
#149 = AXIS2_PLACEMENT_3D('',#150,#151,#152);
#150 = CARTESIAN_POINT('',(211.64143824457,230.99560952102,
    63.998498925933));
#151 = DIRECTION('',(-0.,-0.,-1.));
#152 = DIRECTION('',(1.,0.,0.));
#153 = DEFINITIONAL_REPRESENTATION('',(#154),#276);
#154 = B_SPLINE_CURVE_WITH_KNOTS('',8,(#155,#156,#157,#158,#159,#160,
    #161,#162,#163,#164,#165,#166,#167,#168,#169,#170,#171,#172,#173,
    #174,#175,#176,#177,#178,#179,#180,#181,#182,#183,#184,#185,#186,
    #187,#188,#189,#190,#191,#192,#193,#194,#195,#196,#197,#198,#199,
    #200,#201,#202,#203,#204,#205,#206,#207,#208,#209,#210,#211,#212,
    #213,#214,#215,#216,#217,#218,#219,#220,#221,#222,#223,#224,#225,
    #226,#227,#228,#229,#230,#231,#232,#233,#234,#235,#236,#237,#238,
    #239,#240,#241,#242,#243,#244,#245,#246,#247,#248,#249,#250,#251,
    #252,#253,#254,#255,#256,#257,#258,#259,#260,#261,#262,#263,#264,
    #265,#266,#267,#268,#269,#270,#271,#272,#273,#274,#275),
  .UNSPECIFIED.,.F.,.F.,(9,7,7,7,7,7,7,7,7,7,7,7,7,7,7,7,7,9),(0.,
    4.285108021821E-02,7.134118051431E-02,0.1090328865,0.140330793333,
    0.189136452812,0.249177592368,0.358221414344,0.457447479077,
    0.542548057683,0.641774122417,0.749792144884,0.810860258731,
    0.859666783596,0.890965246287,0.928657621685,0.95714822797,1.),
  .UNSPECIFIED.);
#155 = CARTESIAN_POINT('',(0.,-4.));
#156 = CARTESIAN_POINT('',(-4.117494809101E-02,-4.));
#157 = CARTESIAN_POINT('',(-8.229202623331E-02,-3.993848251032));
#158 = CARTESIAN_POINT('',(-0.123269369054,-3.98157481083));
#159 = CARTESIAN_POINT('',(-0.164025400665,-3.963363533347));
#160 = CARTESIAN_POINT('',(-0.204476298455,-3.939548176993));
#161 = CARTESIAN_POINT('',(-0.244533406293,-3.910599750243));
#162 = CARTESIAN_POINT('',(-0.284100597121,-3.877105094627));
#163 = CARTESIAN_POINT('',(-0.348981955139,-3.814891843316));
#164 = CARTESIAN_POINT('',(-0.374653153552,-3.78831125914));
#165 = CARTESIAN_POINT('',(-0.400085083363,-3.760156391783));
#166 = CARTESIAN_POINT('',(-0.425276897432,-3.730592001891));
#167 = CARTESIAN_POINT('',(-0.450226980143,-3.699784596471));
#168 = CARTESIAN_POINT('',(-0.474932929251,-3.667900853805));
#169 = CARTESIAN_POINT('',(-0.499391537726,-3.635106048374));
#170 = CARTESIAN_POINT('',(-0.555624359332,-3.557185149525));
#171 = CARTESIAN_POINT('',(-0.587216977565,-3.511487486197));
#172 = CARTESIAN_POINT('',(-0.61839607518,-3.464804471909));
#173 = CARTESIAN_POINT('',(-0.649179776984,-3.417450704592));
#174 = CARTESIAN_POINT('',(-0.679585077787,-3.36972010471));
#175 = CARTESIAN_POINT('',(-0.709628032492,-3.321885625978));
#176 = CARTESIAN_POINT('',(-0.739323946176,-3.274198966069));
#177 = CARTESIAN_POINT('',(-0.793070110851,-3.187606756106));
#178 = CARTESIAN_POINT('',(-0.817227716535,-3.148577185401));
#179 = CARTESIAN_POINT('',(-0.841172131704,-3.109928167088));
#180 = CARTESIAN_POINT('',(-0.864914465803,-3.071777049195));
#181 = CARTESIAN_POINT('',(-0.888465394585,-3.034232274437));
#182 = CARTESIAN_POINT('',(-0.911835367454,-2.997393728743));
#183 = CARTESIAN_POINT('',(-0.935034814802,-2.961353089774));
#184 = CARTESIAN_POINT('',(-0.994001996662,-2.871367697471));
#185 = CARTESIAN_POINT('',(-1.029542662426,-2.818682607485));
#186 = CARTESIAN_POINT('',(-1.064732332232,-2.768463356072));
#187 = CARTESIAN_POINT('',(-1.099605420722,-2.720992360822));
#188 = CARTESIAN_POINT('',(-1.134195114396,-2.676513981137));
#189 = CARTESIAN_POINT('',(-1.168533708419,-2.63523849304));
#190 = CARTESIAN_POINT('',(-1.202652943434,-2.597346063975));
#191 = CARTESIAN_POINT('',(-1.278327039438,-2.520726499094));
#192 = CARTESIAN_POINT('',(-1.319783478042,-2.483817176112));
#193 = CARTESIAN_POINT('',(-1.361004216839,-2.452556243133));
#194 = CARTESIAN_POINT('',(-1.402037496913,-2.427171858175));
#195 = CARTESIAN_POINT('',(-1.442930152574,-2.407832316262));
#196 = CARTESIAN_POINT('',(-1.483728357369,-2.394649972902));
#197 = CARTESIAN_POINT('',(-1.524478205267,-2.387683627572));
#198 = CARTESIAN_POINT('',(-1.6392305374,-2.385587677426));
#199 = CARTESIAN_POINT('',(-1.713166385504,-2.404759854492));
#200 = CARTESIAN_POINT('',(-1.787343150066,-2.444432335274));
#201 = CARTESIAN_POINT('',(-1.862052080706,-2.504050374636));
#202 = CARTESIAN_POINT('',(-1.937588806441,-2.582511921469));
#203 = CARTESIAN_POINT('',(-2.014260421526,-2.678070068417));
#204 = CARTESIAN_POINT('',(-2.092395801051,-2.788172992749));
#205 = CARTESIAN_POINT('',(-2.245158810698,-3.019445526438));
#206 = CARTESIAN_POINT('',(-2.319750146457,-3.13915178022));
#207 = CARTESIAN_POINT('',(-2.396360663219,-3.265669999084));
#208 = CARTESIAN_POINT('',(-2.475208932112,-3.395398565244));
#209 = CARTESIAN_POINT('',(-2.556537548204,-3.523749026217));
#210 = CARTESIAN_POINT('',(-2.640624379931,-3.645067604607));
#211 = CARTESIAN_POINT('',(-2.727805078604,-3.752751215606));
#212 = CARTESIAN_POINT('',(-2.896323037938,-3.914339235259));
#213 = CARTESIAN_POINT('',(-2.976770914757,-3.973761186532));
#214 = CARTESIAN_POINT('',(-3.058806792788,-4.01223148202));
#215 = CARTESIAN_POINT('',(-3.141592653588,-4.025579234174));
#216 = CARTESIAN_POINT('',(-3.224378514394,-4.01223148202));
#217 = CARTESIAN_POINT('',(-3.306414392422,-3.973761186531));
#218 = CARTESIAN_POINT('',(-3.386862269241,-3.914339235259));
#219 = CARTESIAN_POINT('',(-3.555380228575,-3.752751215606));
#220 = CARTESIAN_POINT('',(-3.642560927248,-3.645067604607));
#221 = CARTESIAN_POINT('',(-3.726647758976,-3.523749026217));
#222 = CARTESIAN_POINT('',(-3.807976375068,-3.395398565244));
#223 = CARTESIAN_POINT('',(-3.88682464396,-3.265669999084));
#224 = CARTESIAN_POINT('',(-3.963435160722,-3.139151780219));
#225 = CARTESIAN_POINT('',(-4.038026496482,-3.019445526438));
#226 = CARTESIAN_POINT('',(-4.19003709673,-2.789312088061));
#227 = CARTESIAN_POINT('',(-4.267454474951,-2.68014283192));
#228 = CARTESIAN_POINT('',(-4.343431491302,-2.585213768488));
#229 = CARTESIAN_POINT('',(-4.418288409715,-2.507014146893));
#230 = CARTESIAN_POINT('',(-4.492324471531,-2.447255826495));
#231 = CARTESIAN_POINT('',(-4.565827811686,-2.407027272113));
#232 = CARTESIAN_POINT('',(-4.639082300272,-2.386888496834));
#233 = CARTESIAN_POINT('',(-4.753832996713,-2.386888496834));
#234 = CARTESIAN_POINT('',(-4.795274244904,-2.393325364562));
#235 = CARTESIAN_POINT('',(-4.836761554892,-2.406197533511));
#236 = CARTESIAN_POINT('',(-4.878343364233,-2.425447023159));
#237 = CARTESIAN_POINT('',(-4.920068170556,-2.450958623655));
#238 = CARTESIAN_POINT('',(-4.961985163104,-2.482557376837));
#239 = CARTESIAN_POINT('',(-5.004145033367,-2.520004353601));
#240 = CARTESIAN_POINT('',(-5.080532362769,-2.597346062987));
#241 = CARTESIAN_POINT('',(-5.114651599353,-2.635238493913));
#242 = CARTESIAN_POINT('',(-5.14899019378,-2.676513982301));
#243 = CARTESIAN_POINT('',(-5.183579886431,-2.720992360572));
#244 = CARTESIAN_POINT('',(-5.218452973922,-2.768463354635));
#245 = CARTESIAN_POINT('',(-5.253642644188,-2.81868260686));
#246 = CARTESIAN_POINT('',(-5.289183311558,-2.871367699058));
#247 = CARTESIAN_POINT('',(-5.348150492377,-2.961353089774));
#248 = CARTESIAN_POINT('',(-5.371349939725,-2.997393728743));
#249 = CARTESIAN_POINT('',(-5.394719912594,-3.034232274437));
#250 = CARTESIAN_POINT('',(-5.418270841377,-3.071777049195));
#251 = CARTESIAN_POINT('',(-5.442013175475,-3.109928167088));
#252 = CARTESIAN_POINT('',(-5.465957590644,-3.148577185401));
#253 = CARTESIAN_POINT('',(-5.490115196328,-3.187606756106));
#254 = CARTESIAN_POINT('',(-5.543861361003,-3.274198966068));
#255 = CARTESIAN_POINT('',(-5.573557274687,-3.321885625978));
#256 = CARTESIAN_POINT('',(-5.603600229393,-3.369720104711));
#257 = CARTESIAN_POINT('',(-5.634005530196,-3.417450704592));
#258 = CARTESIAN_POINT('',(-5.664789232,-3.464804471909));
#259 = CARTESIAN_POINT('',(-5.695968329615,-3.511487486196));
#260 = CARTESIAN_POINT('',(-5.727560947848,-3.557185149524));
#261 = CARTESIAN_POINT('',(-5.783793769454,-3.635106048374));
#262 = CARTESIAN_POINT('',(-5.808252377929,-3.667900853805));
#263 = CARTESIAN_POINT('',(-5.832958327037,-3.699784596471));
#264 = CARTESIAN_POINT('',(-5.857908409748,-3.730592001891));
#265 = CARTESIAN_POINT('',(-5.883100223817,-3.760156391783));
#266 = CARTESIAN_POINT('',(-5.908532153628,-3.78831125914));
#267 = CARTESIAN_POINT('',(-5.934203352041,-3.814891843316));
#268 = CARTESIAN_POINT('',(-5.999084647097,-3.877105034254));
#269 = CARTESIAN_POINT('',(-6.03865184619,-3.910599712148));
#270 = CARTESIAN_POINT('',(-6.078709010996,-3.939548195851));
#271 = CARTESIAN_POINT('',(-6.11915998861,-3.963363600191));
#272 = CARTESIAN_POINT('',(-6.159916094307,-3.9815748883));
#273 = CARTESIAN_POINT('',(-6.200893473677,-3.993848297424));
#274 = CARTESIAN_POINT('',(-6.242010514332,-4.));
#275 = CARTESIAN_POINT('',(-6.28318530718,-4.));
#276 = ( GEOMETRIC_REPRESENTATION_CONTEXT(2) 
PARAMETRIC_REPRESENTATION_CONTEXT() REPRESENTATION_CONTEXT('2D SPACE',''
  ) );
#277 = PCURVE('',#278,#283);
#278 = CYLINDRICAL_SURFACE('',#279,50.8);
#279 = AXIS2_PLACEMENT_3D('',#280,#281,#282);
#280 = CARTESIAN_POINT('',(186.24143824457,230.99560952102,
    17.198498925933));
#281 = DIRECTION('',(-1.,-0.,-0.));
#282 = DIRECTION('',(0.,1.,0.));
#283 = DEFINITIONAL_REPRESENTATION('',(#284),#406);
#284 = B_SPLINE_CURVE_WITH_KNOTS('',8,(#285,#286,#287,#288,#289,#290,
    #291,#292,#293,#294,#295,#296,#297,#298,#299,#300,#301,#302,#303,
    #304,#305,#306,#307,#308,#309,#310,#311,#312,#313,#314,#315,#316,
    #317,#318,#319,#320,#321,#322,#323,#324,#325,#326,#327,#328,#329,
    #330,#331,#332,#333,#334,#335,#336,#337,#338,#339,#340,#341,#342,
    #343,#344,#345,#346,#347,#348,#349,#350,#351,#352,#353,#354,#355,
    #356,#357,#358,#359,#360,#361,#362,#363,#364,#365,#366,#367,#368,
    #369,#370,#371,#372,#373,#374,#375,#376,#377,#378,#379,#380,#381,
    #382,#383,#384,#385,#386,#387,#388,#389,#390,#391,#392,#393,#394,
    #395,#396,#397,#398,#399,#400,#401,#402,#403,#404,#405),
  .UNSPECIFIED.,.T.,.F.,(9,7,7,7,7,7,7,7,7,7,7,7,7,7,7,7,7,9),(0.,
    4.285108021821E-02,7.134118051431E-02,0.1090328865,0.140330793333,
    0.189136452812,0.249177592368,0.358221414344,0.457447479077,
    0.542548057683,0.641774122417,0.749792144884,0.810860258731,
    0.859666783596,0.890965246287,0.928657621685,0.95714822797,1.),
  .UNSPECIFIED.);
#285 = CARTESIAN_POINT('',(-1.570796326795,-38.1));
#286 = CARTESIAN_POINT('',(-1.560502589772,-38.1));
#287 = CARTESIAN_POINT('',(-1.550223318677,-38.0753927481));
#288 = CARTESIAN_POINT('',(-1.540003918524,-38.0262996193));
#289 = CARTESIAN_POINT('',(-1.529889405587,-37.95320391556));
#290 = CARTESIAN_POINT('',(-1.51992399119,-37.85694681615));
#291 = CARTESIAN_POINT('',(-1.510150627488,-37.73872546869));
#292 = CARTESIAN_POINT('',(-1.500610515245,-37.60009322088));
#293 = CARTESIAN_POINT('',(-1.485180661548,-37.3384912439));
#294 = CARTESIAN_POINT('',(-1.479133264721,-37.22574484157));
#295 = CARTESIAN_POINT('',(-1.473204599629,-37.10512852358));
#296 = CARTESIAN_POINT('',(-1.467398581164,-36.97705241458));
#297 = CARTESIAN_POINT('',(-1.46171881869,-36.84193132124));
#298 = CARTESIAN_POINT('',(-1.456168612118,-36.70018502728));
#299 = CARTESIAN_POINT('',(-1.450750948004,-36.55223858855));
#300 = CARTESIAN_POINT('',(-1.438479940311,-36.19516017135));
#301 = CARTESIAN_POINT('',(-1.431726516128,-35.98165522829));
#302 = CARTESIAN_POINT('',(-1.425208206972,-35.75881157332));
#303 = CARTESIAN_POINT('',(-1.41892449351,-35.52737917214));
#304 = CARTESIAN_POINT('',(-1.412874416763,-35.28805744373));
#305 = CARTESIAN_POINT('',(-1.40705664168,-35.04149852229));
#306 = CARTESIAN_POINT('',(-1.401469520714,-34.78831051926));
#307 = CARTESIAN_POINT('',(-1.391661755298,-34.31378865018));
#308 = CARTESIAN_POINT('',(-1.387369316425,-34.09430003376));
#309 = CARTESIAN_POINT('',(-1.383232219479,-33.87088595945));
#310 = CARTESIAN_POINT('',(-1.379248868095,-33.64381751165));
#311 = CARTESIAN_POINT('',(-1.375417685524,-33.41334584272));
#312 = CARTESIAN_POINT('',(-1.371737109308,-33.17970217994));
#313 = CARTESIAN_POINT('',(-1.368205585969,-32.94309783261));
#314 = CARTESIAN_POINT('',(-1.359544556501,-32.33044722195));
#315 = CARTESIAN_POINT('',(-1.354625963685,-31.95041683344));
#316 = CARTESIAN_POINT('',(-1.350060608464,-31.56439812577));
#317 = CARTESIAN_POINT('',(-1.345843621085,-31.1730718721));
#318 = CARTESIAN_POINT('',(-1.341970510627,-30.7770445265));
#319 = CARTESIAN_POINT('',(-1.33843723482,-30.37685822405));
#320 = CARTESIAN_POINT('',(-1.335240269867,-29.97300078094));
#321 = CARTESIAN_POINT('',(-1.328853867836,-29.06511614091));
#322 = CARTESIAN_POINT('',(-1.32583575449,-28.55945511305));
#323 = CARTESIAN_POINT('',(-1.323317474735,-28.0498544157));
#324 = CARTESIAN_POINT('',(-1.321295115768,-27.53716096489));
#325 = CARTESIAN_POINT('',(-1.319765707485,-27.02216403736));
#326 = CARTESIAN_POINT('',(-1.318727236089,-26.50561246145));
#327 = CARTESIAN_POINT('',(-1.318178681313,-25.98823174936));
#328 = CARTESIAN_POINT('',(-1.318013643308,-24.53089973997));
#329 = CARTESIAN_POINT('',(-1.319523333845,-23.59148577008));
#330 = CARTESIAN_POINT('',(-1.3226446485,-22.65641644096));
#331 = CARTESIAN_POINT('',(-1.327387848,-21.72976567419));
#332 = CARTESIAN_POINT('',(-1.333776033548,-20.81604677225));
#333 = CARTESIAN_POINT('',(-1.341843314786,-19.9205736677));
#334 = CARTESIAN_POINT('',(-1.351633282236,-19.04991708301));
#335 = CARTESIAN_POINT('',(-1.373721489089,-17.45042607275));
#336 = CARTESIAN_POINT('',(-1.38575524104,-16.71293506642));
#337 = CARTESIAN_POINT('',(-1.399343759416,-16.00775861243));
#338 = CARTESIAN_POINT('',(-1.414524464579,-15.3441554864));
#339 = CARTESIAN_POINT('',(-1.431321649631,-14.73311667825));
#340 = CARTESIAN_POINT('',(-1.449742340462,-14.18758185337));
#341 = CARTESIAN_POINT('',(-1.469768819632,-13.72280535636));
#342 = CARTESIAN_POINT('',(-1.509845161087,-13.04334005748));
#343 = CARTESIAN_POINT('',(-1.529496635844,-12.80228560354));
#344 = CARTESIAN_POINT('',(-1.54994328826,-12.65095004562));
#345 = CARTESIAN_POINT('',(-1.570796326795,-12.5994012092));
#346 = CARTESIAN_POINT('',(-1.59164936533,-12.65095004562));
#347 = CARTESIAN_POINT('',(-1.612096017746,-12.80228560354));
#348 = CARTESIAN_POINT('',(-1.631747492503,-13.04334005748));
#349 = CARTESIAN_POINT('',(-1.671823833958,-13.72280535636));
#350 = CARTESIAN_POINT('',(-1.691850313127,-14.18758185337));
#351 = CARTESIAN_POINT('',(-1.710271003959,-14.73311667825));
#352 = CARTESIAN_POINT('',(-1.72706818901,-15.3441554864));
#353 = CARTESIAN_POINT('',(-1.742248894174,-16.00775861243));
#354 = CARTESIAN_POINT('',(-1.75583741255,-16.71293506642));
#355 = CARTESIAN_POINT('',(-1.7678711645,-17.45042607275));
#356 = CARTESIAN_POINT('',(-1.789850579478,-19.04203904976));
#357 = CARTESIAN_POINT('',(-1.799564963221,-19.90419390723));
#358 = CARTESIAN_POINT('',(-1.807588384471,-20.79077255641));
#359 = CARTESIAN_POINT('',(-1.813963344696,-21.69537134553));
#360 = CARTESIAN_POINT('',(-1.818723239972,-22.61280560708));
#361 = CARTESIAN_POINT('',(-1.821890854496,-23.53867269153));
#362 = CARTESIAN_POINT('',(-1.823476581937,-24.46900516257));
#363 = CARTESIAN_POINT('',(-1.823476581937,-25.92633900737));
#364 = CARTESIAN_POINT('',(-1.822969742029,-26.45264275894));
#365 = CARTESIAN_POINT('',(-1.821956185118,-26.97815425889));
#366 = CARTESIAN_POINT('',(-1.820434906277,-27.50211111002));
#367 = CARTESIAN_POINT('',(-1.818403838902,-28.02372698702));
#368 = CARTESIAN_POINT('',(-1.815859894784,-28.542173044));
#369 = CARTESIAN_POINT('',(-1.812798978101,-29.05655925596));
#370 = CARTESIAN_POINT('',(-1.806352383806,-29.97300076923));
#371 = CARTESIAN_POINT('',(-1.803155418687,-30.37685823035));
#372 = CARTESIAN_POINT('',(-1.799622142861,-30.77704453802));
#373 = CARTESIAN_POINT('',(-1.795749032534,-31.17307187248));
#374 = CARTESIAN_POINT('',(-1.79153204526,-31.56439811466));
#375 = CARTESIAN_POINT('',(-1.786966689958,-31.95041682676));
#376 = CARTESIAN_POINT('',(-1.782048096936,-32.33044723276));
#377 = CARTESIAN_POINT('',(-1.77338706762,-32.94309783261));
#378 = CARTESIAN_POINT('',(-1.769855544282,-33.17970217994));
#379 = CARTESIAN_POINT('',(-1.766174968066,-33.41334584272));
#380 = CARTESIAN_POINT('',(-1.762343785495,-33.64381751165));
#381 = CARTESIAN_POINT('',(-1.758360434111,-33.87088595945));
#382 = CARTESIAN_POINT('',(-1.754223337165,-34.09430003376));
#383 = CARTESIAN_POINT('',(-1.749930898291,-34.31378865018));
#384 = CARTESIAN_POINT('',(-1.740123132876,-34.78831051925));
#385 = CARTESIAN_POINT('',(-1.73453601191,-35.04149852229));
#386 = CARTESIAN_POINT('',(-1.728718236826,-35.28805744373));
#387 = CARTESIAN_POINT('',(-1.722668160079,-35.52737917214));
#388 = CARTESIAN_POINT('',(-1.716384446618,-35.75881157332));
#389 = CARTESIAN_POINT('',(-1.709866137461,-35.98165522829));
#390 = CARTESIAN_POINT('',(-1.703112713279,-36.19516017135));
#391 = CARTESIAN_POINT('',(-1.690841705586,-36.55223858855));
#392 = CARTESIAN_POINT('',(-1.685424041472,-36.70018502728));
#393 = CARTESIAN_POINT('',(-1.6798738349,-36.84193132124));
#394 = CARTESIAN_POINT('',(-1.674194072425,-36.97705241458));
#395 = CARTESIAN_POINT('',(-1.668388053961,-37.10512852358));
#396 = CARTESIAN_POINT('',(-1.662459388868,-37.22574484157));
#397 = CARTESIAN_POINT('',(-1.656411992042,-37.3384912439));
#398 = CARTESIAN_POINT('',(-1.640982153318,-37.60009296701));
#399 = CARTESIAN_POINT('',(-1.631442039531,-37.73872531601));
#400 = CARTESIAN_POINT('',(-1.621668662199,-37.85694689733));
#401 = CARTESIAN_POINT('',(-1.611703228007,-37.95320418673));
#402 = CARTESIAN_POINT('',(-1.601588696302,-38.02629992966));
#403 = CARTESIAN_POINT('',(-1.591369286729,-38.07539293339));
#404 = CARTESIAN_POINT('',(-1.581090025007,-38.1));
#405 = CARTESIAN_POINT('',(-1.570796326795,-38.1));
#406 = ( GEOMETRIC_REPRESENTATION_CONTEXT(2) 
PARAMETRIC_REPRESENTATION_CONTEXT() REPRESENTATION_CONTEXT('2D SPACE',''
  ) );
#407 = ORIENTED_EDGE('',*,*,#408,.T.);
#408 = EDGE_CURVE('',#22,#409,#411,.T.);
#409 = VERTEX_POINT('',#410);
#410 = CARTESIAN_POINT('',(224.34143824457,230.99560952102,
    86.998498925933));
#411 = SEAM_CURVE('',#412,(#416,#423),.PCURVE_S1.);
#412 = LINE('',#413,#414);
#413 = CARTESIAN_POINT('',(224.34143824457,230.99560952102,
    63.998498925933));
#414 = VECTOR('',#415,1.);
#415 = DIRECTION('',(0.,0.,1.));
#416 = PCURVE('',#148,#417);
#417 = DEFINITIONAL_REPRESENTATION('',(#418),#422);
#418 = LINE('',#419,#420);
#419 = CARTESIAN_POINT('',(-6.28318530718,0.));
#420 = VECTOR('',#421,1.);
#421 = DIRECTION('',(-0.,-1.));
#422 = ( GEOMETRIC_REPRESENTATION_CONTEXT(2) 
PARAMETRIC_REPRESENTATION_CONTEXT() REPRESENTATION_CONTEXT('2D SPACE',''
  ) );
#423 = PCURVE('',#148,#424);
#424 = DEFINITIONAL_REPRESENTATION('',(#425),#429);
#425 = LINE('',#426,#427);
#426 = CARTESIAN_POINT('',(-0.,0.));
#427 = VECTOR('',#428,1.);
#428 = DIRECTION('',(-0.,-1.));
#429 = ( GEOMETRIC_REPRESENTATION_CONTEXT(2) 
PARAMETRIC_REPRESENTATION_CONTEXT() REPRESENTATION_CONTEXT('2D SPACE',''
  ) );
#430 = ORIENTED_EDGE('',*,*,#431,.T.);
#431 = EDGE_CURVE('',#409,#409,#432,.T.);
#432 = SURFACE_CURVE('',#433,(#438,#445),.PCURVE_S1.);
#433 = CIRCLE('',#434,12.7);
#434 = AXIS2_PLACEMENT_3D('',#435,#436,#437);
#435 = CARTESIAN_POINT('',(211.64143824457,230.99560952102,
    86.998498925933));
#436 = DIRECTION('',(0.,0.,1.));
#437 = DIRECTION('',(1.,0.,0.));
#438 = PCURVE('',#148,#439);
#439 = DEFINITIONAL_REPRESENTATION('',(#440),#444);
#440 = LINE('',#441,#442);
#441 = CARTESIAN_POINT('',(-0.,-23.));
#442 = VECTOR('',#443,1.);
#443 = DIRECTION('',(-1.,0.));
#444 = ( GEOMETRIC_REPRESENTATION_CONTEXT(2) 
PARAMETRIC_REPRESENTATION_CONTEXT() REPRESENTATION_CONTEXT('2D SPACE',''
  ) );
#445 = PCURVE('',#446,#451);
#446 = PLANE('',#447);
#447 = AXIS2_PLACEMENT_3D('',#448,#449,#450);
#448 = CARTESIAN_POINT('',(211.64143824457,230.99560952102,
    86.998498925933));
#449 = DIRECTION('',(0.,0.,1.));
#450 = DIRECTION('',(1.,0.,-0.));
#451 = DEFINITIONAL_REPRESENTATION('',(#452),#456);
#452 = CIRCLE('',#453,12.7);
#453 = AXIS2_PLACEMENT_2D('',#454,#455);
#454 = CARTESIAN_POINT('',(0.,0.));
#455 = DIRECTION('',(1.,0.));
#456 = ( GEOMETRIC_REPRESENTATION_CONTEXT(2) 
PARAMETRIC_REPRESENTATION_CONTEXT() REPRESENTATION_CONTEXT('2D SPACE',''
  ) );
#457 = ORIENTED_EDGE('',*,*,#408,.F.);
#458 = ADVANCED_FACE('',(#459,#462),#278,.F.);
#459 = FACE_BOUND('',#460,.T.);
#460 = EDGE_LOOP('',(#461));
#461 = ORIENTED_EDGE('',*,*,#21,.F.);
#462 = FACE_BOUND('',#463,.T.);
#463 = EDGE_LOOP('',(#464));
#464 = ORIENTED_EDGE('',*,*,#465,.T.);
#465 = EDGE_CURVE('',#466,#466,#468,.T.);
#466 = VERTEX_POINT('',#467);
#467 = CARTESIAN_POINT('',(218.99143824457,230.99560952102,
    67.998498925933));
#468 = SURFACE_CURVE('',#469,(#568,#670),.PCURVE_S1.);
#469 = B_SPLINE_CURVE_WITH_KNOTS('',7,(#470,#471,#472,#473,#474,#475,
    #476,#477,#478,#479,#480,#481,#482,#483,#484,#485,#486,#487,#488,
    #489,#490,#491,#492,#493,#494,#495,#496,#497,#498,#499,#500,#501,
    #502,#503,#504,#505,#506,#507,#508,#509,#510,#511,#512,#513,#514,
    #515,#516,#517,#518,#519,#520,#521,#522,#523,#524,#525,#526,#527,
    #528,#529,#530,#531,#532,#533,#534,#535,#536,#537,#538,#539,#540,
    #541,#542,#543,#544,#545,#546,#547,#548,#549,#550,#551,#552,#553,
    #554,#555,#556,#557,#558,#559,#560,#561,#562,#563,#564,#565,#566,
    #567),.UNSPECIFIED.,.T.,.F.,(8,6,6,6,6,6,6,6,6,6,6,6,6,6,6,6,8),(0.,
    4.613124402045E-02,7.649322554807E-02,0.116339004665,0.14988965309,
    0.249354479379,0.347033230508,0.42259180304,0.50170198425,
    0.57786920935,0.680758008869,0.749896513739,0.823004868706,
    0.883796825167,0.923596104335,0.953922654005,1.),.UNSPECIFIED.);
#470 = CARTESIAN_POINT('',(218.99143824457,230.99560952102,
    67.998498925933));
#471 = CARTESIAN_POINT('',(218.99143824457,231.36566075395,
    67.998498925933));
#472 = CARTESIAN_POINT('',(218.96970198367,231.73506763894,
    67.995354071213));
#473 = CARTESIAN_POINT('',(218.92636616368,232.10122480334,
    67.989083834059));
#474 = CARTESIAN_POINT('',(218.86207893006,232.46156054027,
    67.979840039715));
#475 = CARTESIAN_POINT('',(218.77798971247,232.81360225518,
    67.967900997848));
#476 = CARTESIAN_POINT('',(218.67574162913,233.15504060788,
    67.953648369071));
#477 = CARTESIAN_POINT('',(218.47962184613,233.70016532135,
    67.926916088032));
#478 = CARTESIAN_POINT('',(218.39474330006,233.91129634024,
    67.915483370893));
#479 = CARTESIAN_POINT('',(218.30326941016,234.11695651028,
    67.903333070822));
#480 = CARTESIAN_POINT('',(218.20564374237,234.3169438745,
    67.890571668194));
#481 = CARTESIAN_POINT('',(218.10231502544,234.51108339271,
    67.87730577856));
#482 = CARTESIAN_POINT('',(217.99373734123,234.69922691865,
    67.863640263167));
#483 = CARTESIAN_POINT('',(217.73159222922,235.1201367321,67.83135067722
    ));
#484 = CARTESIAN_POINT('',(217.57452831034,235.34854444008,
    67.812506421128));
#485 = CARTESIAN_POINT('',(217.41001773472,235.56650114139,
    67.793348751935));
#486 = CARTESIAN_POINT('',(217.23882846542,235.77407180861,
    67.774064954365));
#487 = CARTESIAN_POINT('',(217.06166335366,235.97135387776,
    67.754824329126));
#488 = CARTESIAN_POINT('',(216.8791662403,236.1584695796,67.73577810489)
  );
#489 = CARTESIAN_POINT('',(216.53427114641,236.48466918183,
    67.701297922883));
#490 = CARTESIAN_POINT('',(216.37322062087,236.62670185472,
    67.685765480964));
#491 = CARTESIAN_POINT('',(216.20909001343,236.76176818201,
    67.670538232096));
#492 = CARTESIAN_POINT('',(216.04216551222,236.88997817899,
    67.655684210517));
#493 = CARTESIAN_POINT('',(215.87270603425,237.01143995556,
    67.641263806066));
#494 = CARTESIAN_POINT('',(215.70094329877,237.12625968811,
    67.627330293093));
#495 = CARTESIAN_POINT('',(215.01164942528,237.55555597415,
    67.574204686696));
#496 = CARTESIAN_POINT('',(214.47759755156,237.81921704976,
    67.53915512404));
#497 = CARTESIAN_POINT('',(213.93047046642,238.02800220431,
    67.510025342581));
#498 = CARTESIAN_POINT('',(213.37437930076,238.18394011776,
    67.487593905306));
#499 = CARTESIAN_POINT('',(212.8125352007,238.28847456482,
    67.472323475013));
#500 = CARTESIAN_POINT('',(212.24767492963,238.34234665282,
    67.464446282402));
#501 = CARTESIAN_POINT('',(211.12723400757,238.34858779711,
    67.463533694031));
#502 = CARTESIAN_POINT('',(210.57219587321,238.30275917091,
    67.470234729954));
#503 = CARTESIAN_POINT('',(210.01973289538,238.2081137242,
    67.484085871704));
#504 = CARTESIAN_POINT('',(209.47242818232,238.06401935238,
    67.504887911469));
#505 = CARTESIAN_POINT('',(208.9332703174,237.86919321846,
    67.532230004366));
#506 = CARTESIAN_POINT('',(208.40603475125,237.62179974629,
    67.565416532565));
#507 = CARTESIAN_POINT('',(207.50103404473,237.08576699982,
    67.632668909952));
#508 = CARTESIAN_POINT('',(207.11617728134,236.81898876387,
    67.664855014632));
#509 = CARTESIAN_POINT('',(206.74355745621,236.51809470926,
    67.699385385031));
#510 = CARTESIAN_POINT('',(206.38614017377,236.18187251826,
    67.735594856282));
#511 = CARTESIAN_POINT('',(206.0475836973,235.80913168289,
    67.772607117552));
#512 = CARTESIAN_POINT('',(205.73240029456,235.3988715245,67.80930343744
    ));
#513 = CARTESIAN_POINT('',(205.14650610557,234.48108323268,
    67.880973044724));
#514 = CARTESIAN_POINT('',(204.87502247044,233.96431385824,
    67.916219957807));
#515 = CARTESIAN_POINT('',(204.64431058861,233.40528199377,
    67.947821785937));
#516 = CARTESIAN_POINT('',(204.46444974313,232.81122674201,
    67.973434446055));
#517 = CARTESIAN_POINT('',(204.342966174,232.1911192756,67.991045082264)
  );
#518 = CARTESIAN_POINT('',(204.28474911126,231.5550825576,
    67.999466682645));
#519 = CARTESIAN_POINT('',(204.29877375829,230.29623480654,
    67.997437649318));
#520 = CARTESIAN_POINT('',(204.36610548555,229.68614755326,
    67.987697331539));
#521 = CARTESIAN_POINT('',(204.49141178847,229.09267979047,
    67.969604710758));
#522 = CARTESIAN_POINT('',(204.66996181564,228.52451785433,
    67.944317162158));
#523 = CARTESIAN_POINT('',(204.89489317,227.98931739686,67.913645421157)
  );
#524 = CARTESIAN_POINT('',(205.15728041977,227.49325812118,
    67.879655074889));
#525 = CARTESIAN_POINT('',(205.8364336799,226.42938187491,
    67.796577535714));
#526 = CARTESIAN_POINT('',(206.28036221468,225.88914679324,
    67.745729380555));
#527 = CARTESIAN_POINT('',(206.7638288772,225.41825523089,67.69522749453
    ));
#528 = CARTESIAN_POINT('',(207.2765165278,225.01365648469,
    67.647666369703));
#529 = CARTESIAN_POINT('',(207.81082303912,224.67202958372,
    67.604781197679));
#530 = CARTESIAN_POINT('',(208.36116440789,224.39040904498,
    67.567758850837));
#531 = CARTESIAN_POINT('',(209.30145126999,224.01618300895,
    67.516990983539));
#532 = CARTESIAN_POINT('',(209.68480423847,223.89187428926,
    67.499593216756));
#533 = CARTESIAN_POINT('',(210.07224458408,223.79305437707,
    67.485451957138));
#534 = CARTESIAN_POINT('',(210.4626143651,223.71925658565,
    67.474738106246));
#535 = CARTESIAN_POINT('',(210.85489508987,223.67016188008,
    67.467559322822));
#536 = CARTESIAN_POINT('',(211.24814524213,223.64560952102,
    67.463969181367));
#537 = CARTESIAN_POINT('',(212.05731365991,223.64560952102,
    67.463969181367));
#538 = CARTESIAN_POINT('',(212.47313197445,223.67306239609,
    67.467983450304));
#539 = CARTESIAN_POINT('',(212.88780282768,223.72795397388,
    67.476009860471));
#540 = CARTESIAN_POINT('',(213.30021703926,223.81048596745,
    67.487981569925));
#541 = CARTESIAN_POINT('',(213.70916370683,223.92105862905,
    67.503764196492));
#542 = CARTESIAN_POINT('',(214.11324653811,224.06025587101,
    67.523143001095));
#543 = CARTESIAN_POINT('',(214.84137746541,224.36901005546,
    67.564640173005));
#544 = CARTESIAN_POINT('',(215.16743543734,224.52949997129,67.585746782)
  );
#545 = CARTESIAN_POINT('',(215.48809114397,224.71076742152,
    67.608941240766));
#546 = CARTESIAN_POINT('',(215.80229037212,224.91337618809,
    67.633997578573));
#547 = CARTESIAN_POINT('',(216.10875456849,225.13795511658,
    67.660627794528));
#548 = CARTESIAN_POINT('',(216.40592852386,225.38516421811,
    67.68846713154));
#549 = CARTESIAN_POINT('',(216.87916623713,225.83274945944,
    67.735778104573));
#550 = CARTESIAN_POINT('',(217.06166335649,226.01986516791,
    67.754824329444));
#551 = CARTESIAN_POINT('',(217.23882846794,226.21714723587,
    67.77406495462));
#552 = CARTESIAN_POINT('',(217.41001773265,226.4247178974,
    67.793348751682));
#553 = CARTESIAN_POINT('',(217.57452830742,226.64267459847,
    67.812506420809));
#554 = CARTESIAN_POINT('',(217.73159223175,226.87108231401,
    67.831350677532));
#555 = CARTESIAN_POINT('',(217.99373734123,227.29199212339,
    67.863640263166));
#556 = CARTESIAN_POINT('',(218.10231502544,227.48013564932,
    67.87730577856));
#557 = CARTESIAN_POINT('',(218.20564374237,227.67427516753,
    67.890571668194));
#558 = CARTESIAN_POINT('',(218.30326941016,227.87426253175,
    67.903333070822));
#559 = CARTESIAN_POINT('',(218.39474330006,228.07992270179,
    67.915483370893));
#560 = CARTESIAN_POINT('',(218.47962184613,228.29105372069,
    67.926916088032));
#561 = CARTESIAN_POINT('',(218.67574146552,228.8361779794,67.95364834677
    ));
#562 = CARTESIAN_POINT('',(218.77798964936,229.17761645212,
    67.967900988319));
#563 = CARTESIAN_POINT('',(218.86207904011,229.52965870133,
    67.97984005498));
#564 = CARTESIAN_POINT('',(218.92636636644,229.88999512262,
    67.989083863278));
#565 = CARTESIAN_POINT('',(218.96970212962,230.25615277545,
    67.995354092374));
#566 = CARTESIAN_POINT('',(218.99143824457,230.62555953286,
    67.998498925933));
#567 = CARTESIAN_POINT('',(218.99143824457,230.99560952102,
    67.998498925933));
#568 = PCURVE('',#278,#569);
#569 = DEFINITIONAL_REPRESENTATION('',(#570),#669);
#570 = B_SPLINE_CURVE_WITH_KNOTS('',7,(#571,#572,#573,#574,#575,#576,
    #577,#578,#579,#580,#581,#582,#583,#584,#585,#586,#587,#588,#589,
    #590,#591,#592,#593,#594,#595,#596,#597,#598,#599,#600,#601,#602,
    #603,#604,#605,#606,#607,#608,#609,#610,#611,#612,#613,#614,#615,
    #616,#617,#618,#619,#620,#621,#622,#623,#624,#625,#626,#627,#628,
    #629,#630,#631,#632,#633,#634,#635,#636,#637,#638,#639,#640,#641,
    #642,#643,#644,#645,#646,#647,#648,#649,#650,#651,#652,#653,#654,
    #655,#656,#657,#658,#659,#660,#661,#662,#663,#664,#665,#666,#667,
    #668),.UNSPECIFIED.,.T.,.F.,(8,6,6,6,6,6,6,6,6,6,6,6,6,6,6,6,8),(0.,
    4.613124402045E-02,7.649322554807E-02,0.116339004665,0.14988965309,
    0.249354479379,0.347033230508,0.42259180304,0.50170198425,
    0.57786920935,0.680758008869,0.749896513739,0.823004868706,
    0.883796825167,0.923596104335,0.953922654005,1.),.UNSPECIFIED.);
#571 = CARTESIAN_POINT('',(-1.570796326795,-32.75));
#572 = CARTESIAN_POINT('',(-1.563511853706,-32.75));
#573 = CARTESIAN_POINT('',(-1.556240064269,-32.7282637391));
#574 = CARTESIAN_POINT('',(-1.549031616046,-32.68492791911));
#575 = CARTESIAN_POINT('',(-1.541936506654,-32.62064068549));
#576 = CARTESIAN_POINT('',(-1.535002914886,-32.53655146789));
#577 = CARTESIAN_POINT('',(-1.528276012194,-32.43430338455));
#578 = CARTESIAN_POINT('',(-1.51753231574,-32.23818360156));
#579 = CARTESIAN_POINT('',(-1.513370158683,-32.15330505548));
#580 = CARTESIAN_POINT('',(-1.509314747309,-32.06183116559));
#581 = CARTESIAN_POINT('',(-1.505370056401,-31.96420549779));
#582 = CARTESIAN_POINT('',(-1.501539558262,-31.86087678086));
#583 = CARTESIAN_POINT('',(-1.497826219407,-31.75229909665));
#584 = CARTESIAN_POINT('',(-1.489516248446,-31.49015398464));
#585 = CARTESIAN_POINT('',(-1.485004831992,-31.33309006577));
#586 = CARTESIAN_POINT('',(-1.480697898438,-31.16857949015));
#587 = CARTESIAN_POINT('',(-1.476594349655,-30.99739022085));
#588 = CARTESIAN_POINT('',(-1.472692475608,-30.82022510909));
#589 = CARTESIAN_POINT('',(-1.468990091139,-30.63772799572));
#590 = CARTESIAN_POINT('',(-1.462533066246,-30.29283290183));
#591 = CARTESIAN_POINT('',(-1.459720496953,-30.1317823763));
#592 = CARTESIAN_POINT('',(-1.45704489046,-29.96765176885));
#593 = CARTESIAN_POINT('',(-1.4545042093,-29.80072726764));
#594 = CARTESIAN_POINT('',(-1.45209645079,-29.63126778968));
#595 = CARTESIAN_POINT('',(-1.449819644885,-29.45950505419));
#596 = CARTESIAN_POINT('',(-1.441304468602,-28.7702111807));
#597 = CARTESIAN_POINT('',(-1.436068843304,-28.23615930698));
#598 = CARTESIAN_POINT('',(-1.431919174697,-27.68903222185));
#599 = CARTESIAN_POINT('',(-1.428817935952,-27.13294105618));
#600 = CARTESIAN_POINT('',(-1.426738336932,-26.57109695612));
#601 = CARTESIAN_POINT('',(-1.425666584362,-26.00623668506));
#602 = CARTESIAN_POINT('',(-1.425542420753,-24.88579576299));
#603 = CARTESIAN_POINT('',(-1.426454153366,-24.33075762863));
#604 = CARTESIAN_POINT('',(-1.428337094007,-23.77829465081));
#605 = CARTESIAN_POINT('',(-1.431203003351,-23.23098993775));
#606 = CARTESIAN_POINT('',(-1.435075679112,-22.69183207282));
#607 = CARTESIAN_POINT('',(-1.439989073538,-22.16459650667));
#608 = CARTESIAN_POINT('',(-1.450623623193,-21.25959580016));
#609 = CARTESIAN_POINT('',(-1.455913185598,-20.87473903676));
#610 = CARTESIAN_POINT('',(-1.461875003867,-20.50211921163));
#611 = CARTESIAN_POINT('',(-1.46853149393,-20.1447019292));
#612 = CARTESIAN_POINT('',(-1.475904498531,-19.80614545273));
#613 = CARTESIAN_POINT('',(-1.484012212393,-19.49096204999));
#614 = CARTESIAN_POINT('',(-1.502133912389,-18.90506786099));
#615 = CARTESIAN_POINT('',(-1.512329678299,-18.63358422586));
#616 = CARTESIAN_POINT('',(-1.523350581725,-18.40287234403));
#617 = CARTESIAN_POINT('',(-1.535053392538,-18.22301149856));
#618 = CARTESIAN_POINT('',(-1.547262936468,-18.10152792943));
#619 = CARTESIAN_POINT('',(-1.559783062341,-18.04331086668));
#620 = CARTESIAN_POINT('',(-1.584563562071,-18.05733551371));
#621 = CARTESIAN_POINT('',(-1.596573448179,-18.12466724098));
#622 = CARTESIAN_POINT('',(-1.608259371057,-18.2499735439));
#623 = CARTESIAN_POINT('',(-1.619452949711,-18.42852357106));
#624 = CARTESIAN_POINT('',(-1.630004591746,-18.65345492543));
#625 = CARTESIAN_POINT('',(-1.639791990605,-18.9158421752));
#626 = CARTESIAN_POINT('',(-1.660798192514,-19.59499543532));
#627 = CARTESIAN_POINT('',(-1.671478389782,-20.03892397011));
#628 = CARTESIAN_POINT('',(-1.680800047671,-20.52239063263));
#629 = CARTESIAN_POINT('',(-1.688818929196,-21.03507828322));
#630 = CARTESIAN_POINT('',(-1.695596451473,-21.56938479454));
#631 = CARTESIAN_POINT('',(-1.701187814651,-22.11972616331));
#632 = CARTESIAN_POINT('',(-1.708621947432,-23.06001302541));
#633 = CARTESIAN_POINT('',(-1.711092797197,-23.4433659939));
#634 = CARTESIAN_POINT('',(-1.713057878589,-23.8308063395));
#635 = CARTESIAN_POINT('',(-1.714525820023,-24.22117612052));
#636 = CARTESIAN_POINT('',(-1.715502528033,-24.6134568453));
#637 = CARTESIAN_POINT('',(-1.715990981922,-25.00670699755));
#638 = CARTESIAN_POINT('',(-1.715990981922,-25.81587541533));
#639 = CARTESIAN_POINT('',(-1.715444824026,-26.23169372987));
#640 = CARTESIAN_POINT('',(-1.714352791084,-26.64636458311));
#641 = CARTESIAN_POINT('',(-1.712711142917,-27.05877879468));
#642 = CARTESIAN_POINT('',(-1.710512467711,-27.46772546226));
#643 = CARTESIAN_POINT('',(-1.707745968723,-27.87180829354));
#644 = CARTESIAN_POINT('',(-1.701613481432,-28.59993922083));
#645 = CARTESIAN_POINT('',(-1.698427042591,-28.92599719276));
#646 = CARTESIAN_POINT('',(-1.69482972536,-29.2466528994));
#647 = CARTESIAN_POINT('',(-1.690811052602,-29.56085212755));
#648 = CARTESIAN_POINT('',(-1.686359349787,-29.86731632391));
#649 = CARTESIAN_POINT('',(-1.681462380319,-30.16449027928));
#650 = CARTESIAN_POINT('',(-1.67260256251,-30.63772799256));
#651 = CARTESIAN_POINT('',(-1.66890017791,-30.82022511191));
#652 = CARTESIAN_POINT('',(-1.664998303887,-30.99739022337));
#653 = CARTESIAN_POINT('',(-1.660894755215,-31.16857948808));
#654 = CARTESIAN_POINT('',(-1.656587821666,-31.33309006284));
#655 = CARTESIAN_POINT('',(-1.652076405063,-31.49015398718));
#656 = CARTESIAN_POINT('',(-1.643766434183,-31.75229909665));
#657 = CARTESIAN_POINT('',(-1.640053095328,-31.86087678086));
#658 = CARTESIAN_POINT('',(-1.636222597189,-31.96420549779));
#659 = CARTESIAN_POINT('',(-1.632277906281,-32.06183116559));
#660 = CARTESIAN_POINT('',(-1.628222494907,-32.15330505548));
#661 = CARTESIAN_POINT('',(-1.62406033785,-32.23818360156));
#662 = CARTESIAN_POINT('',(-1.613316650359,-32.43430322095));
#663 = CARTESIAN_POINT('',(-1.606589745294,-32.53655140479));
#664 = CARTESIAN_POINT('',(-1.599656142999,-32.62064079554));
#665 = CARTESIAN_POINT('',(-1.592561020137,-32.68492812187));
#666 = CARTESIAN_POINT('',(-1.585352562306,-32.72826388504));
#667 = CARTESIAN_POINT('',(-1.578080775381,-32.75));
#668 = CARTESIAN_POINT('',(-1.570796326795,-32.75));
#669 = ( GEOMETRIC_REPRESENTATION_CONTEXT(2) 
PARAMETRIC_REPRESENTATION_CONTEXT() REPRESENTATION_CONTEXT('2D SPACE',''
  ) );
#670 = PCURVE('',#671,#676);
#671 = CYLINDRICAL_SURFACE('',#672,7.35);
#672 = AXIS2_PLACEMENT_3D('',#673,#674,#675);
#673 = CARTESIAN_POINT('',(211.64143824457,230.99560952102,
    62.823498925933));
#674 = DIRECTION('',(-0.,-0.,-1.));
#675 = DIRECTION('',(1.,0.,0.));
#676 = DEFINITIONAL_REPRESENTATION('',(#677),#776);
#677 = B_SPLINE_CURVE_WITH_KNOTS('',7,(#678,#679,#680,#681,#682,#683,
    #684,#685,#686,#687,#688,#689,#690,#691,#692,#693,#694,#695,#696,
    #697,#698,#699,#700,#701,#702,#703,#704,#705,#706,#707,#708,#709,
    #710,#711,#712,#713,#714,#715,#716,#717,#718,#719,#720,#721,#722,
    #723,#724,#725,#726,#727,#728,#729,#730,#731,#732,#733,#734,#735,
    #736,#737,#738,#739,#740,#741,#742,#743,#744,#745,#746,#747,#748,
    #749,#750,#751,#752,#753,#754,#755,#756,#757,#758,#759,#760,#761,
    #762,#763,#764,#765,#766,#767,#768,#769,#770,#771,#772,#773,#774,
    #775),.UNSPECIFIED.,.F.,.F.,(8,6,6,6,6,6,6,6,6,6,6,6,6,6,6,6,8),(0.,
    4.613124402045E-02,7.649322554807E-02,0.116339004665,0.14988965309,
    0.249354479379,0.347033230508,0.42259180304,0.50170198425,
    0.57786920935,0.680758008869,0.749896513739,0.823004868706,
    0.883796825167,0.923596104335,0.953922654005,1.),.UNSPECIFIED.);
#678 = CARTESIAN_POINT('',(0.,-5.175));
#679 = CARTESIAN_POINT('',(-5.034710652194E-02,-5.175));
#680 = CARTESIAN_POINT('',(-0.100606543537,-5.171855145281));
#681 = CARTESIAN_POINT('',(-0.150632307248,-5.165584908127));
#682 = CARTESIAN_POINT('',(-0.200279623754,-5.156341113783));
#683 = CARTESIAN_POINT('',(-0.249396891835,-5.144402071916));
#684 = CARTESIAN_POINT('',(-0.297817623727,-5.130149443138));
#685 = CARTESIAN_POINT('',(-0.376638110989,-5.1034171621));
#686 = CARTESIAN_POINT('',(-0.40757673494,-5.091984444961));
#687 = CARTESIAN_POINT('',(-0.438168739694,-5.07983414489));
#688 = CARTESIAN_POINT('',(-0.468412898854,-5.067072742262));
#689 = CARTESIAN_POINT('',(-0.498306256178,-5.053806852627));
#690 = CARTESIAN_POINT('',(-0.527844106064,-5.040141337234));
#691 = CARTESIAN_POINT('',(-0.59530914795,-5.007851751287));
#692 = CARTESIAN_POINT('',(-0.632984502536,-4.989007495195));
#693 = CARTESIAN_POINT('',(-0.670080069368,-4.969849826002));
#694 = CARTESIAN_POINT('',(-0.706626788921,-4.950566028433));
#695 = CARTESIAN_POINT('',(-0.742653094379,-4.931325403193));
#696 = CARTESIAN_POINT('',(-0.778185495435,-4.912279178957));
#697 = CARTESIAN_POINT('',(-0.842773211543,-4.87779899695));
#698 = CARTESIAN_POINT('',(-0.871970982027,-4.862266555032));
#699 = CARTESIAN_POINT('',(-0.90086394331,-4.847039306163));
#700 = CARTESIAN_POINT('',(-0.929471995164,-4.832185284585));
#701 = CARTESIAN_POINT('',(-0.957814144078,-4.817764880133));
#702 = CARTESIAN_POINT('',(-0.985909179943,-4.80383136716));
#703 = CARTESIAN_POINT('',(-1.096391850008,-4.750705760763));
#704 = CARTESIAN_POINT('',(-1.177032836619,-4.715656198108));
#705 = CARTESIAN_POINT('',(-1.256155981319,-4.686526416648));
#706 = CARTESIAN_POINT('',(-1.334160888491,-4.664094979374));
#707 = CARTESIAN_POINT('',(-1.411422193233,-4.648824549081));
#708 = CARTESIAN_POINT('',(-1.48831392317,-4.640947356469));
#709 = CARTESIAN_POINT('',(-1.64075722988,-4.640034768098));
#710 = CARTESIAN_POINT('',(-1.716237027279,-4.646735804021));
#711 = CARTESIAN_POINT('',(-1.792031913429,-4.660586945771));
#712 = CARTESIAN_POINT('',(-1.868493327072,-4.681388985536));
#713 = CARTESIAN_POINT('',(-1.945973166345,-4.708731078434));
#714 = CARTESIAN_POINT('',(-2.024845632407,-4.741917606633));
#715 = CARTESIAN_POINT('',(-2.167952468556,-4.809169984019));
#716 = CARTESIAN_POINT('',(-2.231501727101,-4.841356088699));
#717 = CARTESIAN_POINT('',(-2.296380505265,-4.875886459098));
#718 = CARTESIAN_POINT('',(-2.362789426653,-4.912095930349));
#719 = CARTESIAN_POINT('',(-2.430938751674,-4.949108191619));
#720 = CARTESIAN_POINT('',(-2.50106133222,-4.985804511508));
#721 = CARTESIAN_POINT('',(-2.649205003226,-5.057474118792));
#722 = CARTESIAN_POINT('',(-2.728342660897,-5.092721031874));
#723 = CARTESIAN_POINT('',(-2.810052393803,-5.124322860005));
#724 = CARTESIAN_POINT('',(-2.89376210336,-5.149935520122));
#725 = CARTESIAN_POINT('',(-2.979026736176,-5.167546156332));
#726 = CARTESIAN_POINT('',(-3.065468688469,-5.175967756712));
#727 = CARTESIAN_POINT('',(-3.236751120027,-5.173938723386));
#728 = CARTESIAN_POINT('',(-3.319853057169,-5.164198405606));
#729 = CARTESIAN_POINT('',(-3.401750760769,-5.146105784825));
#730 = CARTESIAN_POINT('',(-3.482128160911,-5.120818236225));
#731 = CARTESIAN_POINT('',(-3.560607901771,-5.090146495224));
#732 = CARTESIAN_POINT('',(-3.636704595283,-5.056156148957));
#733 = CARTESIAN_POINT('',(-3.808428874206,-4.973078609781));
#734 = CARTESIAN_POINT('',(-3.902882052327,-4.922230454622));
#735 = CARTESIAN_POINT('',(-3.993846040894,-4.871728568597));
#736 = CARTESIAN_POINT('',(-4.081884066419,-4.824167443771));
#737 = CARTESIAN_POINT('',(-4.167526357752,-4.781282271746));
#738 = CARTESIAN_POINT('',(-4.251263715223,-4.744259924905));
#739 = CARTESIAN_POINT('',(-4.388953513069,-4.693492057606));
#740 = CARTESIAN_POINT('',(-4.44366748362,-4.676094290823));
#741 = CARTESIAN_POINT('',(-4.497892463282,-4.661953031206));
#742 = CARTESIAN_POINT('',(-4.551754600258,-4.651239180313));
#743 = CARTESIAN_POINT('',(-4.605376279754,-4.644060396889));
#744 = CARTESIAN_POINT('',(-4.658879728352,-4.640470255435));
#745 = CARTESIAN_POINT('',(-4.768970669546,-4.640470255435));
#746 = CARTESIAN_POINT('',(-4.825544629962,-4.644484524371));
#747 = CARTESIAN_POINT('',(-4.882258168245,-4.652510934538));
#748 = CARTESIAN_POINT('',(-4.939256370646,-4.664482643992));
#749 = CARTESIAN_POINT('',(-4.996684469692,-4.680265270559));
#750 = CARTESIAN_POINT('',(-5.054692659776,-4.699644075162));
#751 = CARTESIAN_POINT('',(-5.162296466303,-4.741141247073));
#752 = CARTESIAN_POINT('',(-5.211662056428,-4.762247856067));
#753 = CARTESIAN_POINT('',(-5.261645600316,-4.785442314834));
#754 = CARTESIAN_POINT('',(-5.312352516769,-4.810498652641));
#755 = CARTESIAN_POINT('',(-5.363891470251,-4.837128868595));
#756 = CARTESIAN_POINT('',(-5.416377665988,-4.864968205607));
#757 = CARTESIAN_POINT('',(-5.504999811152,-4.91227917864));
#758 = CARTESIAN_POINT('',(-5.540532213432,-4.931325403511));
#759 = CARTESIAN_POINT('',(-5.576558518737,-4.950566028688));
#760 = CARTESIAN_POINT('',(-5.613105237289,-4.969849825749));
#761 = CARTESIAN_POINT('',(-5.650200804022,-4.989007494877));
#762 = CARTESIAN_POINT('',(-5.687876159883,-5.0078517516));
#763 = CARTESIAN_POINT('',(-5.755341201116,-5.040141337234));
#764 = CARTESIAN_POINT('',(-5.784879051002,-5.053806852627));
#765 = CARTESIAN_POINT('',(-5.814772408325,-5.067072742261));
#766 = CARTESIAN_POINT('',(-5.845016567485,-5.07983414489));
#767 = CARTESIAN_POINT('',(-5.875608572239,-5.091984444961));
#768 = CARTESIAN_POINT('',(-5.906547196191,-5.1034171621));
#769 = CARTESIAN_POINT('',(-5.9853676177,-5.130149420838));
#770 = CARTESIAN_POINT('',(-6.033788369578,-5.144402062387));
#771 = CARTESIAN_POINT('',(-6.082905713326,-5.156341129047));
#772 = CARTESIAN_POINT('',(-6.132553122297,-5.165584937345));
#773 = CARTESIAN_POINT('',(-6.182578950355,-5.171855166441));
#774 = CARTESIAN_POINT('',(-6.232838370015,-5.175));
#775 = CARTESIAN_POINT('',(-6.28318530718,-5.175));
#776 = ( GEOMETRIC_REPRESENTATION_CONTEXT(2) 
PARAMETRIC_REPRESENTATION_CONTEXT() REPRESENTATION_CONTEXT('2D SPACE',''
  ) );
#777 = ADVANCED_FACE('',(#778,#781),#446,.T.);
#778 = FACE_BOUND('',#779,.T.);
#779 = EDGE_LOOP('',(#780));
#780 = ORIENTED_EDGE('',*,*,#431,.T.);
#781 = FACE_BOUND('',#782,.T.);
#782 = EDGE_LOOP('',(#783));
#783 = ORIENTED_EDGE('',*,*,#784,.T.);
#784 = EDGE_CURVE('',#785,#785,#787,.T.);
#785 = VERTEX_POINT('',#786);
#786 = CARTESIAN_POINT('',(218.99143824457,230.99560952102,
    86.998498925933));
#787 = SURFACE_CURVE('',#788,(#793,#804),.PCURVE_S1.);
#788 = CIRCLE('',#789,7.35);
#789 = AXIS2_PLACEMENT_3D('',#790,#791,#792);
#790 = CARTESIAN_POINT('',(211.64143824457,230.99560952102,
    86.998498925933));
#791 = DIRECTION('',(0.,0.,-1.));
#792 = DIRECTION('',(1.,0.,0.));
#793 = PCURVE('',#446,#794);
#794 = DEFINITIONAL_REPRESENTATION('',(#795),#803);
#795 = ( BOUNDED_CURVE() B_SPLINE_CURVE(2,(#796,#797,#798,#799,#800,#801
,#802),.UNSPECIFIED.,.T.,.F.) B_SPLINE_CURVE_WITH_KNOTS((1,2,2,2,2,1),(
    -2.094395102393,0.,2.094395102393,4.188790204786,6.28318530718,
8.377580409573),.UNSPECIFIED.) CURVE() GEOMETRIC_REPRESENTATION_ITEM() 
RATIONAL_B_SPLINE_CURVE((1.,0.5,1.,0.5,1.,0.5,1.)) REPRESENTATION_ITEM(
  '') );
#796 = CARTESIAN_POINT('',(7.35,0.));
#797 = CARTESIAN_POINT('',(7.35,-12.73057343563));
#798 = CARTESIAN_POINT('',(-3.675,-6.365286717816));
#799 = CARTESIAN_POINT('',(-14.7,-1.800230794747E-15));
#800 = CARTESIAN_POINT('',(-3.675,6.365286717816));
#801 = CARTESIAN_POINT('',(7.35,12.730573435631));
#802 = CARTESIAN_POINT('',(7.35,0.));
#803 = ( GEOMETRIC_REPRESENTATION_CONTEXT(2) 
PARAMETRIC_REPRESENTATION_CONTEXT() REPRESENTATION_CONTEXT('2D SPACE',''
  ) );
#804 = PCURVE('',#671,#805);
#805 = DEFINITIONAL_REPRESENTATION('',(#806),#810);
#806 = LINE('',#807,#808);
#807 = CARTESIAN_POINT('',(-6.28318530718,-24.175));
#808 = VECTOR('',#809,1.);
#809 = DIRECTION('',(1.,-0.));
#810 = ( GEOMETRIC_REPRESENTATION_CONTEXT(2) 
PARAMETRIC_REPRESENTATION_CONTEXT() REPRESENTATION_CONTEXT('2D SPACE',''
  ) );
#811 = ADVANCED_FACE('',(#812),#671,.F.);
#812 = FACE_BOUND('',#813,.T.);
#813 = EDGE_LOOP('',(#814,#815,#836,#837));
#814 = ORIENTED_EDGE('',*,*,#465,.F.);
#815 = ORIENTED_EDGE('',*,*,#816,.T.);
#816 = EDGE_CURVE('',#466,#785,#817,.T.);
#817 = SEAM_CURVE('',#818,(#822,#829),.PCURVE_S1.);
#818 = LINE('',#819,#820);
#819 = CARTESIAN_POINT('',(218.99143824457,230.99560952102,
    62.823498925933));
#820 = VECTOR('',#821,1.);
#821 = DIRECTION('',(0.,0.,1.));
#822 = PCURVE('',#671,#823);
#823 = DEFINITIONAL_REPRESENTATION('',(#824),#828);
#824 = LINE('',#825,#826);
#825 = CARTESIAN_POINT('',(-6.28318530718,0.));
#826 = VECTOR('',#827,1.);
#827 = DIRECTION('',(-0.,-1.));
#828 = ( GEOMETRIC_REPRESENTATION_CONTEXT(2) 
PARAMETRIC_REPRESENTATION_CONTEXT() REPRESENTATION_CONTEXT('2D SPACE',''
  ) );
#829 = PCURVE('',#671,#830);
#830 = DEFINITIONAL_REPRESENTATION('',(#831),#835);
#831 = LINE('',#832,#833);
#832 = CARTESIAN_POINT('',(-0.,0.));
#833 = VECTOR('',#834,1.);
#834 = DIRECTION('',(-0.,-1.));
#835 = ( GEOMETRIC_REPRESENTATION_CONTEXT(2) 
PARAMETRIC_REPRESENTATION_CONTEXT() REPRESENTATION_CONTEXT('2D SPACE',''
  ) );
#836 = ORIENTED_EDGE('',*,*,#784,.F.);
#837 = ORIENTED_EDGE('',*,*,#816,.F.);
#838 = ( GEOMETRIC_REPRESENTATION_CONTEXT(3) 
GLOBAL_UNCERTAINTY_ASSIGNED_CONTEXT((#842)) GLOBAL_UNIT_ASSIGNED_CONTEXT
((#839,#840,#841)) REPRESENTATION_CONTEXT('Context #1',
  '3D Context with UNIT and UNCERTAINTY') );
#839 = ( LENGTH_UNIT() NAMED_UNIT(*) SI_UNIT(.MILLI.,.METRE.) );
#840 = ( NAMED_UNIT(*) PLANE_ANGLE_UNIT() SI_UNIT($,.RADIAN.) );
#841 = ( NAMED_UNIT(*) SI_UNIT($,.STERADIAN.) SOLID_ANGLE_UNIT() );
#842 = UNCERTAINTY_MEASURE_WITH_UNIT(LENGTH_MEASURE(2.E-07),#839,
  'distance_accuracy_value','confusion accuracy');
#843 = PRODUCT_RELATED_PRODUCT_CATEGORY('part',$,(#7));
ENDSEC;
END-ISO-10303-21;
