ISO-10303-21;
HEADER;
FILE_DESCRIPTION(('Open CASCADE Model'),'2;1');
FILE_NAME('Open CASCADE Shape Model','2026-10-04T18:34:10',('Author'),(
    'Open CASCADE'),'Open CASCADE STEP processor 7.9','Open CASCADE 7.9'
  ,'Unknown');
FILE_SCHEMA(('AUTOMOTIVE_DESIGN { 1 0 10303 214 1 1 1 1 }'));
ENDSEC;
DATA;
#1 = APPLICATION_PROTOCOL_DEFINITION('international standard',
  'automotive_design',2000,#2);
#2 = APPLICATION_CONTEXT(
  'core data for automotive mechanical design processes');
#3 = SHAPE_DEFINITION_REPRESENTATION(#4,#10);
#4 = PRODUCT_DEFINITION_SHAPE('','',#5);
#5 = PRODUCT_DEFINITION('design','',#6,#9);
#6 = PRODUCT_DEFINITION_FORMATION('','',#7);
#7 = PRODUCT('Open CASCADE STEP translator 7.9 18',
  'Open CASCADE STEP translator 7.9 18','',(#8));
#8 = PRODUCT_CONTEXT('',#2,'mechanical');
#9 = PRODUCT_DEFINITION_CONTEXT('part definition',#2,'design');
#10 = ADVANCED_BREP_SHAPE_REPRESENTATION('',(#11,#15),#712);
#11 = AXIS2_PLACEMENT_3D('',#12,#13,#14);
#12 = CARTESIAN_POINT('',(0.,0.,0.));
#13 = DIRECTION('',(0.,0.,1.));
#14 = DIRECTION('',(1.,0.,-0.));
#15 = MANIFOLD_SOLID_BREP('',#16);
#16 = CLOSED_SHELL('',(#17,#389,#651,#685));
#17 = ADVANCED_FACE('',(#18),#125,.T.);
#18 = FACE_BOUND('',#19,.F.);
#19 = EDGE_LOOP('',(#20,#338,#361,#388));
#20 = ORIENTED_EDGE('',*,*,#21,.F.);
#21 = EDGE_CURVE('',#22,#22,#24,.T.);
#22 = VERTEX_POINT('',#23);
#23 = CARTESIAN_POINT('',(144.59143824457,230.99560952102,
    67.998498925932));
#24 = SURFACE_CURVE('',#25,(#124,#231),.PCURVE_S1.);
#25 = B_SPLINE_CURVE_WITH_KNOTS('',7,(#26,#27,#28,#29,#30,#31,#32,#33,
    #34,#35,#36,#37,#38,#39,#40,#41,#42,#43,#44,#45,#46,#47,#48,#49,#50,
    #51,#52,#53,#54,#55,#56,#57,#58,#59,#60,#61,#62,#63,#64,#65,#66,#67,
    #68,#69,#70,#71,#72,#73,#74,#75,#76,#77,#78,#79,#80,#81,#82,#83,#84,
    #85,#86,#87,#88,#89,#90,#91,#92,#93,#94,#95,#96,#97,#98,#99,#100,
    #101,#102,#103,#104,#105,#106,#107,#108,#109,#110,#111,#112,#113,
    #114,#115,#116,#117,#118,#119,#120,#121,#122,#123),.UNSPECIFIED.,.T.
  ,.F.,(8,6,6,6,6,6,6,6,6,6,6,6,6,6,6,6,8),(0.,4.61066747995E-02,
    7.646832905898E-02,0.116325965317,0.149887939423,0.249361703115,
    0.347048189269,0.42263186972,0.501712846356,0.577852227427,
    0.680767846586,0.749904130326,0.823010661346,0.883816549536,
    0.923625376657,0.953949850961,1.),.UNSPECIFIED.);
#26 = CARTESIAN_POINT('',(144.59143824457,230.99560952102,
    67.998498925933));
#27 = CARTESIAN_POINT('',(144.59143824457,231.39594503936,
    67.998498925933));
#28 = CARTESIAN_POINT('',(144.56791866262,231.79556965057,
    67.994818269742));
#29 = CARTESIAN_POINT('',(144.52103034446,232.19165849752,
    67.987480210764));
#30 = CARTESIAN_POINT('',(144.45147955443,232.58142320135,
    67.976662984465));
#31 = CARTESIAN_POINT('',(144.36051709473,232.96218249911,
    67.962692960135));
#32 = CARTESIAN_POINT('',(144.24993062562,233.33143146508,
    67.946017643739));
#33 = CARTESIAN_POINT('',(144.03782319817,233.92099463328,
    67.914739639432));
#34 = CARTESIAN_POINT('',(143.9460015637,234.14938910312,67.901358888888
    ));
#35 = CARTESIAN_POINT('',(143.84705165661,234.37184797104,
    67.887138645651));
#36 = CARTESIAN_POINT('',(143.74145468055,234.58815553903,
    67.872203545501));
#37 = CARTESIAN_POINT('',(143.62969691053,234.79812513061,
    67.856678305664));
#38 = CARTESIAN_POINT('',(143.512269934,235.00159905604,67.840685535912)
  );
#39 = CARTESIAN_POINT('',(143.22872748707,235.4568652158,67.802890405547
    ));
#40 = CARTESIAN_POINT('',(143.05882925538,235.70393250561,
    67.780829824666));
#41 = CARTESIAN_POINT('',(142.88088464377,235.93968218961,
    67.758401831432));
#42 = CARTESIAN_POINT('',(142.69572382719,236.16418914588,67.73582540226
    ));
#43 = CARTESIAN_POINT('',(142.50410542879,236.37756295904,
    67.713298418159));
#44 = CARTESIAN_POINT('',(142.3067232399,236.57993949149,67.690997617346
    ));
#45 = CARTESIAN_POINT('',(141.9336898965,236.93275207246,67.650621677063
    ));
#46 = CARTESIAN_POINT('',(141.75949639755,237.0863759596,67.632431791804
    ));
#47 = CARTESIAN_POINT('',(141.58197077327,237.23246586091,
    67.614598103046));
#48 = CARTESIAN_POINT('',(141.40142170142,237.37114128838,
    67.597200293029));
#49 = CARTESIAN_POINT('',(141.21812827923,237.50251951224,
    67.580309130968));
#50 = CARTESIAN_POINT('',(141.03234009523,237.62671555219,
    67.563987088751));
#51 = CARTESIAN_POINT('',(140.28688118713,238.09099175274,
    67.501761530072));
#52 = CARTESIAN_POINT('',(139.70931095242,238.37615786812,
    67.460698773341));
#53 = CARTESIAN_POINT('',(139.1175522479,238.60200255291,67.426561122784
    ));
#54 = CARTESIAN_POINT('',(138.5160509127,238.77070015197,67.400267190871
    ));
#55 = CARTESIAN_POINT('',(137.90828909207,238.88379542355,
    67.382365030822));
#56 = CARTESIAN_POINT('',(137.29724282534,238.94207985515,
    67.373130176428));
#57 = CARTESIAN_POINT('',(136.0851867918,238.94883131918,67.372060434959
    ));
#58 = CARTESIAN_POINT('',(135.4847696569,238.89924939307,67.379916378018
    ));
#59 = CARTESIAN_POINT('',(134.88715676025,238.79685345202,
    67.396154682766));
#60 = CARTESIAN_POINT('',(134.29515772886,238.64096852776,
    67.420539001078));
#61 = CARTESIAN_POINT('',(133.71201469123,238.4302225719,67.452582511156
    ));
#62 = CARTESIAN_POINT('',(133.1418120278,238.1626491752,67.491464082576)
  );
#63 = CARTESIAN_POINT('',(132.16301749199,237.58290827613,
    67.570243300491));
#64 = CARTESIAN_POINT('',(131.74675857834,237.29435615688,
    67.607944481127));
#65 = CARTESIAN_POINT('',(131.34375071567,236.96892037875,
    67.648384380296));
#66 = CARTESIAN_POINT('',(130.95718187259,236.60528069218,
    67.690784253266));
#67 = CARTESIAN_POINT('',(130.59099516211,236.20213391463,
    67.734119196802));
#68 = CARTESIAN_POINT('',(130.25006556593,235.75837743259,
    67.777080950345));
#69 = CARTESIAN_POINT('',(129.61649748866,234.76590921168,
    67.860952378877));
#70 = CARTESIAN_POINT('',(129.32290783676,234.20715812931,
    67.902193759313));
#71 = CARTESIAN_POINT('',(129.07333565334,233.60260083311,
    67.939175316412));
#72 = CARTESIAN_POINT('',(128.87871991011,232.96006393561,
    67.969152374502));
#73 = CARTESIAN_POINT('',(128.74723282589,232.28924332507,
    67.989769015001));
#74 = CARTESIAN_POINT('',(128.68419943786,231.60107890885,
    67.999631699772));
#75 = CARTESIAN_POINT('',(128.69937608951,230.23882759778,
    67.997256757312));
#76 = CARTESIAN_POINT('',(128.77226830789,229.57874210073,
    67.985851249012));
#77 = CARTESIAN_POINT('',(128.90788493544,228.93674533976,67.96467135759
    ));
#78 = CARTESIAN_POINT('',(129.10107480812,228.32222094858,
    67.935075397781));
#79 = CARTESIAN_POINT('',(129.3443869255,227.7434393084,67.899182740164)
  );
#80 = CARTESIAN_POINT('',(129.62813617084,227.20707813181,67.85941165589
    ));
#81 = CARTESIAN_POINT('',(130.36258397711,226.05658439042,
    67.762185818756));
#82 = CARTESIAN_POINT('',(130.84275157959,225.4722709175,67.702656256075
    ));
#83 = CARTESIAN_POINT('',(131.36564734622,224.96298629603,
    67.643523648984));
#84 = CARTESIAN_POINT('',(131.92012912879,224.52539565687,
    67.587822656889));
#85 = CARTESIAN_POINT('',(132.49800705025,224.15588712966,
    67.537585316567));
#86 = CARTESIAN_POINT('',(133.09328229003,223.85125066061,
    67.494204832222));
#87 = CARTESIAN_POINT('',(134.1103825855,223.44645354266,67.434713693319
    ));
#88 = CARTESIAN_POINT('',(134.52500109916,223.31200116303,
    67.414326411492));
#89 = CARTESIAN_POINT('',(134.94406087609,223.20510931517,
    67.397752621719));
#90 = CARTESIAN_POINT('',(135.36630644708,223.12527907793,
    67.385194407882));
#91 = CARTESIAN_POINT('',(135.79063140404,223.07216967557,
    67.376779335451));
#92 = CARTESIAN_POINT('',(136.2160115048,223.04560952102,67.372570915358
    ));
#93 = CARTESIAN_POINT('',(137.09129570675,223.04560952102,
    67.372570915358));
#94 = CARTESIAN_POINT('',(137.54109098027,223.07530781155,
    67.377276571855));
#95 = CARTESIAN_POINT('',(137.9896372593,223.13468894424,67.386685375163
    ));
#96 = CARTESIAN_POINT('',(138.4357279494,223.22396825928,67.400718080365
    ));
#97 = CARTESIAN_POINT('',(138.87804785843,223.34357335091,
    67.419215457763));
#98 = CARTESIAN_POINT('',(139.3150835675,223.49412862118,67.441923644214
    ));
#99 = CARTESIAN_POINT('',(140.10264064956,223.82808167203,
    67.490546272311));
#100 = CARTESIAN_POINT('',(140.45533801924,224.00168819537,
    67.515277933193));
#101 = CARTESIAN_POINT('',(140.8021744166,224.19776219,67.542452563875)
  );
#102 = CARTESIAN_POINT('',(141.14201386265,224.41691161514,
    67.57180445704));
#103 = CARTESIAN_POINT('',(141.473478017,224.65981605329,67.602995560155
    ));
#104 = CARTESIAN_POINT('',(141.79488912083,224.9271900723,
    67.635598323443));
#105 = CARTESIAN_POINT('',(142.30672323642,225.41127954725,
    67.690997616969));
#106 = CARTESIAN_POINT('',(142.5041054319,225.61365608701,
    67.713298418539));
#107 = CARTESIAN_POINT('',(142.69572382996,225.82702989885,
    67.735825402564));
#108 = CARTESIAN_POINT('',(142.88088464149,226.05153684884,
    67.75840183113));
#109 = CARTESIAN_POINT('',(143.05882925217,226.28728653259,
    67.780829824285));
#110 = CARTESIAN_POINT('',(143.22872748987,226.53435383073,
    67.802890405921));
#111 = CARTESIAN_POINT('',(143.512269934,226.98961998599,67.840685535911
    ));
#112 = CARTESIAN_POINT('',(143.62969691053,227.19309391143,
    67.856678305664));
#113 = CARTESIAN_POINT('',(143.74145468055,227.40306350301,
    67.872203545501));
#114 = CARTESIAN_POINT('',(143.84705165661,227.61937107099,
    67.887138645651));
#115 = CARTESIAN_POINT('',(143.9460015637,227.84182993892,
    67.901358888888));
#116 = CARTESIAN_POINT('',(144.03782319817,228.07022440875,
    67.914739639432));
#117 = CARTESIAN_POINT('',(144.24993044529,228.65978707572,
    67.946017617148));
#118 = CARTESIAN_POINT('',(144.3605170249,229.02903617328,
    67.962692948737));
#119 = CARTESIAN_POINT('',(144.45147967476,229.40979605748,
    67.976663002519));
#120 = CARTESIAN_POINT('',(144.52103056651,229.79956151191,
    67.987480245376));
#121 = CARTESIAN_POINT('',(144.56791882243,230.19565089414,
    67.994818294805));
#122 = CARTESIAN_POINT('',(144.59143824457,230.59527536544,
    67.998498925933));
#123 = CARTESIAN_POINT('',(144.59143824457,230.99560952102,
    67.998498925933));
#124 = PCURVE('',#125,#130);
#125 = CYLINDRICAL_SURFACE('',#126,7.95);
#126 = AXIS2_PLACEMENT_3D('',#127,#128,#129);
#127 = CARTESIAN_POINT('',(136.64143824457,230.99560952102,
    63.998498925933));
#128 = DIRECTION('',(-0.,-0.,-1.));
#129 = DIRECTION('',(1.,0.,0.));
#130 = DEFINITIONAL_REPRESENTATION('',(#131),#230);
#131 = B_SPLINE_CURVE_WITH_KNOTS('',7,(#132,#133,#134,#135,#136,#137,
    #138,#139,#140,#141,#142,#143,#144,#145,#146,#147,#148,#149,#150,
    #151,#152,#153,#154,#155,#156,#157,#158,#159,#160,#161,#162,#163,
    #164,#165,#166,#167,#168,#169,#170,#171,#172,#173,#174,#175,#176,
    #177,#178,#179,#180,#181,#182,#183,#184,#185,#186,#187,#188,#189,
    #190,#191,#192,#193,#194,#195,#196,#197,#198,#199,#200,#201,#202,
    #203,#204,#205,#206,#207,#208,#209,#210,#211,#212,#213,#214,#215,
    #216,#217,#218,#219,#220,#221,#222,#223,#224,#225,#226,#227,#228,
    #229),.UNSPECIFIED.,.F.,.F.,(8,6,6,6,6,6,6,6,6,6,6,6,6,6,6,6,8),(0.,
    4.61066747995E-02,7.646832905898E-02,0.116325965317,0.149887939423,
    0.249361703115,0.347048189269,0.42263186972,0.501712846356,
    0.577852227427,0.680767846586,0.749904130326,0.823010661346,
    0.883816549536,0.923625376657,0.953949850961,1.),.UNSPECIFIED.);
#132 = CARTESIAN_POINT('',(0.,-4.));
#133 = CARTESIAN_POINT('',(-5.03566689743E-02,-4.));
#134 = CARTESIAN_POINT('',(-0.100623912379,-3.99631934381));
#135 = CARTESIAN_POINT('',(-0.150654990723,-3.988981284831));
#136 = CARTESIAN_POINT('',(-0.200304332246,-3.978164058532));
#137 = CARTESIAN_POINT('',(-0.24941938403,-3.964194034202));
#138 = CARTESIAN_POINT('',(-0.297832431155,-3.947518717807));
#139 = CARTESIAN_POINT('',(-0.376644694229,-3.9162407135));
#140 = CARTESIAN_POINT('',(-0.40758726972,-3.902859962955));
#141 = CARTESIAN_POINT('',(-0.438180875641,-3.888639719718));
#142 = CARTESIAN_POINT('',(-0.468424542372,-3.873704619568));
#143 = CARTESIAN_POINT('',(-0.498315555224,-3.858179379732));
#144 = CARTESIAN_POINT('',(-0.527849444246,-3.842186609979));
#145 = CARTESIAN_POINT('',(-0.595313946961,-3.804391479614));
#146 = CARTESIAN_POINT('',(-0.632991651696,-3.782330898733));
#147 = CARTESIAN_POINT('',(-0.670087622051,-3.7599029055));
#148 = CARTESIAN_POINT('',(-0.706633302437,-3.737326476328));
#149 = CARTESIAN_POINT('',(-0.742657640976,-3.714799492226));
#150 = CARTESIAN_POINT('',(-0.778187682589,-3.692498691413));
#151 = CARTESIAN_POINT('',(-0.842772550286,-3.65212275113));
#152 = CARTESIAN_POINT('',(-0.871969670174,-3.633932865872));
#153 = CARTESIAN_POINT('',(-0.900862123457,-3.616099177113));
#154 = CARTESIAN_POINT('',(-0.929469932055,-3.598701367096));
#155 = CARTESIAN_POINT('',(-0.957812220991,-3.581810205036));
#156 = CARTESIAN_POINT('',(-0.98590790127,-3.565488162818));
#157 = CARTESIAN_POINT('',(-1.096375181674,-3.50326260414));
#158 = CARTESIAN_POINT('',(-1.177006654305,-3.462199847408));
#159 = CARTESIAN_POINT('',(-1.256126894477,-3.428062196852));
#160 = CARTESIAN_POINT('',(-1.334134529782,-3.401768264938));
#161 = CARTESIAN_POINT('',(-1.411402793666,-3.383866104889));
#162 = CARTESIAN_POINT('',(-1.488303962422,-3.374631250495));
#163 = CARTESIAN_POINT('',(-1.640766206081,-3.373561509027));
#164 = CARTESIAN_POINT('',(-1.716254770953,-3.381417452085));
#165 = CARTESIAN_POINT('',(-1.792056291231,-3.397655756833));
#166 = CARTESIAN_POINT('',(-1.868520483122,-3.422040075145));
#167 = CARTESIAN_POINT('',(-1.945997818808,-3.454083585224));
#168 = CARTESIAN_POINT('',(-2.02486144374,-3.492965156643));
#169 = CARTESIAN_POINT('',(-2.167956031783,-3.571744374558));
#170 = CARTESIAN_POINT('',(-2.231503445656,-3.609445555194));
#171 = CARTESIAN_POINT('',(-2.296377700618,-3.649885454364));
#172 = CARTESIAN_POINT('',(-2.362781912564,-3.692285327333));
#173 = CARTESIAN_POINT('',(-2.430928650316,-3.735620270869));
#174 = CARTESIAN_POINT('',(-2.501052982917,-3.778582024413));
#175 = CARTESIAN_POINT('',(-2.649160604922,-3.862453452944));
#176 = CARTESIAN_POINT('',(-2.728272898257,-3.90369483338));
#177 = CARTESIAN_POINT('',(-2.809971539285,-3.940676390479));
#178 = CARTESIAN_POINT('',(-2.893682349666,-3.970653448569));
#179 = CARTESIAN_POINT('',(-2.978959981066,-3.991270089068));
#180 = CARTESIAN_POINT('',(-3.065427794993,-4.001132773839));
#181 = CARTESIAN_POINT('',(-3.236790794858,-3.998757831379));
#182 = CARTESIAN_POINT('',(-3.319917373285,-3.987352323079));
#183 = CARTESIAN_POINT('',(-3.401826962921,-3.966172431657));
#184 = CARTESIAN_POINT('',(-3.482204633628,-3.936576471848));
#185 = CARTESIAN_POINT('',(-3.560673071298,-3.900683814232));
#186 = CARTESIAN_POINT('',(-3.636745447829,-3.860912729957));
#187 = CARTESIAN_POINT('',(-3.808435471326,-3.763686892824));
#188 = CARTESIAN_POINT('',(-3.902886271827,-3.704157330142));
#189 = CARTESIAN_POINT('',(-3.993843039635,-3.645024723051));
#190 = CARTESIAN_POINT('',(-4.081872856072,-3.589323730957));
#191 = CARTESIAN_POINT('',(-4.167510015964,-3.539086390635));
#192 = CARTESIAN_POINT('',(-4.251249545876,-3.495705906289));
#193 = CARTESIAN_POINT('',(-4.388946833362,-3.436214767386));
#194 = CARTESIAN_POINT('',(-4.443657278787,-3.415827485559));
#195 = CARTESIAN_POINT('',(-4.497881414754,-3.399253695786));
#196 = CARTESIAN_POINT('',(-4.551744815169,-3.386695481949));
#197 = CARTESIAN_POINT('',(-4.605369225414,-3.378280409518));
#198 = CARTESIAN_POINT('',(-4.65887618293,-3.374071989425));
#199 = CARTESIAN_POINT('',(-4.768974824684,-3.374071989425));
#200 = CARTESIAN_POINT('',(-4.825552886707,-3.378777645923));
#201 = CARTESIAN_POINT('',(-4.882269602245,-3.388186449231));
#202 = CARTESIAN_POINT('',(-4.939269257289,-3.402219154433));
#203 = CARTESIAN_POINT('',(-4.996696347481,-3.42071653183));
#204 = CARTESIAN_POINT('',(-5.05470041483,-3.443424718281));
#205 = CARTESIAN_POINT('',(-5.162302430906,-3.492047346379));
#206 = CARTESIAN_POINT('',(-5.211671372051,-3.516779007261));
#207 = CARTESIAN_POINT('',(-5.261655985574,-3.543953637943));
#208 = CARTESIAN_POINT('',(-5.312362073934,-3.573305531107));
#209 = CARTESIAN_POINT('',(-5.36389872266,-3.604496634222));
#210 = CARTESIAN_POINT('',(-5.41638158142,-3.637099397511));
#211 = CARTESIAN_POINT('',(-5.504997623988,-3.692498691036));
#212 = CARTESIAN_POINT('',(-5.540527666847,-3.714799492606));
#213 = CARTESIAN_POINT('',(-5.576552005228,-3.737326476632));
#214 = CARTESIAN_POINT('',(-5.613097684595,-3.759902905198));
#215 = CARTESIAN_POINT('',(-5.65019365485,-3.782330898353));
#216 = CARTESIAN_POINT('',(-5.687871360886,-3.804391479988));
#217 = CARTESIAN_POINT('',(-5.755335862933,-3.842186609979));
#218 = CARTESIAN_POINT('',(-5.784869751956,-3.858179379732));
#219 = CARTESIAN_POINT('',(-5.814760764808,-3.873704619569));
#220 = CARTESIAN_POINT('',(-5.845004431539,-3.888639719719));
#221 = CARTESIAN_POINT('',(-5.875598037459,-3.902859962955));
#222 = CARTESIAN_POINT('',(-5.90654061295,-3.916240713499));
#223 = CARTESIAN_POINT('',(-5.98535280902,-3.947518691215));
#224 = CARTESIAN_POINT('',(-6.033765876419,-3.964194022804));
#225 = CARTESIAN_POINT('',(-6.082881004986,-3.978164076586));
#226 = CARTESIAN_POINT('',(-6.132530440271,-3.988981319443));
#227 = CARTESIAN_POINT('',(-6.182561583814,-3.996319368872));
#228 = CARTESIAN_POINT('',(-6.232828809623,-4.));
#229 = CARTESIAN_POINT('',(-6.28318530718,-4.));
#230 = ( GEOMETRIC_REPRESENTATION_CONTEXT(2) 
PARAMETRIC_REPRESENTATION_CONTEXT() REPRESENTATION_CONTEXT('2D SPACE',''
  ) );
#231 = PCURVE('',#232,#237);
#232 = CYLINDRICAL_SURFACE('',#233,50.8);
#233 = AXIS2_PLACEMENT_3D('',#234,#235,#236);
#234 = CARTESIAN_POINT('',(120.74143824457,230.99560952102,
    17.198498925933));
#235 = DIRECTION('',(-1.,-0.,-0.));
#236 = DIRECTION('',(0.,1.,0.));
#237 = DEFINITIONAL_REPRESENTATION('',(#238),#337);
#238 = B_SPLINE_CURVE_WITH_KNOTS('',7,(#239,#240,#241,#242,#243,#244,
    #245,#246,#247,#248,#249,#250,#251,#252,#253,#254,#255,#256,#257,
    #258,#259,#260,#261,#262,#263,#264,#265,#266,#267,#268,#269,#270,
    #271,#272,#273,#274,#275,#276,#277,#278,#279,#280,#281,#282,#283,
    #284,#285,#286,#287,#288,#289,#290,#291,#292,#293,#294,#295,#296,
    #297,#298,#299,#300,#301,#302,#303,#304,#305,#306,#307,#308,#309,
    #310,#311,#312,#313,#314,#315,#316,#317,#318,#319,#320,#321,#322,
    #323,#324,#325,#326,#327,#328,#329,#330,#331,#332,#333,#334,#335,
    #336),.UNSPECIFIED.,.T.,.F.,(8,6,6,6,6,6,6,6,6,6,6,6,6,6,6,6,8),(0.,
    4.61066747995E-02,7.646832905898E-02,0.116325965317,0.149887939423,
    0.249361703115,0.347048189269,0.42263186972,0.501712846356,
    0.577852227427,0.680767846586,0.749904130326,0.823010661346,
    0.883816549536,0.923625376657,0.953949850961,1.),.UNSPECIFIED.);
#239 = CARTESIAN_POINT('',(-1.570796326795,-23.85));
#240 = CARTESIAN_POINT('',(-1.562915706355,-23.85));
#241 = CARTESIAN_POINT('',(-1.555049079693,-23.82648041805));
#242 = CARTESIAN_POINT('',(-1.547251257432,-23.77959209988));
#243 = CARTESIAN_POINT('',(-1.539576335896,-23.71004130985));
#244 = CARTESIAN_POINT('',(-1.532076470465,-23.61907885016));
#245 = CARTESIAN_POINT('',(-1.524800606896,-23.50849238104));
#246 = CARTESIAN_POINT('',(-1.513178711644,-23.2963849536));
#247 = CARTESIAN_POINT('',(-1.508675116997,-23.20456331913));
#248 = CARTESIAN_POINT('',(-1.50428716435,-23.10561341203));
#249 = CARTESIAN_POINT('',(-1.500019098816,-23.00001643598));
#250 = CARTESIAN_POINT('',(-1.495874628827,-22.88825866595));
#251 = CARTESIAN_POINT('',(-1.491856922055,-22.77083168943));
#252 = CARTESIAN_POINT('',(-1.482864160292,-22.48728924249));
#253 = CARTESIAN_POINT('',(-1.477981376271,-22.31739101081));
#254 = CARTESIAN_POINT('',(-1.47331980087,-22.1394463992));
#255 = CARTESIAN_POINT('',(-1.468878188784,-21.95428558261));
#256 = CARTESIAN_POINT('',(-1.464654645812,-21.76266718422));
#257 = CARTESIAN_POINT('',(-1.46064677688,-21.56528499533));
#258 = CARTESIAN_POINT('',(-1.453656316624,-21.19225165193));
#259 = CARTESIAN_POINT('',(-1.450611122728,-21.01805815298));
#260 = CARTESIAN_POINT('',(-1.447714018142,-20.8405325287));
#261 = CARTESIAN_POINT('',(-1.444962812632,-20.65998345685));
#262 = CARTESIAN_POINT('',(-1.442355356728,-20.47669003465));
#263 = CARTESIAN_POINT('',(-1.439889538476,-20.29090185066));
#264 = CARTESIAN_POINT('',(-1.430668522852,-19.54544294256));
#265 = CARTESIAN_POINT('',(-1.424997386343,-18.96787270784));
#266 = CARTESIAN_POINT('',(-1.420501231019,-18.37611400333));
#267 = CARTESIAN_POINT('',(-1.417140319173,-17.77461266812));
#268 = CARTESIAN_POINT('',(-1.414886322264,-17.1668508475));
#269 = CARTESIAN_POINT('',(-1.413724676406,-16.55580458076));
#270 = CARTESIAN_POINT('',(-1.413590115643,-15.34374854722));
#271 = CARTESIAN_POINT('',(-1.414578314826,-14.74333141232));
#272 = CARTESIAN_POINT('',(-1.416619165593,-14.14571851567));
#273 = CARTESIAN_POINT('',(-1.419725082753,-13.55371948429));
#274 = CARTESIAN_POINT('',(-1.423921218743,-12.97057644666));
#275 = CARTESIAN_POINT('',(-1.429243505677,-12.40037378323));
#276 = CARTESIAN_POINT('',(-1.440760610975,-11.42157924742));
#277 = CARTESIAN_POINT('',(-1.446488972949,-11.00532033377));
#278 = CARTESIAN_POINT('',(-1.452944246673,-10.6023124711));
#279 = CARTESIAN_POINT('',(-1.460150586729,-10.21574362802));
#280 = CARTESIAN_POINT('',(-1.468131631352,-9.849556917539));
#281 = CARTESIAN_POINT('',(-1.476907183691,-9.508627321361));
#282 = CARTESIAN_POINT('',(-1.496513597397,-8.875059244091));
#283 = CARTESIAN_POINT('',(-1.507541929543,-8.581469592192));
#284 = CARTESIAN_POINT('',(-1.519463352112,-8.331897408767));
#285 = CARTESIAN_POINT('',(-1.532122874277,-8.137281665539));
#286 = CARTESIAN_POINT('',(-1.545331431734,-8.005794581319));
#287 = CARTESIAN_POINT('',(-1.558877618179,-7.942761193286));
#288 = CARTESIAN_POINT('',(-1.585693629622,-7.95793784494));
#289 = CARTESIAN_POINT('',(-1.598687811616,-8.030830063323));
#290 = CARTESIAN_POINT('',(-1.611329961012,-8.166446690867));
#291 = CARTESIAN_POINT('',(-1.623438661493,-8.359636563551));
#292 = CARTESIAN_POINT('',(-1.634852512412,-8.602948680934));
#293 = CARTESIAN_POINT('',(-1.645439227145,-8.886697926266));
#294 = CARTESIAN_POINT('',(-1.668167467491,-9.621145732539));
#295 = CARTESIAN_POINT('',(-1.679727524927,-10.10131333502));
#296 = CARTESIAN_POINT('',(-1.689818872701,-10.62420910164));
#297 = CARTESIAN_POINT('',(-1.698501730833,-11.17869088422));
#298 = CARTESIAN_POINT('',(-1.705842188768,-11.75656880567));
#299 = CARTESIAN_POINT('',(-1.711899406293,-12.35184404545));
#300 = CARTESIAN_POINT('',(-1.719953448252,-13.36894434093));
#301 = CARTESIAN_POINT('',(-1.722630374782,-13.78356285458));
#302 = CARTESIAN_POINT('',(-1.724759676403,-14.20262263151));
#303 = CARTESIAN_POINT('',(-1.726350462785,-14.62486820251));
#304 = CARTESIAN_POINT('',(-1.727408965273,-15.04919315947));
#305 = CARTESIAN_POINT('',(-1.727938325561,-15.47457326023));
#306 = CARTESIAN_POINT('',(-1.727938325561,-16.34985746217));
#307 = CARTESIAN_POINT('',(-1.727346420225,-16.7996527357));
#308 = CARTESIAN_POINT('',(-1.726162918562,-17.24819901472));
#309 = CARTESIAN_POINT('',(-1.724383875955,-17.69428970483));
#310 = CARTESIAN_POINT('',(-1.722001471324,-18.13660961385));
#311 = CARTESIAN_POINT('',(-1.719004302271,-18.57364532293));
#312 = CARTESIAN_POINT('',(-1.712361110394,-19.36120240499));
#313 = CARTESIAN_POINT('',(-1.708909175301,-19.71389977467));
#314 = CARTESIAN_POINT('',(-1.705012599625,-20.06073617203));
#315 = CARTESIAN_POINT('',(-1.70066020441,-20.40057561808));
#316 = CARTESIAN_POINT('',(-1.695839505641,-20.73203977242));
#317 = CARTESIAN_POINT('',(-1.690537394815,-21.05345087626));
#318 = CARTESIAN_POINT('',(-1.680945876775,-21.56528499185));
#319 = CARTESIAN_POINT('',(-1.676938007699,-21.76266718733));
#320 = CARTESIAN_POINT('',(-1.672714464752,-21.95428558539));
#321 = CARTESIAN_POINT('',(-1.66827285279,-22.13944639692));
#322 = CARTESIAN_POINT('',(-1.663611277395,-22.31739100759));
#323 = CARTESIAN_POINT('',(-1.658728493209,-22.4872892453));
#324 = CARTESIAN_POINT('',(-1.649735731535,-22.77083168942));
#325 = CARTESIAN_POINT('',(-1.645718024762,-22.88825866595));
#326 = CARTESIAN_POINT('',(-1.641573554774,-23.00001643598));
#327 = CARTESIAN_POINT('',(-1.637305489239,-23.10561341203));
#328 = CARTESIAN_POINT('',(-1.632917536593,-23.20456331913));
#329 = CARTESIAN_POINT('',(-1.628413941945,-23.2963849536));
#330 = CARTESIAN_POINT('',(-1.616792056574,-23.50849220072));
#331 = CARTESIAN_POINT('',(-1.609516190402,-23.61907878033));
#332 = CARTESIAN_POINT('',(-1.602016313416,-23.71004143018));
#333 = CARTESIAN_POINT('',(-1.594341377106,-23.77959232193));
#334 = CARTESIAN_POINT('',(-1.586543544317,-23.82648057786));
#335 = CARTESIAN_POINT('',(-1.578676920409,-23.85));
#336 = CARTESIAN_POINT('',(-1.570796326795,-23.85));
#337 = ( GEOMETRIC_REPRESENTATION_CONTEXT(2) 
PARAMETRIC_REPRESENTATION_CONTEXT() REPRESENTATION_CONTEXT('2D SPACE',''
  ) );
#338 = ORIENTED_EDGE('',*,*,#339,.T.);
#339 = EDGE_CURVE('',#22,#340,#342,.T.);
#340 = VERTEX_POINT('',#341);
#341 = CARTESIAN_POINT('',(144.59143824457,230.99560952102,
    80.698498925933));
#342 = SEAM_CURVE('',#343,(#347,#354),.PCURVE_S1.);
#343 = LINE('',#344,#345);
#344 = CARTESIAN_POINT('',(144.59143824457,230.99560952102,
    63.998498925933));
#345 = VECTOR('',#346,1.);
#346 = DIRECTION('',(0.,0.,1.));
#347 = PCURVE('',#125,#348);
#348 = DEFINITIONAL_REPRESENTATION('',(#349),#353);
#349 = LINE('',#350,#351);
#350 = CARTESIAN_POINT('',(-6.28318530718,0.));
#351 = VECTOR('',#352,1.);
#352 = DIRECTION('',(-0.,-1.));
#353 = ( GEOMETRIC_REPRESENTATION_CONTEXT(2) 
PARAMETRIC_REPRESENTATION_CONTEXT() REPRESENTATION_CONTEXT('2D SPACE',''
  ) );
#354 = PCURVE('',#125,#355);
#355 = DEFINITIONAL_REPRESENTATION('',(#356),#360);
#356 = LINE('',#357,#358);
#357 = CARTESIAN_POINT('',(-0.,0.));
#358 = VECTOR('',#359,1.);
#359 = DIRECTION('',(-0.,-1.));
#360 = ( GEOMETRIC_REPRESENTATION_CONTEXT(2) 
PARAMETRIC_REPRESENTATION_CONTEXT() REPRESENTATION_CONTEXT('2D SPACE',''
  ) );
#361 = ORIENTED_EDGE('',*,*,#362,.T.);
#362 = EDGE_CURVE('',#340,#340,#363,.T.);
#363 = SURFACE_CURVE('',#364,(#369,#376),.PCURVE_S1.);
#364 = CIRCLE('',#365,7.95);
#365 = AXIS2_PLACEMENT_3D('',#366,#367,#368);
#366 = CARTESIAN_POINT('',(136.64143824457,230.99560952102,
    80.698498925933));
#367 = DIRECTION('',(0.,0.,1.));
#368 = DIRECTION('',(1.,0.,0.));
#369 = PCURVE('',#125,#370);
#370 = DEFINITIONAL_REPRESENTATION('',(#371),#375);
#371 = LINE('',#372,#373);
#372 = CARTESIAN_POINT('',(-0.,-16.7));
#373 = VECTOR('',#374,1.);
#374 = DIRECTION('',(-1.,0.));
#375 = ( GEOMETRIC_REPRESENTATION_CONTEXT(2) 
PARAMETRIC_REPRESENTATION_CONTEXT() REPRESENTATION_CONTEXT('2D SPACE',''
  ) );
#376 = PCURVE('',#377,#382);
#377 = PLANE('',#378);
#378 = AXIS2_PLACEMENT_3D('',#379,#380,#381);
#379 = CARTESIAN_POINT('',(136.64143824457,230.99560952102,
    80.698498925933));
#380 = DIRECTION('',(0.,0.,1.));
#381 = DIRECTION('',(1.,0.,-0.));
#382 = DEFINITIONAL_REPRESENTATION('',(#383),#387);
#383 = CIRCLE('',#384,7.95);
#384 = AXIS2_PLACEMENT_2D('',#385,#386);
#385 = CARTESIAN_POINT('',(-2.84217094304E-14,0.));
#386 = DIRECTION('',(1.,0.));
#387 = ( GEOMETRIC_REPRESENTATION_CONTEXT(2) 
PARAMETRIC_REPRESENTATION_CONTEXT() REPRESENTATION_CONTEXT('2D SPACE',''
  ) );
#388 = ORIENTED_EDGE('',*,*,#339,.F.);
#389 = ADVANCED_FACE('',(#390,#393),#232,.F.);
#390 = FACE_BOUND('',#391,.T.);
#391 = EDGE_LOOP('',(#392));
#392 = ORIENTED_EDGE('',*,*,#21,.F.);
#393 = FACE_BOUND('',#394,.T.);
#394 = EDGE_LOOP('',(#395));
#395 = ORIENTED_EDGE('',*,*,#396,.T.);
#396 = EDGE_CURVE('',#397,#397,#399,.T.);
#397 = VERTEX_POINT('',#398);
#398 = CARTESIAN_POINT('',(140.99143824457,230.99560952102,
    67.998498925933));
#399 = SURFACE_CURVE('',#400,(#480,#563),.PCURVE_S1.);
#400 = B_SPLINE_CURVE_WITH_KNOTS('',8,(#401,#402,#403,#404,#405,#406,
    #407,#408,#409,#410,#411,#412,#413,#414,#415,#416,#417,#418,#419,
    #420,#421,#422,#423,#424,#425,#426,#427,#428,#429,#430,#431,#432,
    #433,#434,#435,#436,#437,#438,#439,#440,#441,#442,#443,#444,#445,
    #446,#447,#448,#449,#450,#451,#452,#453,#454,#455,#456,#457,#458,
    #459,#460,#461,#462,#463,#464,#465,#466,#467,#468,#469,#470,#471,
    #472,#473,#474,#475,#476,#477,#478,#479),.UNSPECIFIED.,.T.,.F.,(9,7,
    7,7,7,7,7,7,7,7,7,9),(0.,4.871092690416E-02,0.122865038476,
    0.182102145084,0.249168646262,0.426222109776,0.54833454768,
    0.679238299797,0.819999136276,0.87855307758,0.951851990122,1.),
  .UNSPECIFIED.);
#401 = CARTESIAN_POINT('',(140.99143824457,230.99560952102,
    67.998498925933));
#402 = CARTESIAN_POINT('',(140.99143824457,231.19610494272,
    67.998498925933));
#403 = CARTESIAN_POINT('',(140.9808770391,231.3962847776,67.997594592012
    ));
#404 = CARTESIAN_POINT('',(140.95981301541,231.5950759629,
    67.995790828569));
#405 = CARTESIAN_POINT('',(140.9284768501,231.79141767652,
    67.993119744715));
#406 = CARTESIAN_POINT('',(140.88726860705,231.98427911723,
    67.989639620635));
#407 = CARTESIAN_POINT('',(140.83675502868,232.17267703066,
    67.985431976692));
#408 = CARTESIAN_POINT('',(140.77766702079,232.35569298134,
    67.980596745273));
#409 = CARTESIAN_POINT('',(140.60925182023,232.8016343622,
    67.967099252546));
#410 = CARTESIAN_POINT('',(140.48983372999,233.05628955645,
    67.957759551765));
#411 = CARTESIAN_POINT('',(140.35492974703,233.29584144413,
    67.947551670361));
#412 = CARTESIAN_POINT('',(140.20665149632,233.51990095771,
    67.936791356548));
#413 = CARTESIAN_POINT('',(140.04695531463,233.7282729326,
    67.925770167904));
#414 = CARTESIAN_POINT('',(139.87766052152,233.92092717695,
    67.914745929146));
#415 = CARTESIAN_POINT('',(139.70046618752,234.09797214978,
    67.903938359195));
#416 = CARTESIAN_POINT('',(139.37037983435,234.38877064367,
    67.885215171055));
#417 = CARTESIAN_POINT('',(139.2194704099,234.50835557981,
    67.877138119969));
#418 = CARTESIAN_POINT('',(139.06483266526,234.6185974532,
    67.869382628157));
#419 = CARTESIAN_POINT('',(138.90698251773,234.71970661312,
    67.862019182738));
#420 = CARTESIAN_POINT('',(138.74636645455,234.81188650056,
    67.85510643504));
#421 = CARTESIAN_POINT('',(138.58337072472,234.89532778818,
    67.848692791568));
#422 = CARTESIAN_POINT('',(138.41833053071,234.97020252018,
    67.842818004973));
#423 = CARTESIAN_POINT('',(138.06270302864,235.11189746775,
    67.831510593512));
#424 = CARTESIAN_POINT('',(137.87162282905,235.1763450322,
    67.826239155171));
#425 = CARTESIAN_POINT('',(137.67875232843,235.23020417538,
    67.821748329807));
#426 = CARTESIAN_POINT('',(137.48449168574,235.27364325123,
    67.818074626518));
#427 = CARTESIAN_POINT('',(137.28919938001,235.30679333418,
    67.815244294653));
#428 = CARTESIAN_POINT('',(137.09320407848,235.32974581554,
    67.813274434786));
#429 = CARTESIAN_POINT('',(136.8968165047,235.34254999991,
    67.812174109667));
#430 = CARTESIAN_POINT('',(136.18165293461,235.35223487041,
    67.811341814555));
#431 = CARTESIAN_POINT('',(135.6641853504,235.28854064181,
    67.816814775423));
#432 = CARTESIAN_POINT('',(135.15193879994,235.15510652196,
    67.828317052335));
#433 = CARTESIAN_POINT('',(134.64967336603,234.94954008273,
    67.845545978578));
#434 = CARTESIAN_POINT('',(134.16461199227,234.66725525989,
    67.867834791821));
#435 = CARTESIAN_POINT('',(133.70799111888,234.30254870716,
    67.893893245902));
#436 = CARTESIAN_POINT('',(133.29622391863,233.84948029208,
    67.921198770382));
#437 = CARTESIAN_POINT('',(132.72000910386,232.92980895208,
    67.96305428338));
#438 = CARTESIAN_POINT('',(132.51127838675,232.4995629632,67.97945543484
    ));
#439 = CARTESIAN_POINT('',(132.35069583169,232.02415562233,
    67.993108602894));
#440 = CARTESIAN_POINT('',(132.253042061,231.51762375058,68.001889041243
    ));
#441 = CARTESIAN_POINT('',(132.226238585,230.99733391314,68.004245039699
    ));
#442 = CARTESIAN_POINT('',(132.27126684626,230.48179366144,
    68.000091500435));
#443 = CARTESIAN_POINT('',(132.38197983126,229.98857938199,
    67.990566389711));
#444 = CARTESIAN_POINT('',(132.71953976629,229.04348178319,
    67.963334053345));
#445 = CARTESIAN_POINT('',(132.95213084975,228.60284725158,
    67.945251428062));
#446 = CARTESIAN_POINT('',(133.22868561308,228.21276821669,
    67.925099884476));
#447 = CARTESIAN_POINT('',(133.53832166439,227.8730578325,
    67.904603281736));
#448 = CARTESIAN_POINT('',(133.87234548874,227.58236015829,
    67.885069230088));
#449 = CARTESIAN_POINT('',(134.22381995843,227.33875031977,
    67.867403827141));
#450 = CARTESIAN_POINT('',(134.5873270833,227.14005940481,
    67.852216954694));
#451 = CARTESIAN_POINT('',(135.35791702305,226.81678788655,
    67.826610506526));
#452 = CARTESIAN_POINT('',(135.7678751976,226.69821925999,
    67.816581551129));
#453 = CARTESIAN_POINT('',(136.18412649117,226.62650509903,
    67.81027735899));
#454 = CARTESIAN_POINT('',(136.60338440376,226.60036316008,
    67.80793879347));
#455 = CARTESIAN_POINT('',(137.02280965623,226.6193231755,67.80964108053
    ));
#456 = CARTESIAN_POINT('',(137.439600478,226.68373972146,67.815323318173
    ));
#457 = CARTESIAN_POINT('',(137.85058099531,226.79480443145,
    67.824766033272));
#458 = CARTESIAN_POINT('',(138.41833053071,227.02101652185,
    67.842818004973));
#459 = CARTESIAN_POINT('',(138.58337072472,227.09589125385,
    67.848692791568));
#460 = CARTESIAN_POINT('',(138.74636645455,227.17933254147,
    67.85510643504));
#461 = CARTESIAN_POINT('',(138.90698251773,227.27151242891,
    67.862019182738));
#462 = CARTESIAN_POINT('',(139.06483266526,227.37262158883,
    67.869382628157));
#463 = CARTESIAN_POINT('',(139.2194704099,227.48286346223,
    67.877138119969));
#464 = CARTESIAN_POINT('',(139.37037983435,227.60244839836,
    67.885215171055));
#465 = CARTESIAN_POINT('',(139.70046618752,227.89324689226,
    67.903938359195));
#466 = CARTESIAN_POINT('',(139.87766052152,228.07029186508,
    67.914745929146));
#467 = CARTESIAN_POINT('',(140.04695531463,228.26294610943,
    67.925770167904));
#468 = CARTESIAN_POINT('',(140.20665149632,228.47131808432,
    67.936791356548));
#469 = CARTESIAN_POINT('',(140.35492974703,228.6953775979,
    67.947551670361));
#470 = CARTESIAN_POINT('',(140.48983372999,228.93492948558,
    67.957759551765));
#471 = CARTESIAN_POINT('',(140.60925182023,229.18958467983,
    67.967099252546));
#472 = CARTESIAN_POINT('',(140.77766542985,229.63552184809,
    67.980596617768));
#473 = CARTESIAN_POINT('',(140.83675394593,229.81853787419,
    67.98543188463));
#474 = CARTESIAN_POINT('',(140.88726880324,230.00693895361,
    67.989639634489));
#475 = CARTESIAN_POINT('',(140.92847810181,230.19980514141,
    67.993119850225));
#476 = CARTESIAN_POINT('',(140.95981452701,230.39615140649,
    67.995790957734));
#477 = CARTESIAN_POINT('',(140.9808779536,230.59494494935,
    67.997594669905));
#478 = CARTESIAN_POINT('',(140.99143824457,230.79512277498,
    67.998498925933));
#479 = CARTESIAN_POINT('',(140.99143824457,230.99560952102,
    67.998498925933));
#480 = PCURVE('',#232,#481);
#481 = DEFINITIONAL_REPRESENTATION('',(#482),#562);
#482 = B_SPLINE_CURVE_WITH_KNOTS('',8,(#483,#484,#485,#486,#487,#488,
    #489,#490,#491,#492,#493,#494,#495,#496,#497,#498,#499,#500,#501,
    #502,#503,#504,#505,#506,#507,#508,#509,#510,#511,#512,#513,#514,
    #515,#516,#517,#518,#519,#520,#521,#522,#523,#524,#525,#526,#527,
    #528,#529,#530,#531,#532,#533,#534,#535,#536,#537,#538,#539,#540,
    #541,#542,#543,#544,#545,#546,#547,#548,#549,#550,#551,#552,#553,
    #554,#555,#556,#557,#558,#559,#560,#561),.UNSPECIFIED.,.T.,.F.,(9,7,
    7,7,7,7,7,7,7,7,7,9),(0.,4.871092690416E-02,0.122865038476,
    0.182102145084,0.249168646262,0.426222109776,0.54833454768,
    0.679238299797,0.819999136276,0.87855307758,0.951851990122,1.),
  .UNSPECIFIED.);
#483 = CARTESIAN_POINT('',(-1.570796326795,-20.25));
#484 = CARTESIAN_POINT('',(-1.566849566525,-20.25));
#485 = CARTESIAN_POINT('',(-1.562909018522,-20.23943879453));
#486 = CARTESIAN_POINT('',(-1.558995712729,-20.21837477083));
#487 = CARTESIAN_POINT('',(-1.555130438413,-20.18703860553));
#488 = CARTESIAN_POINT('',(-1.55133340663,-20.14583036248));
#489 = CARTESIAN_POINT('',(-1.54762391391,-20.0953167841));
#490 = CARTESIAN_POINT('',(-1.544020007159,-20.03622877622));
#491 = CARTESIAN_POINT('',(-1.535237613435,-19.86781357566));
#492 = CARTESIAN_POINT('',(-1.530221448646,-19.74839548541));
#493 = CARTESIAN_POINT('',(-1.52550171185,-19.61349150245));
#494 = CARTESIAN_POINT('',(-1.521086124326,-19.46521325174));
#495 = CARTESIAN_POINT('',(-1.516978662424,-19.30551707006));
#496 = CARTESIAN_POINT('',(-1.513180098639,-19.13622227695));
#497 = CARTESIAN_POINT('',(-1.509688493553,-18.95902794294));
#498 = CARTESIAN_POINT('',(-1.50395226086,-18.62894158978));
#499 = CARTESIAN_POINT('',(-1.501592874613,-18.47803216533));
#500 = CARTESIAN_POINT('',(-1.499417409127,-18.32339442069));
#501 = CARTESIAN_POINT('',(-1.497421810951,-18.16554427315));
#502 = CARTESIAN_POINT('',(-1.495602157523,-18.00492820998));
#503 = CARTESIAN_POINT('',(-1.493954770714,-17.84193248015));
#504 = CARTESIAN_POINT('',(-1.492476330377,-17.67689228614));
#505 = CARTESIAN_POINT('',(-1.489678192514,-17.32126478407));
#506 = CARTESIAN_POINT('',(-1.48840530511,-17.13018458447));
#507 = CARTESIAN_POINT('',(-1.487341408728,-16.93731408386));
#508 = CARTESIAN_POINT('',(-1.486483257171,-16.74305344117));
#509 = CARTESIAN_POINT('',(-1.485828322144,-16.54776113544));
#510 = CARTESIAN_POINT('',(-1.48537484039,-16.35176583391));
#511 = CARTESIAN_POINT('',(-1.485121860846,-16.15537826013));
#512 = CARTESIAN_POINT('',(-1.484930511093,-15.44021469004));
#513 = CARTESIAN_POINT('',(-1.486188953563,-14.92274710583));
#514 = CARTESIAN_POINT('',(-1.488825356185,-14.41050055537));
#515 = CARTESIAN_POINT('',(-1.492886102053,-13.90823512145));
#516 = CARTESIAN_POINT('',(-1.498460069351,-13.4231737477));
#517 = CARTESIAN_POINT('',(-1.505657117018,-12.96655287431));
#518 = CARTESIAN_POINT('',(-1.514591000846,-12.55478567406));
#519 = CARTESIAN_POINT('',(-1.532713506721,-11.97857085928));
#520 = CARTESIAN_POINT('',(-1.541188834927,-11.76984014217));
#521 = CARTESIAN_POINT('',(-1.550550416625,-11.60925758712));
#522 = CARTESIAN_POINT('',(-1.560521639646,-11.51160381643));
#523 = CARTESIAN_POINT('',(-1.570762007552,-11.48480034043));
#524 = CARTESIAN_POINT('',(-1.580909698776,-11.52982860169));
#525 = CARTESIAN_POINT('',(-1.590620011836,-11.64054158668));
#526 = CARTESIAN_POINT('',(-1.609232016912,-11.97810152171));
#527 = CARTESIAN_POINT('',(-1.617912576932,-12.21069260517));
#528 = CARTESIAN_POINT('',(-1.625600907057,-12.48724736851));
#529 = CARTESIAN_POINT('',(-1.632299903236,-12.79688341982));
#530 = CARTESIAN_POINT('',(-1.638035041634,-13.13090724416));
#531 = CARTESIAN_POINT('',(-1.642843032879,-13.48238171386));
#532 = CARTESIAN_POINT('',(-1.646765666978,-13.84588883873));
#533 = CARTESIAN_POINT('',(-1.653149211865,-14.61647877848));
#534 = CARTESIAN_POINT('',(-1.655491541525,-15.02643695302));
#535 = CARTESIAN_POINT('',(-1.656908681689,-15.4426882466));
#536 = CARTESIAN_POINT('',(-1.657425349246,-15.86194615918));
#537 = CARTESIAN_POINT('',(-1.657050612701,-16.28137141166));
#538 = CARTESIAN_POINT('',(-1.655777645123,-16.69816223343));
#539 = CARTESIAN_POINT('',(-1.653583473426,-17.10914275073));
#540 = CARTESIAN_POINT('',(-1.649116323213,-17.67689228614));
#541 = CARTESIAN_POINT('',(-1.647637882876,-17.84193248015));
#542 = CARTESIAN_POINT('',(-1.645990496067,-18.00492820998));
#543 = CARTESIAN_POINT('',(-1.644170842639,-18.16554427315));
#544 = CARTESIAN_POINT('',(-1.642175244463,-18.32339442069));
#545 = CARTESIAN_POINT('',(-1.639999778976,-18.47803216533));
#546 = CARTESIAN_POINT('',(-1.63764039273,-18.62894158978));
#547 = CARTESIAN_POINT('',(-1.631904160036,-18.95902794294));
#548 = CARTESIAN_POINT('',(-1.628412554951,-19.13622227695));
#549 = CARTESIAN_POINT('',(-1.624613991165,-19.30551707006));
#550 = CARTESIAN_POINT('',(-1.620506529263,-19.46521325174));
#551 = CARTESIAN_POINT('',(-1.61609094174,-19.61349150245));
#552 = CARTESIAN_POINT('',(-1.611371204943,-19.74839548541));
#553 = CARTESIAN_POINT('',(-1.606355040155,-19.86781357566));
#554 = CARTESIAN_POINT('',(-1.597572729394,-20.03622718527));
#555 = CARTESIAN_POINT('',(-1.593968821137,-20.09531570135));
#556 = CARTESIAN_POINT('',(-1.590259266066,-20.14583055866));
#557 = CARTESIAN_POINT('',(-1.586462140828,-20.18703985724));
#558 = CARTESIAN_POINT('',(-1.582596776924,-20.21837628243));
#559 = CARTESIAN_POINT('',(-1.578683424733,-20.23943970902));
#560 = CARTESIAN_POINT('',(-1.574742916284,-20.25));
#561 = CARTESIAN_POINT('',(-1.570796326795,-20.25));
#562 = ( GEOMETRIC_REPRESENTATION_CONTEXT(2) 
PARAMETRIC_REPRESENTATION_CONTEXT() REPRESENTATION_CONTEXT('2D SPACE',''
  ) );
#563 = PCURVE('',#564,#569);
#564 = CYLINDRICAL_SURFACE('',#565,4.35);
#565 = AXIS2_PLACEMENT_3D('',#566,#567,#568);
#566 = CARTESIAN_POINT('',(136.64143824457,230.99560952102,
    62.823498925933));
#567 = DIRECTION('',(-0.,-0.,-1.));
#568 = DIRECTION('',(1.,0.,0.));
#569 = DEFINITIONAL_REPRESENTATION('',(#570),#650);
#570 = B_SPLINE_CURVE_WITH_KNOTS('',8,(#571,#572,#573,#574,#575,#576,
    #577,#578,#579,#580,#581,#582,#583,#584,#585,#586,#587,#588,#589,
    #590,#591,#592,#593,#594,#595,#596,#597,#598,#599,#600,#601,#602,
    #603,#604,#605,#606,#607,#608,#609,#610,#611,#612,#613,#614,#615,
    #616,#617,#618,#619,#620,#621,#622,#623,#624,#625,#626,#627,#628,
    #629,#630,#631,#632,#633,#634,#635,#636,#637,#638,#639,#640,#641,
    #642,#643,#644,#645,#646,#647,#648,#649),.UNSPECIFIED.,.F.,.F.,(9,7,
    7,7,7,7,7,7,7,7,7,9),(0.,4.871092690416E-02,0.122865038476,
    0.182102145084,0.249168646262,0.426222109776,0.54833454768,
    0.679238299797,0.819999136276,0.87855307758,0.951851990122,1.),
  .UNSPECIFIED.);
#571 = CARTESIAN_POINT('',(0.,-5.175));
#572 = CARTESIAN_POINT('',(-4.60909015418E-02,-5.175));
#573 = CARTESIAN_POINT('',(-9.210925165131E-02,-5.17409566608));
#574 = CARTESIAN_POINT('',(-0.13795758688,-5.172291902637));
#575 = CARTESIAN_POINT('',(-0.18353923465,-5.169620818782));
#576 = CARTESIAN_POINT('',(-0.228754902047,-5.166140694702));
#577 = CARTESIAN_POINT('',(-0.273499280733,-5.16193305076));
#578 = CARTESIAN_POINT('',(-0.317657667988,-5.157097819341));
#579 = CARTESIAN_POINT('',(-0.427240138634,-5.143600326614));
#580 = CARTESIAN_POINT('',(-0.491705300622,-5.134260625833));
#581 = CARTESIAN_POINT('',(-0.554620579418,-5.124052744429));
#582 = CARTESIAN_POINT('',(-0.616078937948,-5.113292430616));
#583 = CARTESIAN_POINT('',(-0.676153447209,-5.102271241972));
#584 = CARTESIAN_POINT('',(-0.734902727405,-5.091247003214));
#585 = CARTESIAN_POINT('',(-0.792372195484,-5.080439433262));
#586 = CARTESIAN_POINT('',(-0.893500919749,-5.061716245122));
#587 = CARTESIAN_POINT('',(-0.937704608499,-5.053639194036));
#588 = CARTESIAN_POINT('',(-0.981269283842,-5.045883702224));
#589 = CARTESIAN_POINT('',(-1.024258158666,-5.038520256805));
#590 = CARTESIAN_POINT('',(-1.066731536645,-5.031607509108));
#591 = CARTESIAN_POINT('',(-1.108747788651,-5.025193865635));
#592 = CARTESIAN_POINT('',(-1.150364329175,-5.019319079041));
#593 = CARTESIAN_POINT('',(-1.238368093971,-5.00801166758));
#594 = CARTESIAN_POINT('',(-1.284658654726,-5.002740229238));
#595 = CARTESIAN_POINT('',(-1.330585864635,-4.998249403875));
#596 = CARTESIAN_POINT('',(-1.37622211369,-4.994575700585));
#597 = CARTESIAN_POINT('',(-1.421637693413,-4.991745368721));
#598 = CARTESIAN_POINT('',(-1.466901898016,-4.989775508853));
#599 = CARTESIAN_POINT('',(-1.512084125567,-4.988675183734));
#600 = CARTESIAN_POINT('',(-1.676504618483,-4.987842888622));
#601 = CARTESIAN_POINT('',(-1.795254115482,-4.99331584949));
#602 = CARTESIAN_POINT('',(-1.915166358015,-5.004818126403));
#603 = CARTESIAN_POINT('',(-2.037650361202,-5.022047052645));
#604 = CARTESIAN_POINT('',(-2.164030390211,-5.044335865888));
#605 = CARTESIAN_POINT('',(-2.295710701716,-5.070394319969));
#606 = CARTESIAN_POINT('',(-2.434230597246,-5.097699844449));
#607 = CARTESIAN_POINT('',(-2.683718791695,-5.139555357447));
#608 = CARTESIAN_POINT('',(-2.793010586943,-5.155956508908));
#609 = CARTESIAN_POINT('',(-2.906830446269,-5.169609676961));
#610 = CARTESIAN_POINT('',(-3.023249616195,-5.178390115311));
#611 = CARTESIAN_POINT('',(-3.140764972784,-5.180746113766));
#612 = CARTESIAN_POINT('',(-3.257957769052,-5.176592574503));
#613 = CARTESIAN_POINT('',(-3.373295120937,-5.167067463778));
#614 = CARTESIAN_POINT('',(-3.604001261611,-5.139835127412));
#615 = CARTESIAN_POINT('',(-3.717380129613,-5.12175250213));
#616 = CARTESIAN_POINT('',(-3.82580038968,-5.101600958544));
#617 = CARTESIAN_POINT('',(-3.929977984513,-5.081104355803));
#618 = CARTESIAN_POINT('',(-4.03049809142,-5.061570304156));
#619 = CARTESIAN_POINT('',(-4.127881473211,-5.043904901209));
#620 = CARTESIAN_POINT('',(-4.222609375481,-5.028718028762));
#621 = CARTESIAN_POINT('',(-4.414713154873,-5.003111580594));
#622 = CARTESIAN_POINT('',(-4.512163361151,-4.993082625197));
#623 = CARTESIAN_POINT('',(-4.608283245577,-4.986778433057));
#624 = CARTESIAN_POINT('',(-4.703729672784,-4.984439867537));
#625 = CARTESIAN_POINT('',(-4.799128474555,-4.986142154597));
#626 = CARTESIAN_POINT('',(-4.895106807625,-4.991824392241));
#627 = CARTESIAN_POINT('',(-4.992325385605,-5.001267107339));
#628 = CARTESIAN_POINT('',(-5.132820978004,-5.019319079041));
#629 = CARTESIAN_POINT('',(-5.174437518529,-5.025193865635));
#630 = CARTESIAN_POINT('',(-5.216453770535,-5.031607509108));
#631 = CARTESIAN_POINT('',(-5.258927148514,-5.038520256805));
#632 = CARTESIAN_POINT('',(-5.301916023338,-5.045883702224));
#633 = CARTESIAN_POINT('',(-5.345480698681,-5.053639194036));
#634 = CARTESIAN_POINT('',(-5.38968438743,-5.061716245122));
#635 = CARTESIAN_POINT('',(-5.490813111696,-5.080439433262));
#636 = CARTESIAN_POINT('',(-5.548282579775,-5.091247003214));
#637 = CARTESIAN_POINT('',(-5.607031859971,-5.102271241972));
#638 = CARTESIAN_POINT('',(-5.667106369232,-5.113292430616));
#639 = CARTESIAN_POINT('',(-5.728564727761,-5.124052744429));
#640 = CARTESIAN_POINT('',(-5.791480006557,-5.134260625833));
#641 = CARTESIAN_POINT('',(-5.855945168546,-5.143600326614));
#642 = CARTESIAN_POINT('',(-5.965526604014,-5.157097691836));
#643 = CARTESIAN_POINT('',(-6.009685048673,-5.161932958697));
#644 = CARTESIAN_POINT('',(-6.054430203281,-5.166140708556));
#645 = CARTESIAN_POINT('',(-6.09964697629,-5.169620924293));
#646 = CARTESIAN_POINT('',(-6.145229654038,-5.172292031801));
#647 = CARTESIAN_POINT('',(-6.191078511739,-5.174095743972));
#648 = CARTESIAN_POINT('',(-6.237096400044,-5.175));
#649 = CARTESIAN_POINT('',(-6.28318530718,-5.175));
#650 = ( GEOMETRIC_REPRESENTATION_CONTEXT(2) 
PARAMETRIC_REPRESENTATION_CONTEXT() REPRESENTATION_CONTEXT('2D SPACE',''
  ) );
#651 = ADVANCED_FACE('',(#652,#655),#377,.T.);
#652 = FACE_BOUND('',#653,.T.);
#653 = EDGE_LOOP('',(#654));
#654 = ORIENTED_EDGE('',*,*,#362,.T.);
#655 = FACE_BOUND('',#656,.T.);
#656 = EDGE_LOOP('',(#657));
#657 = ORIENTED_EDGE('',*,*,#658,.T.);
#658 = EDGE_CURVE('',#659,#659,#661,.T.);
#659 = VERTEX_POINT('',#660);
#660 = CARTESIAN_POINT('',(140.99143824457,230.99560952102,
    80.698498925933));
#661 = SURFACE_CURVE('',#662,(#667,#678),.PCURVE_S1.);
#662 = CIRCLE('',#663,4.35);
#663 = AXIS2_PLACEMENT_3D('',#664,#665,#666);
#664 = CARTESIAN_POINT('',(136.64143824457,230.99560952102,
    80.698498925933));
#665 = DIRECTION('',(0.,0.,-1.));
#666 = DIRECTION('',(1.,0.,0.));
#667 = PCURVE('',#377,#668);
#668 = DEFINITIONAL_REPRESENTATION('',(#669),#677);
#669 = ( BOUNDED_CURVE() B_SPLINE_CURVE(2,(#670,#671,#672,#673,#674,#675
,#676),.UNSPECIFIED.,.T.,.F.) B_SPLINE_CURVE_WITH_KNOTS((1,2,2,2,2,1),(
    -2.094395102393,0.,2.094395102393,4.188790204786,6.28318530718,
8.377580409573),.UNSPECIFIED.) CURVE() GEOMETRIC_REPRESENTATION_ITEM() 
RATIONAL_B_SPLINE_CURVE((1.,0.5,1.,0.5,1.,0.5,1.)) REPRESENTATION_ITEM(
  '') );
#670 = CARTESIAN_POINT('',(4.35,0.));
#671 = CARTESIAN_POINT('',(4.35,-7.534421012925));
#672 = CARTESIAN_POINT('',(-2.175,-3.767210506462));
#673 = CARTESIAN_POINT('',(-8.7,-1.065442715258E-15));
#674 = CARTESIAN_POINT('',(-2.175,3.767210506462));
#675 = CARTESIAN_POINT('',(4.35,7.534421012925));
#676 = CARTESIAN_POINT('',(4.35,0.));
#677 = ( GEOMETRIC_REPRESENTATION_CONTEXT(2) 
PARAMETRIC_REPRESENTATION_CONTEXT() REPRESENTATION_CONTEXT('2D SPACE',''
  ) );
#678 = PCURVE('',#564,#679);
#679 = DEFINITIONAL_REPRESENTATION('',(#680),#684);
#680 = LINE('',#681,#682);
#681 = CARTESIAN_POINT('',(-6.28318530718,-17.875));
#682 = VECTOR('',#683,1.);
#683 = DIRECTION('',(1.,-0.));
#684 = ( GEOMETRIC_REPRESENTATION_CONTEXT(2) 
PARAMETRIC_REPRESENTATION_CONTEXT() REPRESENTATION_CONTEXT('2D SPACE',''
  ) );
#685 = ADVANCED_FACE('',(#686),#564,.F.);
#686 = FACE_BOUND('',#687,.T.);
#687 = EDGE_LOOP('',(#688,#689,#710,#711));
#688 = ORIENTED_EDGE('',*,*,#396,.F.);
#689 = ORIENTED_EDGE('',*,*,#690,.T.);
#690 = EDGE_CURVE('',#397,#659,#691,.T.);
#691 = SEAM_CURVE('',#692,(#696,#703),.PCURVE_S1.);
#692 = LINE('',#693,#694);
#693 = CARTESIAN_POINT('',(140.99143824457,230.99560952102,
    62.823498925933));
#694 = VECTOR('',#695,1.);
#695 = DIRECTION('',(0.,0.,1.));
#696 = PCURVE('',#564,#697);
#697 = DEFINITIONAL_REPRESENTATION('',(#698),#702);
#698 = LINE('',#699,#700);
#699 = CARTESIAN_POINT('',(-6.28318530718,0.));
#700 = VECTOR('',#701,1.);
#701 = DIRECTION('',(-0.,-1.));
#702 = ( GEOMETRIC_REPRESENTATION_CONTEXT(2) 
PARAMETRIC_REPRESENTATION_CONTEXT() REPRESENTATION_CONTEXT('2D SPACE',''
  ) );
#703 = PCURVE('',#564,#704);
#704 = DEFINITIONAL_REPRESENTATION('',(#705),#709);
#705 = LINE('',#706,#707);
#706 = CARTESIAN_POINT('',(-0.,0.));
#707 = VECTOR('',#708,1.);
#708 = DIRECTION('',(-0.,-1.));
#709 = ( GEOMETRIC_REPRESENTATION_CONTEXT(2) 
PARAMETRIC_REPRESENTATION_CONTEXT() REPRESENTATION_CONTEXT('2D SPACE',''
  ) );
#710 = ORIENTED_EDGE('',*,*,#658,.F.);
#711 = ORIENTED_EDGE('',*,*,#690,.F.);
#712 = ( GEOMETRIC_REPRESENTATION_CONTEXT(3) 
GLOBAL_UNCERTAINTY_ASSIGNED_CONTEXT((#716)) GLOBAL_UNIT_ASSIGNED_CONTEXT
((#713,#714,#715)) REPRESENTATION_CONTEXT('Context #1',
  '3D Context with UNIT and UNCERTAINTY') );
#713 = ( LENGTH_UNIT() NAMED_UNIT(*) SI_UNIT(.MILLI.,.METRE.) );
#714 = ( NAMED_UNIT(*) PLANE_ANGLE_UNIT() SI_UNIT($,.RADIAN.) );
#715 = ( NAMED_UNIT(*) SI_UNIT($,.STERADIAN.) SOLID_ANGLE_UNIT() );
#716 = UNCERTAINTY_MEASURE_WITH_UNIT(LENGTH_MEASURE(2.E-07),#713,
  'distance_accuracy_value','confusion accuracy');
#717 = PRODUCT_RELATED_PRODUCT_CATEGORY('part',$,(#7));
ENDSEC;
END-ISO-10303-21;
